# Blender 5.0.1
# www.blender.org
mtllib Player.mtl
o left_shoulder
v 0.507833 1.945234 0.048200
v 0.241876 2.288644 0.008849
v 0.414253 1.873151 -0.033849
v 0.148990 2.209096 -0.096329
v 0.601414 2.005534 -0.050041
v 0.334763 2.340497 -0.112401
v 0.507833 1.925392 -0.156004
v 0.241876 2.260949 -0.217578
v 0.320239 2.191558 0.041570
v 0.211613 2.098531 -0.081429
v 0.320239 2.159170 -0.223224
v 0.428864 2.252197 -0.100225
v 0.286857 2.039116 -0.073161
v 0.377235 2.089569 -0.191137
v 0.467613 2.166969 -0.088800
v 0.377235 2.116516 0.029176
v 0.192720 2.338575 -0.109351
v 0.528969 1.907886 -0.054817
vn 0.0183 0.0971 0.9951
vn -0.2763 0.4720 0.8372
vn -0.9858 -0.1674 0.0156
vn -0.7661 -0.6379 0.0785
vn -0.2752 0.2545 -0.9271
vn 0.0298 -0.1606 -0.9866
vn 0.4343 0.8935 -0.1142
vn 0.8150 0.5752 -0.0703
vn 0.3040 -0.5037 -0.8086
vn 0.9886 0.1440 0.0441
vn 0.5809 -0.8128 0.0447
vn -0.5933 0.8007 -0.0825
vn 0.8630 0.5012 -0.0631
vn 0.0559 0.0463 0.9974
vn 0.0983 -0.2511 -0.9629
vn -0.7004 -0.7090 0.0828
vn 0.2918 -0.2995 0.9084
vn -0.4172 -0.8936 0.1657
vt 0.496094 0.082031
vt 0.496094 0.023438
vt 0.558594 0.023438
vt 0.558594 0.082031
vt 0.308594 0.082031
vt 0.308594 0.023438
vt 0.375000 0.023438
vt 0.375000 0.082031
vt 0.437500 0.023438
vt 0.437500 0.082031
vt 0.375000 0.218750
vt 0.437500 0.218750
vt 0.406250 0.238281
vt 0.339844 0.003906
vt 0.437500 0.128906
vt 0.496094 0.128906
vt 0.375000 0.128906
vt 0.308594 0.128906
vt 0.558594 0.128906
vt 0.496094 0.218750
vt 0.558594 0.218750
vt 0.308594 0.218750
vt 0.406250 0.003906
vt 0.527344 0.003906
vt 0.464844 0.003906
vt 0.464844 0.238281
vt 0.343750 0.238281
vt 0.527344 0.238281
s 1
usemtl 
f 9/1/1 2/2/2 4/3/3 10/4/4
f 10/5/4 4/6/3 8/7/5 11/8/6
f 11/8/6 8/7/5 6/9/7 12/10/8
f 12/10/8 6/9/7 2/2/2 9/1/1
f 7/11/9 5/12/10 18/13/11
f 8/7/5 4/6/3 17/14/12
f 15/15/13 12/10/8 9/1/1 16/16/14
f 14/17/15 11/8/6 12/10/8 15/15/13
f 13/18/16 10/5/4 11/8/6 14/17/15
f 16/16/14 9/1/1 10/4/4 13/19/16
f 1/20/17 16/16/14 13/19/16 3/21/18
f 3/22/18 13/18/16 14/17/15 7/11/9
f 7/11/9 14/17/15 15/15/13 5/12/10
f 5/12/10 15/15/13 16/16/14 1/20/17
f 6/9/7 8/7/5 17/23/12
f 4/3/3 2/2/2 17/24/12
f 2/2/2 6/9/7 17/25/12
f 5/12/10 1/20/17 18/26/11
f 3/22/18 7/11/9 18/27/11
f 1/20/17 3/21/18 18/28/11
o shoulder_right
v -0.507833 1.945234 0.048200
v -0.241876 2.288644 0.008849
v -0.414253 1.873151 -0.033849
v -0.148990 2.209096 -0.096329
v -0.601414 2.005534 -0.050041
v -0.334763 2.340497 -0.112401
v -0.507833 1.925392 -0.156004
v -0.241876 2.260949 -0.217578
v -0.320239 2.191558 0.041570
v -0.211613 2.098531 -0.081429
v -0.320239 2.159170 -0.223224
v -0.428864 2.252197 -0.100225
v -0.286857 2.039116 -0.073161
v -0.377235 2.089569 -0.191137
v -0.467613 2.166969 -0.088800
v -0.377235 2.116516 0.029176
v -0.192720 2.338575 -0.109351
v -0.528969 1.907886 -0.054817
vn -0.0183 0.0971 0.9951
vn 0.7661 -0.6379 0.0785
vn 0.9858 -0.1674 0.0156
vn 0.2763 0.4720 0.8372
vn -0.0298 -0.1606 -0.9866
vn 0.2752 0.2545 -0.9271
vn -0.8150 0.5752 -0.0703
vn -0.4343 0.8935 -0.1142
vn -0.3040 -0.5037 -0.8086
vn -0.5809 -0.8128 0.0447
vn -0.9886 0.1440 0.0441
vn 0.5933 0.8007 -0.0825
vn -0.8630 0.5012 -0.0631
vn -0.0559 0.0463 0.9974
vn -0.0983 -0.2511 -0.9629
vn 0.7004 -0.7090 0.0828
vn -0.2918 -0.2995 0.9084
vn 0.4172 -0.8936 0.1657
vt 0.496094 0.082031
vt 0.558594 0.082031
vt 0.558594 0.023438
vt 0.496094 0.023438
vt 0.308594 0.082031
vt 0.375000 0.082031
vt 0.375000 0.023438
vt 0.308594 0.023438
vt 0.437500 0.082031
vt 0.437500 0.023438
vt 0.375000 0.218750
vt 0.406250 0.238281
vt 0.437500 0.218750
vt 0.339844 0.003906
vt 0.437500 0.128906
vt 0.496094 0.128906
vt 0.375000 0.128906
vt 0.308594 0.128906
vt 0.558594 0.128906
vt 0.496094 0.218750
vt 0.558594 0.218750
vt 0.308594 0.218750
vt 0.406250 0.003906
vt 0.527344 0.003906
vt 0.464844 0.003906
vt 0.464844 0.238281
vt 0.343750 0.238281
vt 0.527344 0.238281
s 1
usemtl 
f 27/29/19 28/30/20 22/31/21 20/32/22
f 28/33/20 29/34/23 26/35/24 22/36/21
f 29/34/23 30/37/25 24/38/26 26/35/24
f 30/37/25 27/29/19 20/32/22 24/38/26
f 25/39/27 36/40/28 23/41/29
f 26/35/24 35/42/30 22/36/21
f 33/43/31 34/44/32 27/29/19 30/37/25
f 32/45/33 33/43/31 30/37/25 29/34/23
f 31/46/34 32/45/33 29/34/23 28/33/20
f 34/44/32 31/47/34 28/30/20 27/29/19
f 19/48/35 21/49/36 31/47/34 34/44/32
f 21/50/36 25/39/27 32/45/33 31/46/34
f 25/39/27 23/41/29 33/43/31 32/45/33
f 23/41/29 19/48/35 34/44/32 33/43/31
f 24/38/26 35/51/30 26/35/24
f 22/31/21 35/52/30 20/32/22
f 20/32/22 35/53/30 24/38/26
f 23/41/29 36/54/28 19/48/35
f 21/50/36 36/55/28 25/39/27
f 19/48/35 36/56/28 21/49/36
o left_arm
v 0.743760 1.637831 0.155417
v 0.455137 2.052478 0.004257
v 0.693443 1.582600 0.108287
v 0.385531 1.973613 -0.055289
v 0.773599 1.640825 0.077836
v 0.524744 2.065050 -0.093761
v 0.743760 1.585360 0.045518
v 0.455137 1.986185 -0.153307
v 0.533645 1.952205 0.075117
v 0.441707 1.848038 -0.003533
v 0.533645 1.864644 -0.132998
v 0.625583 1.968811 -0.054347
v 0.421323 2.063071 -0.092928
v 0.773811 1.572724 0.109415
vn 0.0052 0.4086 0.9127
vn -0.2670 0.7060 0.6560
vn -0.9952 -0.0891 0.0399
vn -0.8486 -0.4894 0.2011
vn -0.2705 0.0305 -0.9623
vn -0.0064 -0.3680 -0.9298
vn 0.4522 0.8230 -0.3439
vn 0.8271 0.5125 -0.2307
vn 0.2573 -0.6776 -0.6889
vn 0.9669 0.2106 -0.1441
vn 0.6530 -0.7082 0.2684
vn -0.5803 0.7507 -0.3158
vn 0.2832 0.0431 0.9581
vn -0.5273 -0.7834 0.3291
vt 0.707031 0.160156
vt 0.707031 0.214844
vt 0.761719 0.214844
vt 0.761719 0.160156
vt 0.566406 0.160156
vt 0.566406 0.214844
vt 0.613281 0.214844
vt 0.613281 0.160156
vt 0.660156 0.214844
vt 0.660156 0.160156
vt 0.613281 0.031250
vt 0.660156 0.031250
vt 0.636719 0.003906
vt 0.589844 0.242188
vt 0.707031 0.031250
vt 0.566406 0.031250
vt 0.761719 0.031250
vt 0.636719 0.242188
vt 0.734375 0.242188
vt 0.683594 0.242188
vt 0.679688 0.003906
vt 0.589844 0.003906
vt 0.734375 0.003906
s 1
usemtl 
f 45/57/37 38/58/38 40/59/39 46/60/40
f 46/61/40 40/62/39 44/63/41 47/64/42
f 47/64/42 44/63/41 42/65/43 48/66/44
f 48/66/44 42/65/43 38/58/38 45/57/37
f 43/67/45 41/68/46 50/69/47
f 44/63/41 40/62/39 49/70/48
f 41/68/46 48/66/44 45/57/37 37/71/49
f 43/67/45 47/64/42 48/66/44 41/68/46
f 39/72/50 46/61/40 47/64/42 43/67/45
f 37/71/49 45/57/37 46/60/40 39/73/50
f 42/65/43 44/63/41 49/74/48
f 40/59/39 38/58/38 49/75/48
f 38/58/38 42/65/43 49/76/48
f 41/68/46 37/71/49 50/77/47
f 39/72/50 43/67/45 50/78/47
f 37/71/49 39/73/50 50/79/47
o arm_right
v -0.742209 1.635420 0.156899
v -0.450833 2.054021 0.004297
v -0.691412 1.579662 0.109319
v -0.380564 1.974404 -0.055817
v -0.772333 1.638442 0.078578
v -0.521104 2.066714 -0.094656
v -0.742209 1.582449 0.045952
v -0.450833 1.987096 -0.154769
v -0.530090 1.952792 0.075833
v -0.437275 1.847632 -0.003567
v -0.530090 1.864396 -0.134267
v -0.622905 1.969557 -0.054866
v -0.416696 2.064715 -0.093814
v -0.772547 1.569692 0.110459
vn -0.0052 0.4086 0.9127
vn 0.8486 -0.4894 0.2011
vn 0.9952 -0.0891 0.0399
vn 0.2670 0.7060 0.6560
vn 0.0064 -0.3680 -0.9298
vn 0.2705 0.0305 -0.9623
vn -0.8271 0.5125 -0.2307
vn -0.4522 0.8230 -0.3439
vn -0.2573 -0.6776 -0.6889
vn -0.6530 -0.7082 0.2684
vn -0.9669 0.2106 -0.1441
vn 0.5803 0.7507 -0.3158
vn -0.2832 0.0431 0.9581
vn 0.5273 -0.7834 0.3291
vt 0.707031 0.160156
vt 0.761719 0.160156
vt 0.761719 0.214844
vt 0.707031 0.214844
vt 0.566406 0.160156
vt 0.613281 0.160156
vt 0.613281 0.214844
vt 0.566406 0.214844
vt 0.660156 0.160156
vt 0.660156 0.214844
vt 0.613281 0.031250
vt 0.636719 0.003906
vt 0.660156 0.031250
vt 0.589844 0.242188
vt 0.707031 0.031250
vt 0.566406 0.031250
vt 0.761719 0.031250
vt 0.636719 0.242188
vt 0.734375 0.242188
vt 0.683594 0.242188
vt 0.679688 0.003906
vt 0.589844 0.003906
vt 0.734375 0.003906
s 1
usemtl 
f 59/80/51 60/81/52 54/82/53 52/83/54
f 60/84/52 61/85/55 58/86/56 54/87/53
f 61/85/55 62/88/57 56/89/58 58/86/56
f 62/88/57 59/80/51 52/83/54 56/89/58
f 57/90/59 64/91/60 55/92/61
f 58/86/56 63/93/62 54/87/53
f 55/92/61 51/94/63 59/80/51 62/88/57
f 57/90/59 55/92/61 62/88/57 61/85/55
f 53/95/64 57/90/59 61/85/55 60/84/52
f 51/94/63 53/96/64 60/81/52 59/80/51
f 56/89/58 63/97/62 58/86/56
f 54/82/53 63/98/62 52/83/54
f 52/83/54 63/99/62 56/89/58
f 55/92/61 64/100/60 51/94/63
f 53/95/64 64/101/60 57/90/59
f 51/94/63 64/102/60 53/96/64
o Torso
v 0.133373 1.590544 0.143424
v 0.270255 2.282935 -0.011521
v 0.116344 1.641279 -0.178350
v 0.257698 2.282036 -0.188166
v 0.201860 1.969134 -0.200539
v 0.187305 1.937584 0.119352
v 0.149287 1.795317 -0.165376
v 0.147611 1.784471 0.119162
v 0.275245 2.194572 -0.211975
v 0.248224 2.120000 0.118254
v 0.244455 1.627009 -0.013938
v 0.292832 2.301136 -0.098834
v 0.267262 1.948625 -0.050633
v 0.248757 1.773772 -0.029681
v 0.297967 2.134316 -0.078108
v 0.156689 2.326937 0.005131
v 0.180083 2.361667 -0.089941
v 0.099347 2.411311 -0.082735
v 0.078792 2.479327 -0.065081
v 0.107991 1.539813 -0.009994
v 0.164554 2.311148 -0.191438
v 0.213987 1.631216 -0.120784
v 0.211460 1.610401 0.076475
v 0.179934 2.215689 -0.248633
v 0.000000 1.586576 0.157175
v 0.000000 2.313043 0.013405
v 0.000000 1.643873 -0.197864
v 0.000000 2.333933 -0.220387
v -0.133373 1.590544 0.143424
v -0.270255 2.282935 -0.011521
v -0.116344 1.641279 -0.178350
v -0.257698 2.282036 -0.188166
v 0.000000 1.951611 0.184458
v 0.000000 1.976716 -0.247785
v -0.201860 1.969134 -0.200539
v -0.187305 1.937584 0.119352
v 0.000000 1.823929 -0.197341
v -0.149287 1.795317 -0.165376
v -0.147611 1.784471 0.119162
v 0.000000 1.783494 0.156160
v 0.000000 2.124762 0.193074
v 0.000000 2.220261 -0.258554
v -0.275245 2.194572 -0.211975
v -0.248224 2.120000 0.118254
v -0.244455 1.627009 -0.013938
v -0.292832 2.301136 -0.098834
v -0.267262 1.948625 -0.050633
v -0.248757 1.773772 -0.029681
v -0.297967 2.134316 -0.078108
v -0.156689 2.326937 0.005131
v -0.180083 2.361667 -0.089941
v 0.000000 2.411569 -0.169935
v 0.000000 2.386364 0.003309
v -0.099347 2.411311 -0.082735
v 0.000000 2.513774 -0.153872
v 0.000000 2.472252 0.020467
v -0.078792 2.479327 -0.065081
v -0.107991 1.539813 -0.009994
v 0.000000 1.520951 -0.006050
v -0.164554 2.311148 -0.191438
v -0.213987 1.631216 -0.120784
v -0.211460 1.610401 0.076475
v 0.000000 2.523941 -0.060015
v -0.179934 2.215689 -0.248633
vn -0.0000 0.2778 0.9606
vn 0.6714 0.1500 0.7257
vn 0.2475 0.7186 0.6499
vn -0.0000 0.5757 0.8176
vn 0.7034 -0.4381 -0.5598
vn 0.8980 -0.4400 0.0075
vn 0.2645 -0.9588 -0.1039
vn 0.5567 -0.0189 0.8305
vn 0.6266 -0.1560 0.7636
vn -0.0000 -0.0985 0.9951
vn -0.0000 -0.0330 0.9995
vn 0.9976 -0.0687 -0.0087
vn 0.9712 -0.2366 -0.0280
vn -0.0000 -0.1524 -0.9883
vn -0.0000 -0.1935 -0.9811
vn 0.5548 -0.2549 -0.7920
vn 0.5225 -0.1167 -0.8446
vn -0.0000 -0.4515 -0.8923
vn 0.3466 -0.4365 -0.8303
vn 0.4385 -0.5017 0.7457
vn -0.0000 -0.5436 0.8393
vn 0.7100 0.5086 0.4871
vn 0.9981 -0.0609 -0.0010
vn 0.2308 0.1656 -0.9588
vn 0.7397 0.0387 -0.6718
vn 0.8262 0.5628 -0.0256
vn -0.0000 -0.9958 -0.0911
vn 0.3556 0.9346 -0.0043
vn 0.7199 0.6934 0.0295
vn -0.0000 0.4543 -0.8909
vn -0.0000 0.7053 -0.7089
vn 0.8889 0.4417 0.1216
vn -0.0000 0.9757 0.2189
vn -0.0000 0.5814 -0.8136
vn -0.0000 0.0368 0.9993
vn -0.0000 0.3470 0.9379
vn 0.6213 0.5228 -0.5837
vn 0.2739 0.6598 -0.6997
vn 0.7913 -0.4281 0.4366
vn -0.0000 0.1644 -0.9864
vn -0.2475 0.7186 0.6499
vn -0.6714 0.1500 0.7257
vn -0.7034 -0.4381 -0.5598
vn -0.2645 -0.9588 -0.1039
vn -0.8980 -0.4400 0.0075
vn -0.5567 -0.0189 0.8305
vn -0.6266 -0.1560 0.7636
vn -0.9976 -0.0687 -0.0087
vn -0.9712 -0.2366 -0.0280
vn -0.5225 -0.1167 -0.8446
vn -0.5548 -0.2549 -0.7920
vn -0.3466 -0.4365 -0.8303
vn -0.4385 -0.5017 0.7457
vn -0.7100 0.5086 0.4871
vn -0.9981 -0.0609 -0.0010
vn -0.7397 0.0387 -0.6718
vn -0.2308 0.1656 -0.9588
vn -0.8262 0.5628 -0.0256
vn -0.3556 0.9346 -0.0043
vn -0.7199 0.6934 0.0295
vn -0.8889 0.4417 0.1216
vn -0.6213 0.5228 -0.5837
vn -0.2739 0.6598 -0.6997
vn -0.7913 -0.4281 0.4366
vt 0.746094 0.734375
vt 0.917969 0.730469
vt 0.859375 0.859375
vt 0.746094 0.847656
vt 0.894531 0.917969
vt 0.925781 0.902344
vt 0.933594 0.964844
vt 0.878906 0.554688
vt 0.894531 0.644531
vt 0.746094 0.644531
vt 0.746094 0.554688
vt 0.996094 0.554688
vt 0.996094 0.656250
vt 0.726562 0.554688
vt 0.726562 0.648438
vt 0.589844 0.648438
vt 0.609375 0.542969
vt 0.726562 0.449219
vt 0.632812 0.449219
vt 0.492188 0.523438
vt 0.558594 0.441406
vt 0.855469 0.449219
vt 0.746094 0.449219
vt 0.933594 0.828125
vt 0.996094 0.753906
vt 0.617188 0.777344
vt 0.558594 0.765625
vt 0.480469 0.730469
vt 0.484375 0.625000
vt 0.484375 0.437500
vt 0.988281 0.843750
vt 0.984375 0.941406
vt 0.996094 0.988281
vt 0.933594 0.996094
vt 0.972656 0.863281
vt 0.906250 0.898438
vt 0.632812 0.921875
vt 0.722656 0.906250
vt 0.726562 0.957031
vt 0.648438 0.960938
vt 0.687500 0.996094
vt 0.726562 0.855469
vt 0.746094 0.906250
vt 0.855469 0.925781
vt 0.835938 0.960938
vt 0.761719 0.953125
vt 0.554688 0.812500
vt 0.613281 0.835938
vt 0.582031 0.890625
vt 0.511719 0.851562
vt 0.957031 0.917969
vt 0.855469 0.988281
vt 0.867188 0.949219
vt 0.996094 0.449219
vt 0.921875 0.449219
vt 0.796875 0.996094
vt 0.726562 0.785156
vt 0.492188 0.824219
s 1
usemtl 
f 105/103/65 74/104/66 80/105/67 90/106/68
f 86/107/69 75/108/70 84/109/71
f 72/110/72 70/111/73 97/112/74 104/113/75
f 78/114/76 77/115/77 70/111/73 72/110/72
f 101/116/78 98/117/79 69/118/80 71/119/81
f 91/120/82 101/116/78 71/119/81 67/121/83
f 71/119/81 78/122/76 86/123/69 67/121/83
f 65/124/84 72/110/72 104/113/75 89/125/85
f 74/104/66 66/126/86 80/105/67
f 77/115/77 79/127/87 74/104/66
f 69/118/80 88/128/88 73/129/89
f 73/129/89 79/130/87 77/131/77
f 78/122/76 75/132/70 86/123/69
f 71/119/81 69/118/80 77/131/77 78/122/76
f 79/127/87 76/133/90 66/126/86 74/104/66
f 65/134/84 89/135/85 123/136/91 84/109/71
f 76/137/90 81/138/92 80/105/67 66/126/86
f 82/139/93 116/140/94 119/141/95 83/142/96
f 83/142/96 119/141/95 127/143/97
f 92/144/98 116/140/94 82/139/93
f 117/145/99 82/146/93 83/147/96 120/148/100
f 68/149/101 85/150/102 81/151/92 76/152/90
f 70/111/73 74/104/66 105/103/65 97/112/74
f 87/153/103 65/134/84 84/109/71
f 91/154/82 67/155/83 84/109/71 123/136/91
f 75/156/70 78/114/76 87/157/103
f 67/155/83 86/107/69 84/109/71
f 75/108/70 87/153/103 84/109/71
f 69/118/80 73/129/89 77/131/77
f 70/111/73 77/115/77 74/104/66
f 78/114/76 72/110/72 65/124/84 87/157/103
f 120/148/100 83/147/96 127/158/97
f 73/129/89 88/128/88 85/150/102 68/149/101
f 98/117/79 106/159/104 88/128/88 69/118/80
f 106/159/104 92/144/98 85/150/102 88/128/88
f 117/145/99 90/106/68 82/146/93
f 80/105/67 81/138/92 82/146/93 90/106/68
f 81/151/92 85/150/102 92/144/98 82/139/93
f 73/129/89 68/149/101 76/160/90 79/130/87
f 105/103/65 90/106/68 114/105/105 108/104/106
f 125/107/107 122/109/108 109/108/109
f 103/110/110 104/113/75 97/112/74 100/111/111
f 112/114/112 103/110/110 100/111/111 111/115/113
f 101/116/78 102/119/114 99/118/115 98/117/79
f 91/120/82 95/121/116 102/119/114 101/116/78
f 102/119/114 95/121/116 125/123/107 112/122/112
f 93/124/117 89/125/85 104/113/75 103/110/110
f 108/104/106 114/105/105 94/126/118
f 111/115/113 108/104/106 113/127/119
f 99/118/115 107/129/120 128/128/121
f 107/129/120 111/131/113 113/130/119
f 112/122/112 125/123/107 109/132/109
f 102/119/114 112/122/112 111/131/113 99/118/115
f 113/127/119 108/104/106 94/126/118 110/133/122
f 93/134/117 122/109/108 123/136/91 89/135/85
f 110/137/122 94/126/118 114/105/105 115/138/123
f 118/139/124 121/142/125 119/141/95 116/140/94
f 121/142/125 127/143/97 119/141/95
f 92/144/98 118/139/124 116/140/94
f 117/145/99 120/148/100 121/147/125 118/146/124
f 96/149/126 110/152/122 115/151/123 124/150/127
f 100/111/111 97/112/74 105/103/65 108/104/106
f 126/153/128 122/109/108 93/134/117
f 91/154/82 123/136/91 122/109/108 95/155/116
f 109/156/109 126/157/128 112/114/112
f 95/155/116 122/109/108 125/107/107
f 109/108/109 122/109/108 126/153/128
f 99/118/115 111/131/113 107/129/120
f 100/111/111 108/104/106 111/115/113
f 112/114/112 126/157/128 93/124/117 103/110/110
f 120/148/100 127/158/97 121/147/125
f 107/129/120 96/149/126 124/150/127 128/128/121
f 98/117/79 99/118/115 128/128/121 106/159/104
f 106/159/104 128/128/121 124/150/127 92/144/98
f 117/145/99 118/146/124 90/106/68
f 114/105/105 90/106/68 118/146/124 115/138/123
f 115/151/123 118/139/124 92/144/98 124/150/127
f 107/129/120 113/130/119 110/160/122 96/149/126
o left_foot
v 0.261613 0.142353 -0.158535
v 0.290334 -0.000652 -0.184221
v 0.366103 0.038686 0.153346
v 0.355268 -0.000652 0.164232
v 0.159382 0.142353 -0.158535
v 0.174473 -0.000652 -0.184221
v 0.177219 0.038686 0.202531
v 0.188054 -0.000652 0.207774
v 0.261613 0.155318 -0.034937
v 0.336026 -0.000652 -0.033936
v 0.159382 0.155318 -0.034937
v 0.169161 -0.000652 -0.033936
v 0.305901 0.056560 -0.182213
v 0.159382 0.060093 -0.182213
v 0.159382 0.069145 -0.032501
v 0.343631 0.059429 -0.032501
v 0.210498 0.208052 -0.096922
vn 0.7832 0.4150 0.4629
vn -0.5793 0.4011 0.7096
vn -0.3942 -0.5404 0.7433
vn 0.6095 -0.5570 0.5641
vn -0.9957 -0.0866 0.0331
vn -0.6511 -0.7588 0.0170
vn -0.7064 0.0415 -0.7066
vn -0.5019 -0.6114 -0.6117
vn 0.6593 0.2065 -0.7230
vn 0.4161 -0.6198 -0.6654
vn -0.7223 0.6179 0.3107
vn -0.0000 0.9980 -0.0632
vn -0.6674 0.4386 -0.6018
vn 0.6473 -0.7513 -0.1288
vn 0.4982 0.8350 0.2334
vn 0.9577 0.2493 -0.1440
vn 0.4584 0.6145 -0.6420
vt 0.500000 0.250000
vt 0.500000 0.316406
vt 0.468750 0.316406
vt 0.468750 0.250000
vt 0.453125 0.351562
vt 0.347656 0.351562
vt 0.347656 0.324219
vt 0.453125 0.324219
vt 0.277344 0.351562
vt 0.277344 0.324219
vt 0.351562 0.484375
vt 0.285156 0.484375
vt 0.285156 0.453125
vt 0.351562 0.453125
vt 0.347656 0.398438
vt 0.312500 0.429688
vt 0.277344 0.398438
vt 0.394531 0.250000
vt 0.449219 0.250000
vt 0.449219 0.304688
vt 0.394531 0.316406
vt 0.308594 0.250000
vt 0.308594 0.316406
vt 0.593750 0.281250
vt 0.593750 0.316406
vt 0.625000 0.351562
vt 0.550781 0.351562
vt 0.550781 0.324219
vt 0.625000 0.324219
vt 0.613281 0.398438
vt 0.550781 0.398438
vt 0.464844 0.351562
vt 0.351562 0.527344
vt 0.304688 0.527344
vt 0.464844 0.324219
vt 0.589844 0.429688
vt 0.324219 0.562500
vt 0.613281 0.300781
s 1
usemtl 
f 131/161/129 135/162/130 136/163/131 132/164/132
f 135/165/130 143/166/133 140/167/134 136/168/131
f 143/166/133 142/169/135 134/170/136 140/167/134
f 142/171/135 141/172/137 130/173/138 134/174/136
f 139/175/139 145/176/140 133/177/141
f 140/178/134 134/179/136 130/180/138 138/181/142
f 136/182/131 140/178/134 138/181/142 132/183/132
f 131/161/129 137/184/143 139/185/139 135/162/130
f 139/175/139 143/166/133 135/165/130
f 141/186/137 144/187/144 138/188/142 130/189/138
f 129/190/145 137/191/143 144/187/144 141/186/137
f 137/191/143 131/192/129 144/187/144
f 133/193/141 129/194/145 141/172/137 142/171/135
f 139/175/139 133/177/141 142/169/135 143/166/133
f 144/187/144 131/192/129 132/195/132 138/188/142
f 129/190/145 145/196/140 137/191/143
f 133/193/141 145/197/140 129/194/145
f 137/184/143 145/198/140 139/185/139
o foot_left
v -0.261613 0.142353 -0.158535
v -0.290334 -0.000652 -0.184221
v -0.366103 0.038686 0.153346
v -0.355268 -0.000652 0.164232
v -0.159382 0.142353 -0.158535
v -0.174473 -0.000652 -0.184221
v -0.177219 0.038686 0.202531
v -0.188054 -0.000652 0.207774
v -0.261613 0.155318 -0.034937
v -0.336026 -0.000652 -0.033936
v -0.159382 0.155318 -0.034937
v -0.169161 -0.000652 -0.033936
v -0.305901 0.056560 -0.182213
v -0.159382 0.060093 -0.182213
v -0.159382 0.069145 -0.032501
v -0.343631 0.059429 -0.032501
v -0.210498 0.208052 -0.096922
vn -0.7832 0.4150 0.4629
vn -0.6095 -0.5570 0.5641
vn 0.3942 -0.5404 0.7433
vn 0.5793 0.4011 0.7096
vn 0.6511 -0.7588 0.0170
vn 0.9957 -0.0866 0.0331
vn 0.5019 -0.6114 -0.6117
vn 0.7064 0.0415 -0.7066
vn -0.4161 -0.6198 -0.6654
vn -0.6593 0.2065 -0.7230
vn 0.7223 0.6179 0.3107
vn 0.6674 0.4386 -0.6018
vn -0.0000 0.9980 -0.0632
vn -0.6473 -0.7513 -0.1288
vn -0.4982 0.8350 0.2334
vn -0.9577 0.2493 -0.1440
vn -0.4584 0.6145 -0.6420
vt 0.500000 0.250000
vt 0.468750 0.250000
vt 0.468750 0.316406
vt 0.500000 0.316406
vt 0.453125 0.351562
vt 0.453125 0.324219
vt 0.347656 0.324219
vt 0.347656 0.351562
vt 0.277344 0.324219
vt 0.277344 0.351562
vt 0.351562 0.484375
vt 0.351562 0.453125
vt 0.285156 0.453125
vt 0.285156 0.484375
vt 0.347656 0.398438
vt 0.277344 0.398438
vt 0.312500 0.429688
vt 0.394531 0.250000
vt 0.394531 0.316406
vt 0.449219 0.304688
vt 0.449219 0.250000
vt 0.308594 0.250000
vt 0.308594 0.316406
vt 0.593750 0.316406
vt 0.593750 0.281250
vt 0.625000 0.351562
vt 0.625000 0.324219
vt 0.550781 0.324219
vt 0.550781 0.351562
vt 0.613281 0.398438
vt 0.550781 0.398438
vt 0.464844 0.351562
vt 0.351562 0.527344
vt 0.304688 0.527344
vt 0.464844 0.324219
vt 0.589844 0.429688
vt 0.324219 0.562500
vt 0.613281 0.300781
s 1
usemtl 
f 148/199/146 149/200/147 153/201/148 152/202/149
f 152/203/149 153/204/148 157/205/150 160/206/151
f 160/206/151 157/205/150 151/207/152 159/208/153
f 159/209/153 151/210/152 147/211/154 158/212/155
f 156/213/156 150/214/157 162/215/158
f 157/216/150 155/217/159 147/218/154 151/219/152
f 153/220/148 149/221/147 155/217/159 157/216/150
f 148/199/146 152/202/149 156/222/156 154/223/160
f 156/213/156 152/203/149 160/206/151
f 158/224/155 147/225/154 155/226/159 161/227/161
f 146/228/162 158/224/155 161/227/161 154/229/160
f 154/229/160 161/227/161 148/230/146
f 150/231/157 159/209/153 158/212/155 146/232/162
f 156/213/156 160/206/151 159/208/153 150/214/157
f 161/227/161 155/226/159 149/233/147 148/230/146
f 146/228/162 154/229/160 162/234/158
f 150/231/157 146/232/162 162/235/158
f 154/223/160 156/222/156 162/236/158
o hand_left
v 0.795130 1.598477 0.048402
v 0.883342 1.494034 0.055716
v 0.772934 1.619309 0.121481
v 0.886170 1.560309 0.200840
v 0.755221 1.567049 0.037417
v 0.816585 1.463364 0.063906
v 0.716134 1.574579 0.105847
v 0.846299 1.450037 0.224706
v 0.767590 1.498246 0.213756
v 0.864467 1.421148 0.095742
v 0.728598 1.622276 0.060417
vn 0.3815 0.5773 -0.7219
vn 0.0355 0.9413 0.3358
vn 0.6558 0.5067 0.5596
vn 0.7617 -0.0153 -0.6478
vn -0.3788 -0.6511 -0.6577
vn 0.3308 -0.9251 -0.1866
vn -0.9748 0.0250 0.2217
vn -0.4773 -0.2247 -0.8495
vn -0.7145 -0.1949 0.6720
vn 0.2083 -0.6583 0.7233
vn -0.5877 0.7032 -0.4002
vt 0.136719 0.343750
vt 0.179688 0.332031
vt 0.214844 0.402344
vt 0.132812 0.402344
vt 0.042969 0.367188
vt 0.003906 0.367188
vt 0.042969 0.308594
vt 0.089844 0.429688
vt 0.046875 0.425781
vt 0.113281 0.367188
vt 0.269531 0.308594
vt 0.207031 0.359375
vt 0.210938 0.308594
vt 0.214844 0.460938
vt 0.132812 0.460938
vt 0.105469 0.308594
vt 0.269531 0.410156
vt 0.238281 0.425781
vt 0.019531 0.429688
vt 0.148438 0.304688
vt 0.070312 0.457031
vt 0.042969 0.464844
vt 0.265625 0.445312
s 1
usemtl 
f 163/237/163 165/238/164 166/239/165 164/240/166
f 168/241/167 164/242/166 172/243/168
f 169/244/169 167/245/170 168/241/167 171/246/171
f 166/247/165 171/248/171 170/249/172
f 170/250/172 172/251/168 164/240/166 166/239/165
f 171/246/171 168/241/167 172/243/168 170/252/172
f 165/253/164 169/254/169 171/248/171 166/247/165
f 167/245/170 163/255/163 164/242/166 168/241/167
f 163/237/163 173/256/173 165/238/164
f 169/244/169 173/257/173 167/245/170
f 167/245/170 173/258/173 163/255/163
f 165/253/164 173/259/173 169/254/169
o hand_right
v -0.798524 1.603568 0.048402
v -0.886736 1.499125 0.055716
v -0.776328 1.624400 0.121481
v -0.889564 1.565400 0.200840
v -0.758615 1.572140 0.037417
v -0.819979 1.468455 0.063906
v -0.719528 1.579670 0.105847
v -0.849693 1.455128 0.224706
v -0.770984 1.503337 0.213756
v -0.867861 1.426239 0.095742
v -0.731992 1.627367 0.060417
vn -0.3815 0.5773 -0.7219
vn -0.7617 -0.0153 -0.6478
vn -0.6558 0.5067 0.5596
vn -0.0355 0.9413 0.3358
vn 0.3788 -0.6511 -0.6577
vn -0.3308 -0.9251 -0.1866
vn 0.9748 0.0250 0.2217
vn 0.7145 -0.1949 0.6720
vn 0.4773 -0.2247 -0.8495
vn -0.2083 -0.6583 0.7233
vn 0.5877 0.7032 -0.4002
vt 0.136719 0.343750
vt 0.132812 0.402344
vt 0.214844 0.402344
vt 0.179688 0.332031
vt 0.042969 0.367188
vt 0.042969 0.308594
vt 0.003906 0.367188
vt 0.089844 0.429688
vt 0.113281 0.367188
vt 0.046875 0.425781
vt 0.269531 0.308594
vt 0.210938 0.308594
vt 0.207031 0.359375
vt 0.214844 0.460938
vt 0.132812 0.460938
vt 0.105469 0.308594
vt 0.269531 0.410156
vt 0.238281 0.425781
vt 0.019531 0.429688
vt 0.148438 0.304688
vt 0.070312 0.457031
vt 0.042969 0.464844
vt 0.265625 0.445312
s 1
usemtl 
f 174/260/174 175/261/175 177/262/176 176/263/177
f 179/264/178 183/265/179 175/266/175
f 180/267/180 182/268/181 179/264/178 178/269/182
f 177/270/176 181/271/183 182/272/181
f 181/273/183 177/262/176 175/261/175 183/274/179
f 182/268/181 181/275/183 183/265/179 179/264/178
f 176/276/177 177/270/176 182/272/181 180/277/180
f 178/269/182 179/264/178 175/266/175 174/278/174
f 174/260/174 176/263/177 184/279/184
f 180/267/180 178/269/182 184/280/184
f 178/269/182 174/278/174 184/281/184
f 176/276/177 180/277/180 184/282/184
o head
v 0.084001 2.469911 -0.057032
v 0.128440 2.704608 -0.055568
v 0.112695 2.571537 -0.061285
v 0.097680 2.758365 -0.052156
v 0.070090 2.446853 0.035010
v 0.088587 2.705081 0.031053
v 0.092054 2.565121 0.056169
v 0.092951 2.758125 0.016841
v 0.078278 2.493127 -0.102107
v 0.118650 2.704810 -0.118019
v 0.104860 2.575718 -0.123561
v 0.097621 2.755275 -0.119828
v 0.072683 2.515287 0.060611
v 0.094694 2.531913 -0.120610
v 0.116279 2.614858 -0.058749
v 0.085592 2.607234 0.044647
v 0.108868 2.618634 -0.118685
v 0.049744 2.502217 -0.152194
v 0.069646 2.699777 -0.179897
v 0.073236 2.581903 -0.175015
v 0.064903 2.539155 -0.164668
v 0.074406 2.629385 -0.183642
v 0.026645 2.560528 0.087471
v 0.041979 2.440714 0.073213
v 0.091404 2.625048 0.045656
v 0.107491 2.524386 -0.062339
v 0.125876 2.541645 -0.105133
v 0.134502 2.578210 -0.107802
v 0.126294 2.617534 -0.104085
v 0.000000 2.441085 0.092631
v 0.000000 2.702016 0.065127
v 0.000000 2.773094 -0.050903
v -0.084001 2.469911 -0.057032
v -0.128440 2.704608 -0.055568
v 0.000000 2.508938 -0.174433
v 0.000000 2.691494 -0.218896
v 0.000000 2.558656 0.094921
v 0.000000 2.583731 -0.216063
v -0.112695 2.571537 -0.061285
v 0.000000 2.761656 0.033755
v 0.000000 2.747074 -0.184966
v -0.097680 2.758365 -0.052156
v -0.070090 2.446853 0.035010
v -0.088587 2.705081 0.031053
v -0.092054 2.565121 0.056169
v -0.087854 2.753228 0.004411
v 0.000000 2.436491 0.036118
v 0.000000 2.761871 0.023703
v -0.078278 2.493127 -0.102107
v -0.118650 2.704810 -0.118019
v -0.104860 2.575718 -0.123561
v 0.000000 2.768370 -0.125735
v -0.097621 2.755275 -0.119828
v 0.000000 2.434700 0.074402
v 0.000000 2.542915 -0.196598
v -0.072683 2.515287 0.060611
v -0.094694 2.531913 -0.120610
v 0.000000 2.610311 0.088843
v 0.000000 2.638133 -0.223453
v -0.116279 2.614858 -0.058749
v -0.085592 2.607234 0.044647
v -0.108868 2.618634 -0.118685
v -0.049744 2.502217 -0.152194
v -0.069646 2.699777 -0.179897
v -0.073236 2.581903 -0.175015
v -0.064903 2.539155 -0.164668
v -0.074406 2.629385 -0.183642
v 0.000000 2.462459 -0.058794
v 0.000000 2.483496 -0.101530
v 0.000000 2.491879 -0.150574
v -0.026645 2.560528 0.087471
v 0.000000 2.541309 0.094357
v -0.041979 2.440714 0.073213
v -0.091404 2.625048 0.045656
v -0.107491 2.524386 -0.062339
v -0.125876 2.541645 -0.105133
v -0.134502 2.578210 -0.107802
v -0.126821 2.616098 -0.107150
vn -0.0000 0.9795 -0.2015
vn -0.0098 0.9996 0.0273
vn 0.5691 0.8223 0.0043
vn 0.5896 0.7346 -0.3359
vn -0.0000 -0.0571 0.9984
vn 0.3817 0.0474 0.9231
vn -0.0000 0.0386 0.9993
vn 0.8433 0.1028 -0.5275
vn 0.9237 0.1626 -0.3468
vn 0.9847 0.1543 0.0808
vn 0.9808 0.0298 0.1925
vn 0.7500 -0.0713 0.6576
vn 0.6753 0.1660 0.7186
vn -0.0144 0.3154 0.9488
vn -0.0000 0.2008 0.9796
vn 0.5589 0.6627 0.4985
vn -0.0000 -0.9896 0.1437
vn -0.0000 -0.9895 -0.1447
vn 0.6768 -0.7222 0.1426
vn 0.4816 -0.6726 0.5618
vn 0.7078 -0.4664 -0.5305
vn 0.6929 -0.1100 -0.7126
vn 0.9427 -0.0459 -0.3304
vn 0.8219 -0.4829 -0.3021
vn -0.0246 0.9979 0.0605
vn -0.0353 0.8072 0.5892
vn 0.9295 -0.3622 0.0688
vn 0.9543 -0.0761 0.2891
vn 0.7981 -0.0147 0.6023
vn 0.7490 -0.1724 0.6397
vn 0.6099 0.2623 -0.7478
vn 0.5951 -0.3956 -0.6996
vn 0.6726 -0.2036 -0.7114
vn 0.5597 -0.7253 -0.4008
vn -0.0000 -0.9476 -0.3196
vn -0.0000 -0.9201 -0.3916
vn 0.6789 -0.0415 -0.7331
vn -0.0000 0.7303 -0.6831
vn 0.4057 -0.7184 -0.5650
vn 0.6368 -0.7442 -0.2017
vn 0.7760 -0.0500 0.6287
vn 0.7190 0.6593 -0.2200
vn -0.0000 -0.2607 -0.9654
vn -0.0000 -0.0280 -0.9996
vn -0.0000 -0.6365 -0.7713
vn -0.0000 -0.4307 -0.9025
vn -0.0000 0.2806 -0.9598
vn -0.0000 -0.9327 -0.3606
vn -0.0000 -0.5208 0.8537
vn -0.5896 0.7346 -0.3359
vn -0.5809 0.8121 0.0555
vn -0.3817 0.0474 0.9231
vn -0.8426 0.1129 -0.5266
vn -0.9815 0.0311 0.1889
vn -0.9807 0.1691 0.0980
vn -0.9237 0.1626 -0.3468
vn -0.7500 -0.0713 0.6576
vn -0.6754 0.2402 0.6972
vn -0.5481 0.6987 0.4599
vn -0.4816 -0.6726 0.5618
vn -0.6768 -0.7222 0.1426
vn -0.7078 -0.4664 -0.5305
vn -0.8219 -0.4829 -0.3021
vn -0.9421 -0.0550 -0.3308
vn -0.6846 -0.1174 -0.7194
vn -0.9295 -0.3622 0.0688
vn -0.7490 -0.1724 0.6397
vn -0.7981 -0.0147 0.6023
vn -0.9547 -0.0744 0.2880
vn -0.6099 0.2623 -0.7478
vn -0.5951 -0.3956 -0.6996
vn -0.6726 -0.2036 -0.7114
vn -0.5597 -0.7253 -0.4008
vn -0.6789 -0.0415 -0.7331
vn -0.4057 -0.7184 -0.5650
vn -0.6368 -0.7442 -0.2017
vn -0.7760 -0.0500 0.6287
vn -0.7491 0.6013 -0.2780
vt 0.335938 0.855469
vt 0.257812 0.855469
vt 0.257812 0.957031
vt 0.328125 0.957031
vt 0.003906 0.667969
vt 0.039062 0.691406
vt 0.003906 0.691406
vt 0.335938 0.769531
vt 0.261719 0.855469
vt 0.261719 0.769531
vt 0.113281 0.769531
vt 0.132812 0.855469
vt 0.003906 0.855469
vt 0.003906 0.750000
vt 0.156250 0.949219
vt 0.140625 0.964844
vt 0.250000 0.992188
vt 0.246094 0.535156
vt 0.214844 0.535156
vt 0.214844 0.480469
vt 0.246094 0.500000
vt 0.335938 0.644531
vt 0.339844 0.699219
vt 0.312500 0.699219
vt 0.308594 0.656250
vt 0.167969 0.855469
vt 0.328125 0.984375
vt 0.003906 0.902344
vt 0.132812 0.902344
vt 0.265625 0.632812
vt 0.253906 0.691406
vt 0.113281 0.691406
vt 0.089844 0.636719
vt 0.363281 0.832031
vt 0.343750 0.769531
vt 0.394531 0.765625
vt 0.398438 0.589844
vt 0.390625 0.636719
vt 0.355469 0.625000
vt 0.363281 0.578125
vt 0.101562 0.472656
vt 0.101562 0.535156
vt 0.066406 0.535156
vt 0.390625 0.691406
vt 0.351562 0.675781
vt 0.468750 0.824219
vt 0.468750 0.871094
vt 0.414062 0.546875
vt 0.386719 0.535156
vt 0.261719 0.570312
vt 0.082031 0.554688
vt 0.312500 0.597656
vt 0.109375 0.746094
vt 0.312500 0.757812
vt 0.468750 0.640625
vt 0.468750 0.699219
vt 0.468750 0.554688
vt 0.468750 0.593750
vt 0.468750 0.757812
vt 0.144531 0.464844
vt 0.046875 0.535156
vt 0.066406 0.496094
vt 0.140625 0.535156
vt 0.003906 0.542969
vt 0.003906 0.531250
vt 0.050781 0.542969
s 1
usemtl 
f 236/283/185 216/284/186 188/285/187 196/286/188
f 256/287/189 207/288/190 221/289/191
f 201/290/192 194/283/193 186/291/194 199/292/195
f 209/293/196 190/294/197 215/295/198 242/296/199
f 192/297/200 190/298/197 186/299/194
f 238/300/201 231/301/202 189/302/203 208/303/204
f 198/304/205 195/305/206 212/306/207 211/307/208
f 188/285/187 216/284/186 232/308/209 192/297/200
f 194/309/193 196/286/188 188/285/187 186/299/194
f 224/310/210 215/295/198 190/294/197 192/311/200
f 199/292/195 186/291/194 190/294/197 209/293/196
f 210/312/211 187/313/212 191/314/213 197/315/214
f 192/297/200 232/308/209 224/294/210
f 196/316/188 194/317/193 203/318/215
f 205/319/216 204/320/217 195/321/206 198/322/205
f 193/323/218 253/324/219 254/325/220
f 206/326/221 203/318/215 194/317/193 201/327/192
f 225/328/222 236/329/185 196/316/188
f 202/330/223 205/319/216 198/322/205 193/331/218
f 185/332/224 210/312/211 197/315/214 189/333/203
f 193/334/218 198/304/205 210/312/211 185/332/224
f 204/320/217 206/326/221 201/327/192 195/321/206
f 187/313/212 199/292/195 200/335/225 191/314/213
f 207/288/190 242/296/199 221/289/191
f 201/290/192 199/292/195 213/336/226
f 222/337/227 243/338/228 206/326/221 204/320/217
f 219/339/229 239/340/230 205/319/216 202/330/223
f 243/338/228 220/341/231 203/318/215 206/326/221
f 239/340/230 222/337/227 204/320/217 205/319/216
f 220/341/231 225/328/222 203/318/215
f 225/328/222 196/316/188 203/318/215
f 185/342/224 189/302/203 231/301/202
f 219/343/229 202/344/223 254/325/220
f 193/323/218 185/342/224 252/345/232 253/324/219
f 191/314/213 200/335/225 242/296/199 207/288/190
f 197/315/214 191/314/213 207/288/190 256/287/189
f 214/346/233 238/347/201 208/348/204
f 189/333/203 197/315/214 208/348/204
f 200/335/225 209/293/196 242/296/199
f 200/335/225 199/292/195 209/293/196
f 211/307/208 212/306/207 187/313/212 210/312/211
f 212/306/207 213/336/226 199/292/195 187/313/212
f 195/305/206 201/290/192 213/336/226 212/306/207
f 210/312/211 198/304/205 211/307/208
f 252/345/232 185/342/224 231/301/202
f 202/344/223 193/323/218 254/325/220
f 188/285/187 192/297/200 186/299/194
f 256/287/189 214/346/233 208/348/204 197/315/214
f 236/283/185 237/286/234 226/285/235 216/284/186
f 256/287/189 221/289/191 255/288/236
f 246/290/237 244/292/238 218/291/239 234/283/240
f 258/293/241 242/296/199 215/295/198 228/294/242
f 230/297/243 218/299/239 228/298/242
f 238/300/201 257/303/244 227/302/245 231/301/202
f 241/304/246 260/307/247 261/306/248 235/305/249
f 226/285/235 230/297/243 232/308/209 216/284/186
f 234/309/240 218/299/239 226/285/235 237/286/234
f 224/310/210 230/311/243 228/294/242 215/295/198
f 244/292/238 258/293/241 228/294/242 218/291/239
f 259/312/250 240/315/251 229/314/252 223/313/253
f 230/297/243 224/294/210 232/308/209
f 237/316/234 248/318/254 234/317/240
f 250/319/255 241/322/246 235/321/249 249/320/256
f 233/323/257 254/325/220 253/324/219
f 251/326/258 246/327/237 234/317/240 248/318/254
f 225/328/222 237/316/234 236/329/185
f 247/330/259 233/331/257 241/322/246 250/319/255
f 217/332/260 227/333/245 240/315/251 259/312/250
f 233/334/257 217/332/260 259/312/250 241/304/246
f 249/320/256 235/321/249 246/327/237 251/326/258
f 223/313/253 229/314/252 245/335/261 244/292/238
f 255/288/236 221/289/191 242/296/199
f 246/290/237 262/336/262 244/292/238
f 222/337/227 249/320/256 251/326/258 243/338/228
f 219/339/229 247/330/259 250/319/255 239/340/230
f 243/338/228 251/326/258 248/318/254 220/341/231
f 239/340/230 250/319/255 249/320/256 222/337/227
f 220/341/231 248/318/254 225/328/222
f 225/328/222 248/318/254 237/316/234
f 217/342/260 231/301/202 227/302/245
f 219/343/229 254/325/220 247/344/259
f 233/323/257 253/324/219 252/345/232 217/342/260
f 229/314/252 255/288/236 242/296/199 245/335/261
f 240/315/251 256/287/189 255/288/236 229/314/252
f 214/346/233 257/348/244 238/347/201
f 227/333/245 257/348/244 240/315/251
f 245/335/261 242/296/199 258/293/241
f 245/335/261 258/293/241 244/292/238
f 260/307/247 259/312/250 223/313/253 261/306/248
f 261/306/248 223/313/253 244/292/238 262/336/262
f 235/305/249 261/306/248 262/336/262 246/290/237
f 259/312/250 260/307/247 241/304/246
f 252/345/232 231/301/202 217/342/260
f 247/344/259 254/325/220 233/323/257
f 226/285/235 218/299/239 230/297/243
f 256/287/189 240/315/251 257/348/244 214/346/233
o pelvis
v 0.123026 1.303562 0.092206
v 0.112926 1.598956 0.125882
v 0.135937 1.416530 -0.206345
v 0.147937 1.662582 -0.104719
v 0.183910 1.473439 -0.225632
v 0.133344 1.424720 0.124894
v 0.227792 1.345426 -0.030511
v 0.214714 1.659756 0.000652
v 0.277780 1.432789 -0.049927
v 0.176631 1.591330 -0.140611
v 0.123135 1.537277 0.136791
v 0.223393 1.593827 -0.016158
v -0.001443 1.357542 0.132755
v 0.000000 1.602774 0.147760
v 0.000000 1.351506 -0.236887
v 0.000000 1.664567 -0.161842
v -0.140094 1.302698 0.098214
v -0.112926 1.598956 0.125882
v -0.130037 1.408545 -0.196786
v -0.147937 1.662582 -0.104719
v 0.000000 1.408994 0.149578
v 0.000000 1.481071 -0.253470
v -0.183910 1.473439 -0.225632
v -0.133344 1.424720 0.124894
v 0.000000 1.292487 -0.031783
v 0.000000 1.664567 0.000652
v -0.227792 1.345426 -0.030511
v -0.214714 1.659756 0.000652
v -0.277780 1.432789 -0.049927
v 0.000000 1.718788 0.005895
v 0.000000 1.531323 0.148669
v 0.000000 1.591899 -0.183277
v -0.176631 1.591330 -0.140611
v -0.123135 1.537277 0.136791
v -0.223393 1.593827 -0.016158
vn -0.0000 0.4987 -0.8668
vn 0.0617 0.7263 -0.6846
vn 0.3967 0.8004 -0.4494
vn 0.6178 0.4537 -0.6423
vn 0.9559 0.2658 0.1248
vn 0.7234 0.6633 0.1917
vn 0.4033 0.4524 0.7954
vn 0.4953 0.0600 0.8666
vn 0.0533 0.4781 0.8767
vn -0.0000 0.0273 0.9996
vn 0.3988 0.9024 0.1635
vn 0.3464 -0.8034 0.4844
vn 0.5196 -0.1237 0.8454
vn 0.0072 -0.1580 0.9874
vn 0.0095 -0.5613 0.8276
vn 0.6876 -0.7260 -0.0018
vn 0.9879 -0.1550 0.0024
vn 0.0013 -0.7262 -0.6875
vn -0.0084 0.1689 -0.9856
vn 0.5889 0.0513 -0.8066
vn 0.4131 -0.5994 -0.6856
vn 0.0022 -0.9894 -0.1454
vn -0.6178 0.4537 -0.6423
vn -0.3967 0.8004 -0.4494
vn -0.9559 0.2658 0.1248
vn -0.4953 0.0600 0.8666
vn -0.4033 0.4524 0.7954
vn -0.7234 0.6633 0.1917
vn 0.3989 0.9023 0.1635
vn -0.3919 -0.7710 0.5020
vn -0.5145 -0.0942 0.8523
vn -0.7044 -0.7094 -0.0251
vn -0.9898 -0.1427 -0.0045
vn -0.4160 -0.6321 -0.6537
vn -0.5855 0.0425 -0.8095
vn 1.0000 -0.0000 -0.0000
vn 0.3988 0.9023 0.1635
vt 0.949219 0.265625
vt 0.996094 0.265625
vt 0.996094 0.347656
vt 0.949219 0.347656
vt 0.746094 0.253906
vt 0.785156 0.253906
vt 0.785156 0.347656
vt 0.746094 0.347656
vt 0.785156 0.414062
vt 0.746094 0.414062
vt 0.496094 0.972656
vt 0.496094 0.871094
vt 0.578125 0.988281
vt 0.632812 0.347656
vt 0.687500 0.347656
vt 0.687500 0.414062
vt 0.632812 0.414062
vt 0.632812 0.253906
vt 0.687500 0.253906
vt 0.792969 0.265625
vt 0.871094 0.265625
vt 0.871094 0.347656
vt 0.792969 0.347656
vt 0.871094 0.441406
vt 0.792969 0.441406
vt 0.414062 0.980469
vt 0.996094 0.441406
vt 0.949219 0.441406
vt 0.003906 0.996094
vt 0.031250 0.945312
vt 0.082031 0.988281
vt 0.550781 0.906250
vt 0.421875 0.925781
vt 0.144531 0.996094
vt 0.125000 0.960938
vt 0.082031 0.910156
vt 0.496094 0.996094
s 1
usemtl 
f 294/349/263 278/350/264 266/351/265 272/352/266
f 274/353/267 270/354/268 264/355/269 273/356/270
f 273/356/270 264/355/269 276/357/271 293/358/272
f 292/359/273 270/360/268 278/361/264
f 263/362/274 268/363/275 283/364/276 275/365/277
f 269/366/278 271/367/279 268/363/275 263/362/274
f 277/368/280 284/369/281 267/370/282 265/371/283
f 265/371/283 267/370/282 271/372/279 269/373/278
f 292/359/273 276/374/271 270/360/268
f 272/352/266 266/351/265 270/375/268 274/376/267
f 277/377/280 265/378/283 287/379/284
f 270/360/268 266/380/265 278/361/264
f 276/374/271 264/381/269 270/360/268
f 275/382/277 287/379/284 263/383/274
f 265/378/283 269/384/278 263/383/274 287/379/284
f 267/370/282 272/352/266 274/376/267 271/372/279
f 268/363/275 273/356/270 293/358/272 283/364/276
f 271/367/279 274/353/267 273/356/270 268/363/275
f 284/369/281 294/349/263 272/352/266 267/370/282
f 294/349/263 295/352/285 282/351/286 278/350/264
f 297/353/287 296/356/288 280/355/289 290/354/290
f 296/356/288 293/358/272 276/357/271 280/355/289
f 292/359/291 278/361/264 290/360/290
f 279/362/292 275/365/277 283/364/276 286/363/293
f 289/366/294 279/362/292 286/363/293 291/367/295
f 277/368/280 281/371/296 285/370/297 284/369/281
f 281/371/296 289/373/294 291/372/295 285/370/297
f 292/359/291 290/360/290 276/374/271
f 295/352/285 297/376/287 290/375/290 282/351/286
f 277/377/280 287/379/284 281/378/296
f 288/385/298 292/359/299 276/374/271
f 290/360/290 278/361/264 282/380/286
f 278/361/264 292/359/299 288/385/298
f 276/374/271 290/360/290 280/381/289
f 275/382/277 279/383/292 287/379/284
f 281/378/296 287/379/284 279/383/292 289/384/294
f 285/370/297 291/372/295 297/376/287 295/352/285
f 286/363/293 283/364/276 293/358/272 296/356/288
f 291/367/295 286/363/293 296/356/288 297/353/287
f 284/369/281 285/370/297 295/352/285 294/349/263
o thigh_left
v 0.182173 0.747270 0.046530
v 0.126388 1.413498 0.133145
v 0.054919 0.740490 -0.083208
v -0.025348 1.402450 -0.031650
v 0.309428 0.756594 -0.083208
v 0.266862 1.423095 -0.033599
v 0.182173 0.748542 -0.211675
v 0.129291 1.413014 -0.215208
v 0.152369 1.119870 0.108721
v 0.002497 1.112062 -0.040962
v 0.152369 1.128662 -0.212624
v 0.302240 1.132074 -0.040962
v 0.124792 1.473546 -0.031650
v 0.188306 0.651622 -0.083208
vn 0.0155 -0.1055 0.9943
vn -0.0278 0.4459 0.8946
vn -0.9179 0.3956 0.0309
vn -0.9905 -0.1322 0.0372
vn -0.0248 0.4802 -0.8768
vn 0.0065 0.0207 -0.9998
vn 0.8436 0.5360 0.0311
vn 0.9982 0.0434 0.0416
vn -0.8818 -0.4711 -0.0230
vn 0.0288 -0.3754 -0.9264
vn 0.0632 -0.9980 -0.0046
vn -0.0503 0.9986 0.0152
vn 0.9397 -0.3412 -0.0216
vn 0.0339 -0.4585 0.8880
vt 0.226562 0.136719
vt 0.226562 0.035156
vt 0.300781 0.035156
vt 0.300781 0.136719
vt 0.003906 0.136719
vt 0.003906 0.035156
vt 0.082031 0.035156
vt 0.082031 0.136719
vt 0.156250 0.035156
vt 0.156250 0.136719
vt 0.003906 0.269531
vt 0.082031 0.269531
vt 0.042969 0.300781
vt 0.265625 0.003906
vt 0.156250 0.269531
vt 0.226562 0.269531
vt 0.300781 0.269531
vt 0.191406 0.003906
vt 0.039062 0.003906
vt 0.117188 0.003906
vt 0.261719 0.300781
vt 0.121094 0.300781
vt 0.191406 0.300781
s 1
usemtl 
f 306/386/300 299/387/301 301/388/302 307/389/303
f 307/390/303 301/391/302 305/392/304 308/393/305
f 308/393/305 305/392/304 303/394/306 309/395/307
f 309/395/307 303/394/306 299/387/301 306/386/300
f 300/396/308 304/397/309 311/398/310
f 301/388/302 299/387/301 310/399/311
f 302/400/312 309/395/307 306/386/300 298/401/313
f 304/397/309 308/393/305 309/395/307 302/400/312
f 300/396/308 307/390/303 308/393/305 304/397/309
f 298/401/313 306/386/300 307/389/303 300/402/308
f 299/387/301 303/394/306 310/403/311
f 305/392/304 301/391/302 310/404/311
f 303/394/306 305/392/304 310/405/311
f 298/401/313 300/402/308 311/406/310
f 304/397/309 302/400/312 311/407/310
f 302/400/312 298/401/313 311/408/310
o thigh_right
v -0.182173 0.747270 0.046530
v -0.126388 1.413498 0.133145
v -0.054919 0.740490 -0.083208
v 0.025348 1.402450 -0.031650
v -0.309428 0.756594 -0.083208
v -0.266862 1.423095 -0.033599
v -0.182173 0.748542 -0.211675
v -0.129291 1.413014 -0.215208
v -0.152369 1.119870 0.108721
v -0.002497 1.112062 -0.040962
v -0.152369 1.128662 -0.212624
v -0.302240 1.132074 -0.040962
v -0.124792 1.473546 -0.031650
v -0.188306 0.651622 -0.083208
vn -0.0155 -0.1055 0.9943
vn 0.9905 -0.1322 0.0372
vn 0.9179 0.3956 0.0309
vn 0.0278 0.4459 0.8946
vn -0.0065 0.0207 -0.9998
vn 0.0248 0.4802 -0.8768
vn -0.9982 0.0434 0.0416
vn -0.8436 0.5360 0.0311
vn 0.8818 -0.4711 -0.0230
vn -0.0632 -0.9980 -0.0046
vn -0.0288 -0.3754 -0.9264
vn 0.0503 0.9986 0.0152
vn -0.9397 -0.3412 -0.0216
vn -0.0339 -0.4585 0.8880
vt 0.226562 0.136719
vt 0.300781 0.136719
vt 0.300781 0.035156
vt 0.226562 0.035156
vt 0.003906 0.136719
vt 0.082031 0.136719
vt 0.082031 0.035156
vt 0.003906 0.035156
vt 0.156250 0.136719
vt 0.156250 0.035156
vt 0.003906 0.269531
vt 0.042969 0.300781
vt 0.082031 0.269531
vt 0.265625 0.003906
vt 0.156250 0.269531
vt 0.226562 0.269531
vt 0.300781 0.269531
vt 0.191406 0.003906
vt 0.039062 0.003906
vt 0.117188 0.003906
vt 0.261719 0.300781
vt 0.121094 0.300781
vt 0.191406 0.300781
s 1
usemtl 
f 320/409/314 321/410/315 315/411/316 313/412/317
f 321/413/315 322/414/318 319/415/319 315/416/316
f 322/414/318 323/417/320 317/418/321 319/415/319
f 323/417/320 320/409/314 313/412/317 317/418/321
f 314/419/322 325/420/323 318/421/324
f 315/411/316 324/422/325 313/412/317
f 316/423/326 312/424/327 320/409/314 323/417/320
f 318/421/324 316/423/326 323/417/320 322/414/318
f 314/419/322 318/421/324 322/414/318 321/413/315
f 312/424/327 314/425/322 321/410/315 320/409/314
f 313/412/317 324/426/325 317/418/321
f 319/415/319 324/427/325 315/416/316
f 317/418/321 324/428/325 319/415/319
f 312/424/327 325/429/323 314/425/322
f 318/421/324 325/430/323 316/423/326
f 316/423/326 325/431/323 312/424/327
o leg_left
v 0.221382 0.178997 -0.010518
v 0.179991 0.780021 0.048007
v 0.093654 0.184697 -0.097588
v 0.050270 0.788855 -0.079564
v 0.335923 0.186485 -0.097588
v 0.307086 0.809003 -0.079221
v 0.221382 0.178997 -0.232281
v 0.177365 0.817838 -0.201705
v 0.206371 0.477231 0.018886
v 0.075857 0.482440 -0.108570
v 0.206371 0.503547 -0.240758
v 0.330292 0.496616 -0.108570
v 0.170315 0.881715 -0.076347
vn 0.0231 -0.0660 0.9976
vn -0.0235 0.3008 0.9534
vn -0.9442 0.3263 0.0440
vn -0.9965 -0.0829 -0.0073
vn -0.0361 0.5074 -0.8609
vn 0.0215 0.0370 -0.9991
vn 0.8780 0.4761 0.0497
vn 0.9990 0.0456 -0.0007
vn 0.0361 -0.5901 -0.8065
vn 0.8321 -0.5514 0.0595
vn 0.0343 -0.6379 0.7694
vn -0.8089 -0.5849 0.0590
vn -0.0869 0.9915 0.0964
vt 0.941406 0.132812
vt 0.941406 0.031250
vt 0.996094 0.031250
vt 0.996094 0.132812
vt 0.773438 0.132812
vt 0.773438 0.031250
vt 0.832031 0.031250
vt 0.832031 0.132812
vt 0.886719 0.031250
vt 0.886719 0.132812
vt 0.832031 0.230469
vt 0.886719 0.230469
vt 0.886719 0.257812
vt 0.832031 0.257812
vt 0.968750 0.003906
vt 0.941406 0.230469
vt 0.773438 0.230469
vt 0.996094 0.230469
vt 0.914062 0.003906
vt 0.800781 0.003906
vt 0.855469 0.003906
s 1
usemtl 
f 334/432/328 327/433/329 329/434/330 335/435/331
f 335/436/331 329/437/330 333/438/332 336/439/333
f 336/439/333 333/438/332 331/440/334 337/441/335
f 337/441/335 331/440/334 327/433/329 334/432/328
f 332/442/336 330/443/337 326/444/338 328/445/339
f 329/434/330 327/433/329 338/446/340
f 330/443/337 337/441/335 334/432/328 326/447/338
f 332/442/336 336/439/333 337/441/335 330/443/337
f 328/448/339 335/436/331 336/439/333 332/442/336
f 326/447/338 334/432/328 335/435/331 328/449/339
f 327/433/329 331/440/334 338/450/340
f 333/438/332 329/437/330 338/451/340
f 331/440/334 333/438/332 338/452/340
o leg_right
v -0.221382 0.178997 -0.010518
v -0.179991 0.780021 0.048007
v -0.093654 0.184697 -0.097588
v -0.050270 0.788855 -0.079564
v -0.335923 0.186485 -0.097588
v -0.307086 0.809003 -0.079221
v -0.221382 0.178997 -0.232281
v -0.177365 0.817838 -0.201705
v -0.206371 0.477231 0.018886
v -0.075857 0.482440 -0.108570
v -0.206371 0.503547 -0.240758
v -0.330292 0.496616 -0.108570
v -0.170315 0.881715 -0.076347
vn -0.0231 -0.0660 0.9976
vn 0.9965 -0.0829 -0.0073
vn 0.9442 0.3263 0.0440
vn 0.0235 0.3008 0.9534
vn -0.0215 0.0370 -0.9991
vn 0.0361 0.5074 -0.8609
vn -0.9990 0.0456 -0.0007
vn -0.8780 0.4761 0.0497
vn -0.0361 -0.5901 -0.8065
vn 0.8089 -0.5849 0.0590
vn -0.0343 -0.6379 0.7694
vn -0.8321 -0.5514 0.0595
vn 0.0869 0.9915 0.0964
vt 0.941406 0.132812
vt 0.996094 0.132812
vt 0.996094 0.031250
vt 0.941406 0.031250
vt 0.773438 0.132812
vt 0.832031 0.132812
vt 0.832031 0.031250
vt 0.773438 0.031250
vt 0.886719 0.132812
vt 0.886719 0.031250
vt 0.832031 0.230469
vt 0.832031 0.257812
vt 0.886719 0.257812
vt 0.886719 0.230469
vt 0.968750 0.003906
vt 0.941406 0.230469
vt 0.773438 0.230469
vt 0.996094 0.230469
vt 0.914062 0.003906
vt 0.800781 0.003906
vt 0.855469 0.003906
s 1
usemtl 
f 347/453/341 348/454/342 342/455/343 340/456/344
f 348/457/342 349/458/345 346/459/346 342/460/343
f 349/458/345 350/461/347 344/462/348 346/459/346
f 350/461/347 347/453/341 340/456/344 344/462/348
f 345/463/349 341/464/350 339/465/351 343/466/352
f 342/455/343 351/467/353 340/456/344
f 343/466/352 339/468/351 347/453/341 350/461/347
f 345/463/349 343/466/352 350/461/347 349/458/345
f 341/469/350 345/463/349 349/458/345 348/457/342
f 339/468/351 341/470/350 348/454/342 347/453/341
f 340/456/344 351/471/353 344/462/348
f 346/459/346 351/472/353 342/460/343
f 344/462/348 351/473/353 346/459/346
