{
	"asset":{
		"generator":"Khronos glTF Blender I/O v5.0.21",
		"version":"2.0"
	},
	"extensionsUsed":[
		"KHR_materials_unlit",
		"KHR_lights_punctual"
	],
	"extensionsRequired":[
		"KHR_lights_punctual"
	],
	"extensions":{
		"KHR_lights_punctual":{
			"lights":[
				{
					"color":[
						1,
						1,
						1
					],
					"intensity":182.07325489712827,
					"type":"point",
					"name":"Point"
				}
			]
		}
	},
	"scene":0,
	"scenes":[
		{
			"name":"Scene",
			"nodes":[
				0,
				1,
				6,
				9,
				12,
				13,
				14,
				15,
				16,
				17,
				18,
				19
			]
		}
	],
	"nodes":[
		{
			"mesh":0,
			"name":"sceenOutside",
			"scale":[
				0.37545955181121826,
				1,
				1
			],
			"translation":[
				0.2523650527000427,
				0,
				0
			]
		},
		{
			"mesh":1,
			"name":"screen",
			"translation":[
				-0.10585328936576843,
				0.4999999701976776,
				-0.8499999046325684
			]
		},
		{
			"mesh":2,
			"name":"Gear.001",
			"rotation":[
				0.5,
				0.5,
				-0.5,
				0.5
			],
			"scale":[
				0.5944081544876099,
				0.5944081544876099,
				0.5944081544876099
			]
		},
		{
			"name":"pistonTrackPoint",
			"rotation":[
				-0.2534041404724121,
				-0.2534042000770569,
				0.6601411700248718,
				0.6601412296295166
			],
			"scale":[
				-12.872197151184082,
				-12.872197151184082,
				-12.872197151184082
			],
			"translation":[
				-0.08910153806209564,
				-0.2319238781929016,
				-1.3133907318115234
			]
		},
		{
			"children":[
				3
			],
			"mesh":3,
			"name":"Circle",
			"rotation":[
				0,
				0.7455655932426453,
				0,
				0.6664323210716248
			],
			"scale":[
				-0.2500059902667999,
				-0.2500060498714447,
				-0.2500059902667999
			],
			"translation":[
				0,
				0.21580766141414642,
				0
			]
		},
		{
			"children":[
				4
			],
			"mesh":4,
			"name":"Gear.003",
			"rotation":[
				0.5,
				0.5,
				-0.5,
				0.5
			],
			"scale":[
				0.5944081544876099,
				0.5944081544876099,
				0.5944081544876099
			],
			"translation":[
				0,
				0,
				-0.971000075340271
			]
		},
		{
			"children":[
				2,
				5
			],
			"name":"Gears",
			"rotation":[
				0.541594922542572,
				0,
				0,
				0.840639591217041
			],
			"scale":[
				0.873028576374054,
				0.8730287551879883,
				0.8730287551879883
			],
			"translation":[
				-0.06371691077947617,
				-0.04083985090255737,
				-2.445478677749634
			]
		},
		{
			"mesh":5,
			"name":"Cylinder",
			"scale":[
				2.1143393516540527,
				2.1143393516540527,
				2.1143393516540527
			],
			"translation":[
				0.016414940357208252,
				0.10314908623695374,
				0.005313873291015625
			]
		},
		{
			"mesh":6,
			"name":"Sphere.001",
			"rotation":[
				0,
				0,
				0.7071068286895752,
				0.7071068286895752
			],
			"scale":[
				0.12175576388835907,
				0.12175574153661728,
				0.12175575643777847
			],
			"translation":[
				0.016414493322372437,
				0.8159394264221191,
				0.005313873291015625
			]
		},
		{
			"children":[
				7,
				8
			],
			"mesh":7,
			"name":"Grid",
			"rotation":[
				0,
				0,
				-0.553371012210846,
				0.8329349160194397
			],
			"scale":[
				0.342247873544693,
				0.342247873544693,
				0.342247873544693
			],
			"translation":[
				-0.6056253910064697,
				1.6980020999908447,
				-2.7997398376464844
			]
		},
		{
			"mesh":8,
			"name":"bracket",
			"translation":[
				-0.0005881222896277905,
				0,
				0.03932333365082741
			]
		},
		{
			"children":[
				10
			],
			"mesh":9,
			"name":"Cylinder.002",
			"rotation":[
				-0.0016685131704434752,
				-0.00010691487841540948,
				0.005784159060567617,
				0.9999818801879883
			],
			"translation":[
				0,
				0.0012945535127073526,
				-0.9088490009307861
			]
		},
		{
			"children":[
				11
			],
			"mesh":10,
			"name":"pistonBody",
			"rotation":[
				0.3899841904640198,
				0,
				0,
				0.9208216667175293
			],
			"scale":[
				1.6700000762939453,
				1.6700000762939453,
				1.6700000762939453
			],
			"translation":[
				0.15809836983680725,
				-0.19490009546279907,
				-1.7829864025115967
			]
		},
		{
			"mesh":11,
			"name":"Cylinder.001",
			"translation":[
				-0.5708571076393127,
				1.706505298614502,
				-2.799740791320801
			]
		},
		{
			"camera":0,
			"name":"Camera",
			"rotation":[
				0,
				0.7071067094802856,
				0,
				0.7071068286895752
			],
			"translation":[
				11.286471366882324,
				1.42737877368927,
				-0.8637455701828003
			]
		},
		{
			"extensions":{
				"KHR_lights_punctual":{
					"light":0
				}
			},
			"name":"Point",
			"rotation":[
				-0.7071068286895752,
				0,
				0,
				0.7071068286895752
			],
			"translation":[
				6.088824272155762,
				3.34267520904541,
				-0.8608112335205078
			]
		},
		{
			"mesh":12,
			"name":"Cylinder.004",
			"scale":[
				0.21263250708580017,
				0.21263250708580017,
				0.21263250708580017
			],
			"translation":[
				0.14668041467666626,
				-0.09375810623168945,
				2.6626076698303223
			]
		},
		{
			"mesh":13,
			"name":"pipes",
			"rotation":[
				0.7071068286895752,
				0,
				0,
				0.7071068286895752
			],
			"translation":[
				0.14668041467666626,
				0.768996000289917,
				-0.09939979016780853
			]
		},
		{
			"mesh":14,
			"name":"Cylinder.003",
			"rotation":[
				0,
				0,
				-1,
				2.1855690590655286e-08
			],
			"scale":[
				-0.21263250708580017,
				-0.21263250708580017,
				-0.21263250708580017
			],
			"translation":[
				-0.972762942314148,
				-0.09375810623168945,
				-4.419004440307617
			]
		},
		{
			"mesh":15,
			"name":"pipes.001",
			"rotation":[
				0,
				0.7071068286895752,
				0.7071068286895752,
				2.6692545063156103e-08
			],
			"scale":[
				-1,
				-1,
				-1
			],
			"translation":[
				-0.972762942314148,
				0.768996000289917,
				-1.656996726989746
			]
		}
	],
	"cameras":[
		{
			"name":"Camera",
			"orthographic":{
				"xmag":3,
				"ymag":1.5,
				"zfar":1000,
				"znear":0.10000000149011612
			},
			"type":"orthographic"
		}
	],
	"animations":[
		{
			"channels":[
				{
					"sampler":0,
					"target":{
						"node":2,
						"path":"rotation"
					}
				}
			],
			"name":"Gear.001Action",
			"samplers":[
				{
					"input":70,
					"interpolation":"LINEAR",
					"output":71
				}
			]
		},
		{
			"channels":[
				{
					"sampler":0,
					"target":{
						"node":5,
						"path":"rotation"
					}
				}
			],
			"name":"Gear.003Action",
			"samplers":[
				{
					"input":70,
					"interpolation":"LINEAR",
					"output":72
				}
			]
		},
		{
			"channels":[
				{
					"sampler":0,
					"target":{
						"node":9,
						"path":"rotation"
					}
				}
			],
			"name":"GridAction",
			"samplers":[
				{
					"input":70,
					"interpolation":"LINEAR",
					"output":73
				}
			]
		}
	],
	"materials":[
		{
			"doubleSided":true,
			"name":"rusted metal",
			"normalTexture":{
				"index":0
			},
			"pbrMetallicRoughness":{
				"baseColorTexture":{
					"index":1
				},
				"metallicRoughnessTexture":{
					"index":2
				}
			}
		},
		{
			"doubleSided":true,
			"extensions":{
				"KHR_materials_unlit":{}
			},
			"name":"ScreenMaterial",
			"pbrMetallicRoughness":{
				"metallicFactor":0,
				"roughnessFactor":0.9
			}
		},
		{
			"doubleSided":true,
			"name":"Dark Metal",
			"normalTexture":{
				"index":3
			},
			"pbrMetallicRoughness":{
				"baseColorTexture":{
					"index":4
				},
				"metallicRoughnessTexture":{
					"index":5
				}
			}
		},
		{
			"doubleSided":true,
			"name":"clean Metal",
			"pbrMetallicRoughness":{
				"baseColorFactor":[
					0.39915212988853455,
					0.39915212988853455,
					0.39915212988853455,
					1
				],
				"roughnessFactor":0.3959391117095947
			}
		},
		{
			"doubleSided":true,
			"name":"copper",
			"normalTexture":{
				"index":6
			},
			"pbrMetallicRoughness":{
				"baseColorTexture":{
					"index":7
				},
				"metallicRoughnessTexture":{
					"index":8
				}
			}
		},
		{
			"doubleSided":true,
			"name":"rusted metal.002",
			"normalTexture":{
				"index":9
			},
			"pbrMetallicRoughness":{
				"baseColorTexture":{
					"index":10
				},
				"metallicRoughnessTexture":{
					"index":11
				}
			}
		},
		{
			"doubleSided":true,
			"name":"copper.001",
			"normalTexture":{
				"index":12
			},
			"pbrMetallicRoughness":{
				"baseColorTexture":{
					"index":13
				},
				"metallicRoughnessTexture":{
					"index":14
				}
			}
		}
	],
	"meshes":[
		{
			"name":"Mesh",
			"primitives":[
				{
					"attributes":{
						"POSITION":0,
						"NORMAL":1,
						"TEXCOORD_0":2,
						"TANGENT":3
					},
					"indices":4,
					"material":0
				}
			]
		},
		{
			"name":"Sphere",
			"primitives":[
				{
					"attributes":{
						"POSITION":5,
						"NORMAL":6,
						"TEXCOORD_0":7,
						"TANGENT":8
					},
					"indices":9,
					"material":1
				}
			]
		},
		{
			"extras":{
				"Gear":true,
				"change":false,
				"number_of_teeth":6,
				"radius":1.0,
				"addendum":0.07999999821186066,
				"dedendum":0.2200000137090683,
				"base":0.3399999737739563,
				"angle":0.0,
				"width":0.20000000298023224,
				"skew":0.0,
				"conangle":0.0,
				"crown":0.0
			},
			"name":"Gear.001",
			"primitives":[
				{
					"attributes":{
						"POSITION":10,
						"NORMAL":11,
						"TEXCOORD_0":12,
						"TANGENT":13
					},
					"indices":14,
					"material":2
				}
			]
		},
		{
			"name":"Circle.002",
			"primitives":[
				{
					"attributes":{
						"POSITION":15,
						"NORMAL":16,
						"TEXCOORD_0":17
					},
					"indices":18,
					"material":0
				}
			]
		},
		{
			"extras":{
				"Gear":true,
				"change":false,
				"number_of_teeth":9,
				"radius":1.0,
				"addendum":0.07999999821186066,
				"dedendum":0.2200000137090683,
				"base":0.3399999737739563,
				"angle":0.0,
				"width":0.20000000298023224,
				"skew":0.0,
				"conangle":0.0,
				"crown":0.0
			},
			"name":"Gear.003",
			"primitives":[
				{
					"attributes":{
						"POSITION":19,
						"NORMAL":20,
						"TEXCOORD_0":21,
						"TANGENT":22
					},
					"indices":23,
					"material":2
				}
			]
		},
		{
			"name":"Cylinder",
			"primitives":[
				{
					"attributes":{
						"POSITION":24,
						"NORMAL":25,
						"TEXCOORD_0":26
					},
					"indices":27,
					"material":3
				}
			]
		},
		{
			"name":"Sphere.001",
			"primitives":[
				{
					"attributes":{
						"POSITION":28,
						"NORMAL":29,
						"TEXCOORD_0":30,
						"TANGENT":31
					},
					"indices":32,
					"material":3
				}
			]
		},
		{
			"name":"Mesh",
			"primitives":[
				{
					"attributes":{
						"POSITION":33,
						"NORMAL":34,
						"TEXCOORD_0":35,
						"TANGENT":36
					},
					"indices":37,
					"material":3
				}
			]
		},
		{
			"name":"Plane",
			"primitives":[
				{
					"attributes":{
						"POSITION":38,
						"NORMAL":39,
						"TEXCOORD_0":40
					},
					"indices":41,
					"material":4
				}
			]
		},
		{
			"name":"Cylinder.003",
			"primitives":[
				{
					"attributes":{
						"POSITION":42,
						"NORMAL":43,
						"TEXCOORD_0":44
					},
					"indices":45,
					"material":3
				}
			]
		},
		{
			"name":"Cylinder.001",
			"primitives":[
				{
					"attributes":{
						"POSITION":46,
						"NORMAL":47,
						"TEXCOORD_0":48
					},
					"indices":49,
					"material":4
				}
			]
		},
		{
			"name":"Cylinder.004",
			"primitives":[
				{
					"attributes":{
						"POSITION":50,
						"NORMAL":51,
						"TEXCOORD_0":52
					},
					"indices":53,
					"material":3
				}
			]
		},
		{
			"name":"Cylinder.006",
			"primitives":[
				{
					"attributes":{
						"POSITION":54,
						"NORMAL":55,
						"TEXCOORD_0":56
					},
					"indices":57,
					"material":5
				}
			]
		},
		{
			"name":"Cylinder.007",
			"primitives":[
				{
					"attributes":{
						"POSITION":58,
						"NORMAL":59,
						"TEXCOORD_0":60
					},
					"indices":61,
					"material":6
				}
			]
		},
		{
			"name":"Cylinder.008",
			"primitives":[
				{
					"attributes":{
						"POSITION":62,
						"NORMAL":63,
						"TEXCOORD_0":64
					},
					"indices":65,
					"material":5
				}
			]
		},
		{
			"name":"Cylinder.009",
			"primitives":[
				{
					"attributes":{
						"POSITION":66,
						"NORMAL":67,
						"TEXCOORD_0":68
					},
					"indices":69,
					"material":6
				}
			]
		}
	],
	"textures":[
		{
			"sampler":0,
			"source":0
		},
		{
			"sampler":0,
			"source":1
		},
		{
			"sampler":0,
			"source":2
		},
		{
			"sampler":0,
			"source":3
		},
		{
			"sampler":0,
			"source":4
		},
		{
			"sampler":0,
			"source":5
		},
		{
			"sampler":0,
			"source":6
		},
		{
			"sampler":0,
			"source":7
		},
		{
			"sampler":0,
			"source":8
		},
		{
			"sampler":0,
			"source":9
		},
		{
			"sampler":0,
			"source":10
		},
		{
			"sampler":0,
			"source":11
		},
		{
			"sampler":0,
			"source":12
		},
		{
			"sampler":0,
			"source":13
		},
		{
			"sampler":0,
			"source":14
		}
	],
	"images":[
		{
			"mimeType":"image/jpeg",
			"name":"Metal053C_1K-JPG_NormalGL.jpg",
			"uri":"../../Blender/Materials/Rusty%20Metal/Metal053C_1K-JPG_NormalGL.jpg"
		},
		{
			"mimeType":"image/jpeg",
			"name":"Metal053C_1K-JPG_Color.jpg",
			"uri":"../../Blender/Materials/Rusty%20Metal/Metal053C_1K-JPG_Color.jpg"
		},
		{
			"mimeType":"image/jpeg",
			"name":"Metal053C_1K-JPG_Roughness.jpg",
			"uri":"../../Blender/Materials/Rusty%20Metal/Metal053C_1K-JPG_Roughness.jpg"
		},
		{
			"mimeType":"image/jpeg",
			"name":"Metal047B_1K-JPG_NormalGL.jpg",
			"uri":"../../Blender/Materials/Metal047B_1K-JPG/Metal047B_1K-JPG_NormalGL.jpg"
		},
		{
			"mimeType":"image/jpeg",
			"name":"Metal047B_1K-JPG_Color.jpg",
			"uri":"../../Blender/Materials/Metal047B_1K-JPG/Metal047B_1K-JPG_Color.jpg"
		},
		{
			"mimeType":"image/jpeg",
			"name":"Metal047B_1K-JPG_Roughness.jpg",
			"uri":"../../Blender/Materials/Metal047B_1K-JPG/Metal047B_1K-JPG_Roughness.jpg"
		},
		{
			"mimeType":"image/jpeg",
			"name":"Metal058B_1K-JPG_NormalGL.jpg",
			"uri":"../../Blender/Materials/oxidized%20copper/Metal058B_1K-JPG_NormalGL.jpg"
		},
		{
			"mimeType":"image/jpeg",
			"name":"Metal058B_1K-JPG_Color.jpg",
			"uri":"../../Blender/Materials/oxidized%20copper/Metal058B_1K-JPG_Color.jpg"
		},
		{
			"mimeType":"image/jpeg",
			"name":"Metal058B_1K-JPG_Roughness.jpg",
			"uri":"../../Blender/Materials/oxidized%20copper/Metal058B_1K-JPG_Roughness.jpg"
		},
		{
			"mimeType":"image/jpeg",
			"name":"Metal053C_1K-JPG_NormalGL.jpg.002",
			"uri":"../../Blender/Materials/Rusty%20Metal/Metal053C_1K-JPG_NormalGL.jpg"
		},
		{
			"mimeType":"image/jpeg",
			"name":"Metal053C_1K-JPG_Color.jpg.002",
			"uri":"../../Blender/Materials/Rusty%20Metal/Metal053C_1K-JPG_Color.jpg"
		},
		{
			"mimeType":"image/jpeg",
			"name":"Metal053C_1K-JPG_Roughness.jpg.002",
			"uri":"../../Blender/Materials/Rusty%20Metal/Metal053C_1K-JPG_Roughness.jpg"
		},
		{
			"mimeType":"image/jpeg",
			"name":"Metal058B_1K-JPG_NormalGL.jpg.001",
			"uri":"../../Blender/Materials/oxidized%20copper/Metal058B_1K-JPG_NormalGL.jpg"
		},
		{
			"mimeType":"image/jpeg",
			"name":"Metal058B_1K-JPG_Color.jpg.001",
			"uri":"../../Blender/Materials/oxidized%20copper/Metal058B_1K-JPG_Color.jpg"
		},
		{
			"mimeType":"image/jpeg",
			"name":"Metal058B_1K-JPG_Roughness.jpg.001",
			"uri":"../../Blender/Materials/oxidized%20copper/Metal058B_1K-JPG_Roughness.jpg"
		}
	],
	"accessors":[
		{
			"bufferView":0,
			"componentType":5126,
			"count":2083,
			"max":[
				0.45372822880744934,
				1.7195775508880615,
				0.7239723801612854
			],
			"min":[
				-0.45372822880744934,
				-0.7195774912834167,
				-2.4239730834960938
			],
			"type":"VEC3"
		},
		{
			"bufferView":1,
			"componentType":5126,
			"count":2083,
			"type":"VEC3"
		},
		{
			"bufferView":2,
			"componentType":5126,
			"count":2083,
			"type":"VEC2"
		},
		{
			"bufferView":3,
			"componentType":5126,
			"count":2083,
			"type":"VEC4"
		},
		{
			"bufferView":4,
			"componentType":5123,
			"count":9216,
			"type":"SCALAR"
		},
		{
			"bufferView":5,
			"componentType":5126,
			"count":257,
			"max":[
				0.8080496788024902,
				1.1622225046157837,
				1.5032790899276733
			],
			"min":[
				-8.774536297551094e-08,
				-1.162223219871521,
				-1.5032800436019897
			],
			"type":"VEC3"
		},
		{
			"bufferView":6,
			"componentType":5126,
			"count":257,
			"type":"VEC3"
		},
		{
			"bufferView":7,
			"componentType":5126,
			"count":257,
			"type":"VEC2"
		},
		{
			"bufferView":8,
			"componentType":5126,
			"count":257,
			"type":"VEC4"
		},
		{
			"bufferView":9,
			"componentType":5123,
			"count":1440,
			"type":"SCALAR"
		},
		{
			"bufferView":10,
			"componentType":5126,
			"count":9764,
			"max":[
				0.651170015335083,
				0.20000001788139343,
				0.7039353847503662
			],
			"min":[
				-0.651170015335083,
				-0.20000001788139343,
				-0.7039352655410767
			],
			"type":"VEC3"
		},
		{
			"bufferView":11,
			"componentType":5126,
			"count":9764,
			"type":"VEC3"
		},
		{
			"bufferView":12,
			"componentType":5126,
			"count":9764,
			"type":"VEC2"
		},
		{
			"bufferView":13,
			"componentType":5126,
			"count":9764,
			"type":"VEC4"
		},
		{
			"bufferView":14,
			"componentType":5123,
			"count":50688,
			"type":"SCALAR"
		},
		{
			"bufferView":15,
			"componentType":5126,
			"count":132,
			"max":[
				2.016772985458374,
				2.2351741790771484e-08,
				1
			],
			"min":[
				-2.016772985458374,
				-0.2319246232509613,
				-2.5018832683563232
			],
			"type":"VEC3"
		},
		{
			"bufferView":16,
			"componentType":5126,
			"count":132,
			"type":"VEC3"
		},
		{
			"bufferView":17,
			"componentType":5126,
			"count":132,
			"type":"VEC2"
		},
		{
			"bufferView":18,
			"componentType":5123,
			"count":390,
			"type":"SCALAR"
		},
		{
			"bufferView":19,
			"componentType":5126,
			"count":5529,
			"max":[
				1.0387588739395142,
				0.20000003278255463,
				1.0658767223358154
			],
			"min":[
				-1.0712144374847412,
				-0.20000003278255463,
				-1.0658767223358154
			],
			"type":"VEC3"
		},
		{
			"bufferView":20,
			"componentType":5126,
			"count":5529,
			"type":"VEC3"
		},
		{
			"bufferView":21,
			"componentType":5126,
			"count":5529,
			"type":"VEC2"
		},
		{
			"bufferView":22,
			"componentType":5126,
			"count":5529,
			"type":"VEC4"
		},
		{
			"bufferView":23,
			"componentType":5123,
			"count":26112,
			"type":"SCALAR"
		},
		{
			"bufferView":24,
			"componentType":5126,
			"count":130,
			"max":[
				0.058280911296606064,
				0.33712199330329895,
				0.058280929923057556
			],
			"min":[
				-0.05828090384602547,
				0.024094820022583008,
				-0.058280929923057556
			],
			"type":"VEC3"
		},
		{
			"bufferView":25,
			"componentType":5126,
			"count":130,
			"type":"VEC3"
		},
		{
			"bufferView":26,
			"componentType":5126,
			"count":130,
			"type":"VEC2"
		},
		{
			"bufferView":27,
			"componentType":5123,
			"count":372,
			"type":"SCALAR"
		},
		{
			"bufferView":28,
			"componentType":5126,
			"count":559,
			"max":[
				0.9999997019767761,
				1,
				0.9999993443489075
			],
			"min":[
				-0.9999990463256836,
				-1,
				-1
			],
			"type":"VEC3"
		},
		{
			"bufferView":29,
			"componentType":5126,
			"count":559,
			"type":"VEC3"
		},
		{
			"bufferView":30,
			"componentType":5126,
			"count":559,
			"type":"VEC2"
		},
		{
			"bufferView":31,
			"componentType":5126,
			"count":559,
			"type":"VEC4"
		},
		{
			"bufferView":32,
			"componentType":5123,
			"count":2880,
			"type":"SCALAR"
		},
		{
			"bufferView":33,
			"componentType":5126,
			"count":9198,
			"max":[
				1.0049827098846436,
				0.5468321442604065,
				1.3926424980163574
			],
			"min":[
				-0.9721542000770569,
				-0.00802518054842949,
				-1.3820157051086426
			],
			"type":"VEC3"
		},
		{
			"bufferView":34,
			"componentType":5126,
			"count":9198,
			"type":"VEC3"
		},
		{
			"bufferView":35,
			"componentType":5126,
			"count":9198,
			"type":"VEC2"
		},
		{
			"bufferView":36,
			"componentType":5126,
			"count":9198,
			"type":"VEC4"
		},
		{
			"bufferView":37,
			"componentType":5123,
			"count":43200,
			"type":"SCALAR"
		},
		{
			"bufferView":38,
			"componentType":5126,
			"count":196,
			"max":[
				0.060880888253450394,
				0.0548802874982357,
				0.012983880937099457
			],
			"min":[
				-0.04893268272280693,
				-0.05488111451268196,
				-0.0968688428401947
			],
			"type":"VEC3"
		},
		{
			"bufferView":39,
			"componentType":5126,
			"count":196,
			"type":"VEC3"
		},
		{
			"bufferView":40,
			"componentType":5126,
			"count":196,
			"type":"VEC2"
		},
		{
			"bufferView":41,
			"componentType":5123,
			"count":468,
			"type":"SCALAR"
		},
		{
			"bufferView":42,
			"componentType":5126,
			"count":258,
			"max":[
				0.04887383058667183,
				0.04946190491318703,
				0.40977317094802856
			],
			"min":[
				-0.050050098448991776,
				-0.049462027847766876,
				0.05162334069609642
			],
			"type":"VEC3"
		},
		{
			"bufferView":43,
			"componentType":5126,
			"count":258,
			"type":"VEC3"
		},
		{
			"bufferView":44,
			"componentType":5126,
			"count":258,
			"type":"VEC2"
		},
		{
			"bufferView":45,
			"componentType":5123,
			"count":756,
			"type":"SCALAR"
		},
		{
			"bufferView":46,
			"componentType":5126,
			"count":402,
			"max":[
				0.04753734916448593,
				0.04753737151622772,
				1.239914126927033e-07
			],
			"min":[
				-0.04753735288977623,
				-0.047537364065647125,
				-0.6011744141578674
			],
			"type":"VEC3"
		},
		{
			"bufferView":47,
			"componentType":5126,
			"count":402,
			"type":"VEC3"
		},
		{
			"bufferView":48,
			"componentType":5126,
			"count":402,
			"type":"VEC2"
		},
		{
			"bufferView":49,
			"componentType":5123,
			"count":1140,
			"type":"SCALAR"
		},
		{
			"bufferView":50,
			"componentType":5126,
			"count":259,
			"max":[
				0.009587444365024567,
				0.003033667802810669,
				0.04435606300830841
			],
			"min":[
				-0.07912427186965942,
				-1.0191662311553955,
				-0.04435566067695618
			],
			"type":"VEC3"
		},
		{
			"bufferView":51,
			"componentType":5126,
			"count":259,
			"type":"VEC3"
		},
		{
			"bufferView":52,
			"componentType":5126,
			"count":259,
			"type":"VEC2"
		},
		{
			"bufferView":53,
			"componentType":5123,
			"count":1146,
			"type":"SCALAR"
		},
		{
			"bufferView":54,
			"componentType":5126,
			"count":664,
			"max":[
				0.9999995231628418,
				7.408964157104492,
				-2.980478525161743
			],
			"min":[
				-1.0000007152557373,
				-2.072791814804077,
				-12.400375366210938
			],
			"type":"VEC3"
		},
		{
			"bufferView":55,
			"componentType":5126,
			"count":664,
			"type":"VEC3"
		},
		{
			"bufferView":56,
			"componentType":5126,
			"count":664,
			"type":"VEC2"
		},
		{
			"bufferView":57,
			"componentType":5123,
			"count":3024,
			"type":"SCALAR"
		},
		{
			"bufferView":58,
			"componentType":5126,
			"count":1148,
			"max":[
				0.16517166793346405,
				2.0709848403930664,
				0.6546490788459778
			],
			"min":[
				-0.16517172753810883,
				-0.16517160832881927,
				-0.6651716232299805
			],
			"type":"VEC3"
		},
		{
			"bufferView":59,
			"componentType":5126,
			"count":1148,
			"type":"VEC3"
		},
		{
			"bufferView":60,
			"componentType":5126,
			"count":1148,
			"type":"VEC2"
		},
		{
			"bufferView":61,
			"componentType":5123,
			"count":5736,
			"type":"SCALAR"
		},
		{
			"bufferView":62,
			"componentType":5126,
			"count":332,
			"max":[
				0.9999994039535522,
				5.057489395141602,
				-3.2882461547851562
			],
			"min":[
				-1.0000009536743164,
				-2.072791814804077,
				-10.932682991027832
			],
			"type":"VEC3"
		},
		{
			"bufferView":63,
			"componentType":5126,
			"count":332,
			"type":"VEC3"
		},
		{
			"bufferView":64,
			"componentType":5126,
			"count":332,
			"type":"VEC2"
		},
		{
			"bufferView":65,
			"componentType":5123,
			"count":1512,
			"type":"SCALAR"
		},
		{
			"bufferView":66,
			"componentType":5126,
			"count":574,
			"max":[
				0.16517160832881927,
				2.0235226154327393,
				0.654649019241333
			],
			"min":[
				-0.1651717871427536,
				0.2873660922050476,
				-0.16517159342765808
			],
			"type":"VEC3"
		},
		{
			"bufferView":67,
			"componentType":5126,
			"count":574,
			"type":"VEC3"
		},
		{
			"bufferView":68,
			"componentType":5126,
			"count":574,
			"type":"VEC2"
		},
		{
			"bufferView":69,
			"componentType":5123,
			"count":2868,
			"type":"SCALAR"
		},
		{
			"bufferView":70,
			"componentType":5126,
			"count":120,
			"max":[
				10
			],
			"min":[
				0.08333333333333333
			],
			"type":"SCALAR"
		},
		{
			"bufferView":71,
			"componentType":5126,
			"count":120,
			"type":"VEC4"
		},
		{
			"bufferView":72,
			"componentType":5126,
			"count":120,
			"type":"VEC4"
		},
		{
			"bufferView":73,
			"componentType":5126,
			"count":120,
			"type":"VEC4"
		}
	],
	"bufferViews":[
		{
			"buffer":0,
			"byteLength":24996,
			"byteOffset":0,
			"target":34962
		},
		{
			"buffer":0,
			"byteLength":24996,
			"byteOffset":24996,
			"target":34962
		},
		{
			"buffer":0,
			"byteLength":16664,
			"byteOffset":49992,
			"target":34962
		},
		{
			"buffer":0,
			"byteLength":33328,
			"byteOffset":66656,
			"target":34962
		},
		{
			"buffer":0,
			"byteLength":18432,
			"byteOffset":99984,
			"target":34963
		},
		{
			"buffer":0,
			"byteLength":3084,
			"byteOffset":118416,
			"target":34962
		},
		{
			"buffer":0,
			"byteLength":3084,
			"byteOffset":121500,
			"target":34962
		},
		{
			"buffer":0,
			"byteLength":2056,
			"byteOffset":124584,
			"target":34962
		},
		{
			"buffer":0,
			"byteLength":4112,
			"byteOffset":126640,
			"target":34962
		},
		{
			"buffer":0,
			"byteLength":2880,
			"byteOffset":130752,
			"target":34963
		},
		{
			"buffer":0,
			"byteLength":117168,
			"byteOffset":133632,
			"target":34962
		},
		{
			"buffer":0,
			"byteLength":117168,
			"byteOffset":250800,
			"target":34962
		},
		{
			"buffer":0,
			"byteLength":78112,
			"byteOffset":367968,
			"target":34962
		},
		{
			"buffer":0,
			"byteLength":156224,
			"byteOffset":446080,
			"target":34962
		},
		{
			"buffer":0,
			"byteLength":101376,
			"byteOffset":602304,
			"target":34963
		},
		{
			"buffer":0,
			"byteLength":1584,
			"byteOffset":703680,
			"target":34962
		},
		{
			"buffer":0,
			"byteLength":1584,
			"byteOffset":705264,
			"target":34962
		},
		{
			"buffer":0,
			"byteLength":1056,
			"byteOffset":706848,
			"target":34962
		},
		{
			"buffer":0,
			"byteLength":780,
			"byteOffset":707904,
			"target":34963
		},
		{
			"buffer":0,
			"byteLength":66348,
			"byteOffset":708684,
			"target":34962
		},
		{
			"buffer":0,
			"byteLength":66348,
			"byteOffset":775032,
			"target":34962
		},
		{
			"buffer":0,
			"byteLength":44232,
			"byteOffset":841380,
			"target":34962
		},
		{
			"buffer":0,
			"byteLength":88464,
			"byteOffset":885612,
			"target":34962
		},
		{
			"buffer":0,
			"byteLength":52224,
			"byteOffset":974076,
			"target":34963
		},
		{
			"buffer":0,
			"byteLength":1560,
			"byteOffset":1026300,
			"target":34962
		},
		{
			"buffer":0,
			"byteLength":1560,
			"byteOffset":1027860,
			"target":34962
		},
		{
			"buffer":0,
			"byteLength":1040,
			"byteOffset":1029420,
			"target":34962
		},
		{
			"buffer":0,
			"byteLength":744,
			"byteOffset":1030460,
			"target":34963
		},
		{
			"buffer":0,
			"byteLength":6708,
			"byteOffset":1031204,
			"target":34962
		},
		{
			"buffer":0,
			"byteLength":6708,
			"byteOffset":1037912,
			"target":34962
		},
		{
			"buffer":0,
			"byteLength":4472,
			"byteOffset":1044620,
			"target":34962
		},
		{
			"buffer":0,
			"byteLength":8944,
			"byteOffset":1049092,
			"target":34962
		},
		{
			"buffer":0,
			"byteLength":5760,
			"byteOffset":1058036,
			"target":34963
		},
		{
			"buffer":0,
			"byteLength":110376,
			"byteOffset":1063796,
			"target":34962
		},
		{
			"buffer":0,
			"byteLength":110376,
			"byteOffset":1174172,
			"target":34962
		},
		{
			"buffer":0,
			"byteLength":73584,
			"byteOffset":1284548,
			"target":34962
		},
		{
			"buffer":0,
			"byteLength":147168,
			"byteOffset":1358132,
			"target":34962
		},
		{
			"buffer":0,
			"byteLength":86400,
			"byteOffset":1505300,
			"target":34963
		},
		{
			"buffer":0,
			"byteLength":2352,
			"byteOffset":1591700,
			"target":34962
		},
		{
			"buffer":0,
			"byteLength":2352,
			"byteOffset":1594052,
			"target":34962
		},
		{
			"buffer":0,
			"byteLength":1568,
			"byteOffset":1596404,
			"target":34962
		},
		{
			"buffer":0,
			"byteLength":936,
			"byteOffset":1597972,
			"target":34963
		},
		{
			"buffer":0,
			"byteLength":3096,
			"byteOffset":1598908,
			"target":34962
		},
		{
			"buffer":0,
			"byteLength":3096,
			"byteOffset":1602004,
			"target":34962
		},
		{
			"buffer":0,
			"byteLength":2064,
			"byteOffset":1605100,
			"target":34962
		},
		{
			"buffer":0,
			"byteLength":1512,
			"byteOffset":1607164,
			"target":34963
		},
		{
			"buffer":0,
			"byteLength":4824,
			"byteOffset":1608676,
			"target":34962
		},
		{
			"buffer":0,
			"byteLength":4824,
			"byteOffset":1613500,
			"target":34962
		},
		{
			"buffer":0,
			"byteLength":3216,
			"byteOffset":1618324,
			"target":34962
		},
		{
			"buffer":0,
			"byteLength":2280,
			"byteOffset":1621540,
			"target":34963
		},
		{
			"buffer":0,
			"byteLength":3108,
			"byteOffset":1623820,
			"target":34962
		},
		{
			"buffer":0,
			"byteLength":3108,
			"byteOffset":1626928,
			"target":34962
		},
		{
			"buffer":0,
			"byteLength":2072,
			"byteOffset":1630036,
			"target":34962
		},
		{
			"buffer":0,
			"byteLength":2292,
			"byteOffset":1632108,
			"target":34963
		},
		{
			"buffer":0,
			"byteLength":7968,
			"byteOffset":1634400,
			"target":34962
		},
		{
			"buffer":0,
			"byteLength":7968,
			"byteOffset":1642368,
			"target":34962
		},
		{
			"buffer":0,
			"byteLength":5312,
			"byteOffset":1650336,
			"target":34962
		},
		{
			"buffer":0,
			"byteLength":6048,
			"byteOffset":1655648,
			"target":34963
		},
		{
			"buffer":0,
			"byteLength":13776,
			"byteOffset":1661696,
			"target":34962
		},
		{
			"buffer":0,
			"byteLength":13776,
			"byteOffset":1675472,
			"target":34962
		},
		{
			"buffer":0,
			"byteLength":9184,
			"byteOffset":1689248,
			"target":34962
		},
		{
			"buffer":0,
			"byteLength":11472,
			"byteOffset":1698432,
			"target":34963
		},
		{
			"buffer":0,
			"byteLength":3984,
			"byteOffset":1709904,
			"target":34962
		},
		{
			"buffer":0,
			"byteLength":3984,
			"byteOffset":1713888,
			"target":34962
		},
		{
			"buffer":0,
			"byteLength":2656,
			"byteOffset":1717872,
			"target":34962
		},
		{
			"buffer":0,
			"byteLength":3024,
			"byteOffset":1720528,
			"target":34963
		},
		{
			"buffer":0,
			"byteLength":6888,
			"byteOffset":1723552,
			"target":34962
		},
		{
			"buffer":0,
			"byteLength":6888,
			"byteOffset":1730440,
			"target":34962
		},
		{
			"buffer":0,
			"byteLength":4592,
			"byteOffset":1737328,
			"target":34962
		},
		{
			"buffer":0,
			"byteLength":5736,
			"byteOffset":1741920,
			"target":34963
		},
		{
			"buffer":0,
			"byteLength":480,
			"byteOffset":1747656
		},
		{
			"buffer":0,
			"byteLength":1920,
			"byteOffset":1748136
		},
		{
			"buffer":0,
			"byteLength":1920,
			"byteOffset":1750056
		},
		{
			"buffer":0,
			"byteLength":1920,
			"byteOffset":1751976
		}
	],
	"samplers":[
		{
			"magFilter":9729,
			"minFilter":9987
		}
	],
	"buffers":[
		{
			"byteLength":1753896,
			"uri":"Selected%20Item-9ef6324034eb1dc4df10d9ac5ff50aad.bin"
		}
	]
}
