# Blender 5.0.1
# www.blender.org
mtllib BrutalistTable1.mtl
o Plane
v 1.900000 1.100000 1.000000
v 2.000000 1.100000 0.900000
v -2.000000 1.100000 0.900000
v -1.900000 1.100000 1.000000
v -1.900000 1.000000 1.000000
v -2.000000 1.000000 0.900000
v 2.000000 1.000000 0.900000
v 1.900000 1.000000 1.000000
v -1.900000 1.000000 -1.000000
v -2.000000 1.000000 -0.900000
v 1.900000 1.000000 -1.000000
v 2.000000 1.000000 -0.900000
v -1.900000 1.100000 -1.000000
v -2.000000 1.100000 -0.900000
v 1.900000 1.100000 -1.000000
v 2.000000 1.100000 -0.900000
vn -0.0000 1.0000 -0.0000
vn -0.0000 -1.0000 -0.0000
vn 0.9239 -0.0000 -0.3827
vn 0.3827 -0.0000 -0.9239
vn 0.3827 -0.0000 0.9239
vn 0.9239 -0.0000 0.3827
vn -0.9239 -0.0000 0.3827
vn -0.3827 -0.0000 0.9239
vn -0.3827 -0.0000 -0.9239
vn -0.9239 -0.0000 -0.3827
vt 0.975000 1.000000
vt 0.975000 0.000000
vt 1.000000 0.050000
vt 1.000000 0.950000
vt 0.000000 0.050000
vt 0.025000 0.000000
vt 0.025000 1.000000
vt 0.000000 0.950000
s 1
f 15/1/1 1/2/1 2/3/1 16/4/1
f 8/2/2 11/1/2 12/4/2 7/3/2
f 12/4/3 11/1/4 15/1/4 16/4/3
f 8/2/5 7/3/6 2/3/6 1/2/5
f 6/5/7 5/6/8 4/6/8 3/5/7
f 11/1/4 9/7/9 13/7/9 15/1/4
f 7/3/6 12/4/3 16/4/3 2/3/6
f 5/6/8 8/2/5 1/2/5 4/6/8
f 10/8/10 6/5/7 3/5/7 14/8/10
f 9/7/9 10/8/10 14/8/10 13/7/9
f 4/6/1 1/2/1 15/1/1 13/7/1
f 5/6/2 9/7/2 11/1/2 8/2/2
f 6/5/2 10/8/2 9/7/2 5/6/2
f 3/5/1 4/6/1 13/7/1 14/8/1
o Plane.001
v -1.400000 1.000000 0.500000
v -1.499990 1.000000 0.500000
v 1.400000 1.000000 0.500000
v 1.499990 1.000000 0.500000
v -1.400000 1.000000 -0.500000
v -1.499990 1.000000 -0.500000
v 1.400000 1.000000 -0.500000
v 1.499990 1.000000 -0.500000
v -0.886835 0.100000 0.500000
v -0.899999 0.000010 0.500000
v -1.499990 0.600001 0.500000
v -1.400000 0.613165 0.500000
v -1.148236 0.170042 0.500000
v -1.199995 0.080394 0.500000
v -1.329958 0.351764 0.500000
v -1.419606 0.300005 0.500000
v 1.400000 0.613165 0.500000
v 1.499990 0.600001 0.500000
v 0.886835 0.100000 0.500000
v 0.899999 0.000010 0.500000
v 1.329958 0.351764 0.500000
v 1.419606 0.300005 0.500000
v 1.148236 0.170042 0.500000
v 1.199995 0.080394 0.500000
v -1.400000 0.613165 -0.500000
v -1.499990 0.600001 -0.500000
v -0.886835 0.100000 -0.500000
v -0.899999 0.000010 -0.500000
v -1.329958 0.351764 -0.500000
v -1.419606 0.300005 -0.500000
v -1.148236 0.170042 -0.500000
v -1.199995 0.080394 -0.500000
v 0.886835 0.100000 -0.500000
v 0.899999 0.000010 -0.500000
v 1.499990 0.600001 -0.500000
v 1.400000 0.613165 -0.500000
v 1.148236 0.170042 -0.500000
v 1.199995 0.080394 -0.500000
v 1.329958 0.351764 -0.500000
v 1.419606 0.300005 -0.500000
vn -0.0000 -0.0000 -1.0000
vn -0.0000 -0.0000 1.0000
vn -0.8660 -0.5000 -0.0000
vn -0.9914 -0.1305 -0.0000
vn 0.8660 0.5000 -0.0000
vn 0.9914 0.1305 -0.0000
vn -0.5000 -0.8660 -0.0000
vn 0.5000 0.8660 -0.0000
vn -0.1305 -0.9914 -0.0000
vn 0.1305 0.9914 -0.0000
vn 0.8660 -0.5000 -0.0000
vn 0.9914 -0.1305 -0.0000
vn -0.8660 0.5000 -0.0000
vn -0.9914 0.1305 -0.0000
vn 0.5000 -0.8660 -0.0000
vn -0.5000 0.8660 -0.0000
vn 0.1305 -0.9914 -0.0000
vn -0.1305 0.9914 -0.0000
vn -1.0000 -0.0000 -0.0000
vn 1.0000 -0.0000 -0.0000
vt 0.000000 1.000000
vt 0.000000 0.000000
vt 0.100000 1.000000
vt 0.100000 0.000000
vt 0.200000 1.000000
vt 0.200000 0.000000
vt 1.000000 0.000000
vt 1.000000 1.000000
vt 0.900000 0.000000
vt 0.900000 1.000000
vt 0.800000 0.000000
vt 0.800000 1.000000
s 1
f 45/9/11 46/9/11 42/9/11 41/9/11
f 28/10/12 27/10/12 32/10/12 31/10/12
f 47/11/11 48/11/11 46/9/11 45/9/11
f 31/10/12 32/10/12 30/12/12 29/12/12
f 43/13/11 44/13/11 48/11/11 47/11/11
f 29/12/12 30/12/12 26/14/12 25/14/12
f 37/15/12 38/15/12 34/15/12 33/15/12
f 52/16/11 51/16/11 56/16/11 55/16/11
f 39/17/12 40/17/12 38/15/12 37/15/12
f 55/16/11 56/16/11 54/18/11 53/18/11
f 35/19/12 36/19/12 40/17/12 39/17/12
f 53/18/11 54/18/11 50/20/11 49/20/11
f 17/10/12 18/10/12 27/10/12 28/10/12
f 41/9/11 42/9/11 22/9/11 21/9/11
f 25/14/12 26/14/12 36/19/12 35/19/12
f 49/20/11 50/20/11 44/13/11 43/13/11
f 23/16/11 24/16/11 51/16/11 52/16/11
f 33/15/12 34/15/12 20/15/12 19/15/12
f 46/9/13 32/10/13 27/10/14 42/9/14
f 45/9/15 41/9/16 28/10/16 31/10/15
f 48/11/17 30/12/17 32/10/13 46/9/13
f 47/11/18 45/9/15 31/10/15 29/12/18
f 44/13/19 26/14/19 30/12/17 48/11/17
f 43/13/20 47/11/18 29/12/18 25/14/20
f 38/15/21 56/16/21 51/16/22 34/15/22
f 37/15/23 33/15/24 52/16/24 55/16/23
f 40/17/25 54/18/25 56/16/21 38/15/21
f 39/17/26 37/15/23 55/16/23 53/18/26
f 36/19/27 50/20/27 54/18/25 40/17/25
f 35/19/28 39/17/26 53/18/26 49/20/28
f 18/10/29 22/9/29 42/9/14 27/10/14
f 17/10/30 28/10/16 41/9/16 21/9/30
f 44/13/19 50/20/27 36/19/27 26/14/19
f 43/13/20 25/14/20 35/19/28 49/20/28
f 24/16/30 20/15/30 34/15/22 51/16/22
f 23/16/29 52/16/24 33/15/24 19/15/29
