# Blender 5.0.1
# www.blender.org
mtllib TestWorldV2.mtl
o Cube
v -0.986129 0.000000 0.986129
v -0.986129 0.013871 1.000000
v -1.000000 0.013871 0.986129
v -0.986129 0.001853 0.993055
v -0.993055 0.001853 0.986129
v -0.992762 0.003653 0.992762
v -0.993055 0.013871 0.998147
v -0.986129 0.006945 0.998147
v -0.992762 0.007238 0.996347
v -0.998147 0.006945 0.986129
v -0.998147 0.013871 0.993055
v -0.996347 0.007238 0.992762
v -0.992511 2.000000 0.998169
v -0.986129 0.000000 -0.986129
v -1.000000 0.013871 -0.986129
v -0.986129 0.013871 -1.000000
v -0.993055 0.001853 -0.986129
v -0.986129 0.001853 -0.993055
v -0.992762 0.003653 -0.992762
v -0.998147 0.013871 -0.993055
v -0.998147 0.006945 -0.986129
v -0.996347 0.007238 -0.992762
v -0.986129 0.006945 -0.998147
v -0.993055 0.013871 -0.998147
v -0.992762 0.007238 -0.996347
v 0.986129 0.000000 0.986129
v 1.000000 0.013871 0.986129
v 0.986129 0.013871 1.000000
v 0.993055 0.001853 0.986129
v 0.986129 0.001853 0.993055
v 0.992762 0.003653 0.992762
v 0.998147 0.013871 0.993055
v 0.998147 0.006945 0.986129
v 0.996347 0.007238 0.992762
v 0.986129 0.006945 0.998147
v 0.993055 0.013871 0.998147
v 0.992762 0.007238 0.996347
v 0.986331 2.000000 1.000000
v 1.000000 2.000000 0.985022
v 0.993166 2.000000 0.997993
v 0.986129 0.000000 -0.986129
v 0.986129 0.013871 -1.000000
v 1.000000 0.013871 -0.986129
v 0.986129 0.001853 -0.993055
v 0.993055 0.001853 -0.986129
v 0.992762 0.003653 -0.992762
v 0.993055 0.013871 -0.998147
v 0.986129 0.006945 -0.998147
v 0.992762 0.007238 -0.996347
v 0.998147 0.006945 -0.986129
v 0.998147 0.013871 -0.993055
v 0.996347 0.007238 -0.992762
v -0.985022 2.000000 1.000000
v -1.000000 2.000000 0.986331
v -0.997993 2.000000 0.993166
v 0.010405 4.000000 1.403808
v -0.010405 4.000000 1.403808
v 0.003809 4.000000 1.407617
v -0.003809 4.000000 1.407617
v -1.000000 2.000000 -0.985022
v -0.986331 2.000000 -1.000000
v -0.998169 2.000000 -0.992511
v -0.993166 2.000000 -0.997993
v -1.403808 4.000000 0.010405
v -1.403808 4.000000 -0.010405
v -1.407617 4.000000 0.003809
v -1.407617 4.000000 -0.003809
v 0.998169 2.000000 0.992511
v 1.403808 4.000000 -0.010405
v 1.403808 4.000000 0.010405
v 1.407617 4.000000 -0.003809
v 1.407617 4.000000 0.003809
v 0.985022 2.000000 -1.000000
v 1.000000 2.000000 -0.986331
v 0.992511 2.000000 -0.998169
v 0.997993 2.000000 -0.993166
v -0.010405 4.000000 -1.403808
v 0.010405 4.000000 -1.403808
v -0.003809 4.000000 -1.407617
v 0.003809 4.000000 -1.407617
v 0.985224 6.000000 1.000000
v 1.000000 6.000000 0.985224
v 0.992612 6.000000 0.998020
v 0.998020 6.000000 0.992612
v -0.992612 6.000000 0.998020
v 1.000000 6.000000 -0.985224
v 0.985224 6.000000 -1.000000
v 0.992612 6.000000 -0.998020
v -0.992612 6.000000 -0.998020
v -0.985224 6.000000 1.000000
v -1.000000 6.000000 0.985224
v -0.998021 6.000000 0.992612
v 0.010405 8.000000 1.403808
v -0.010405 8.000000 1.403808
v 0.003809 8.000000 1.407617
v -0.003809 8.000000 1.407617
v -1.000000 6.000000 -0.985224
v -0.985224 6.000000 -1.000000
v -0.998020 6.000000 -0.992612
v -1.403808 8.000000 0.010405
v -1.403808 8.000000 -0.010405
v -1.407617 8.000000 0.003809
v -1.407617 8.000000 -0.003809
v 1.403808 8.000000 -0.010405
v 1.403808 8.000000 0.010405
v 1.407617 8.000000 -0.003809
v 1.407617 8.000000 0.003809
v 0.998020 6.000000 -0.992612
v -0.010405 8.000000 -1.403808
v 0.010405 8.000000 -1.403808
v -0.003809 8.000000 -1.407617
v 0.003809 8.000000 -1.407617
v 1.000000 10.000000 0.985224
v 0.998020 10.000000 0.992612
v -0.992612 10.000000 0.998020
v 1.000000 10.000000 -0.985224
v 0.985224 10.000000 -1.000000
v -0.985224 10.000000 -1.000000
v -0.992612 10.000000 -0.998020
v -0.998020 10.000000 -0.992612
v -0.985224 10.000000 1.000000
v -1.000000 10.000000 0.985224
v -0.998021 10.000000 0.992612
v 0.010405 12.000000 1.403808
v -0.010405 12.000000 1.403808
v 0.003809 12.000000 1.407617
v -0.003809 12.000000 1.407617
v -1.000000 10.000000 -0.985224
v -1.403808 12.000000 0.010405
v -1.403808 12.000000 -0.010405
v -1.407617 12.000000 0.003809
v -1.407617 12.000000 -0.003809
v 0.985224 10.000000 1.000000
v 0.992612 10.000000 0.998020
v 1.403808 12.000000 -0.010405
v 1.403808 12.000000 0.010405
v 1.407617 12.000000 -0.003809
v 1.407617 12.000000 0.003809
v 0.992612 10.000000 -0.998020
v 0.998020 10.000000 -0.992612
v -0.010405 12.000000 -1.403808
v 0.010405 12.000000 -1.403808
v -0.003809 12.000000 -1.407617
v 0.003809 12.000000 -1.407617
v 0.983915 14.000000 1.000000
v 1.000000 14.000000 0.986533
v 0.991958 14.000000 0.998196
v 0.997845 14.000000 0.993267
v -1.000000 14.000000 0.983915
v -0.986533 14.000000 1.000000
v -0.998196 14.000000 0.991958
v -0.993267 14.000000 0.997845
v 1.000000 14.000000 -0.983915
v 0.986533 14.000000 -1.000000
v 0.998196 14.000000 -0.991958
v 0.993267 14.000000 -0.997845
v -0.983915 14.000000 -1.000000
v -1.000000 14.000000 -0.986533
v -0.991958 14.000000 -0.998196
v -0.997845 14.000000 -0.993267
vn 0.1296 0.9831 -0.1296
vn 0.2597 0.9568 -0.1305
vn 0.2566 0.9318 -0.2566
vn 0.1305 0.9568 -0.2597
vn 0.1038 0.7033 -0.7033
vn 0.5069 0.6972 -0.5069
vn 0.5069 0.5069 -0.6972
vn 0.1268 0.1295 -0.9834
vn 0.1305 0.2597 -0.9568
vn 0.2566 0.2566 -0.9318
vn 0.2543 0.1304 -0.9583
vn 0.6946 0.1038 -0.7119
vn 0.6972 0.5069 -0.5069
vn 0.9827 0.1296 -0.1326
vn 0.9552 0.1305 -0.2655
vn 0.9318 0.2566 -0.2566
vn 0.9568 0.2597 -0.1305
vn 0.7033 0.7033 -0.1038
vn 0.1296 0.9831 0.1296
vn 0.1305 0.9568 0.2597
vn 0.2566 0.9318 0.2566
vn 0.2597 0.9568 0.1305
vn 0.7033 0.7033 0.1038
vn 0.5069 0.6972 0.5069
vn 0.6972 0.5069 0.5069
vn 0.9834 0.1295 0.1268
vn 0.9568 0.2597 0.1305
vn 0.9318 0.2566 0.2566
vn 0.9583 0.1304 0.2543
vn 0.7119 0.1038 0.6946
vn 0.5069 0.5069 0.6972
vn 0.1326 0.1296 0.9827
vn 0.2655 0.1305 0.9552
vn 0.2566 0.2566 0.9318
vn 0.1305 0.2597 0.9568
vn 0.1038 0.7033 0.7033
vn -0.1296 0.9831 -0.1296
vn -0.1305 0.9568 -0.2597
vn -0.2566 0.9318 -0.2566
vn -0.2597 0.9568 -0.1305
vn -0.7033 0.7033 -0.1038
vn -0.5069 0.6972 -0.5069
vn -0.6972 0.5069 -0.5069
vn -0.9834 0.1295 -0.1268
vn -0.9568 0.2597 -0.1305
vn -0.9318 0.2566 -0.2566
vn -0.9583 0.1304 -0.2543
vn -0.7119 0.1038 -0.6946
vn -0.5069 0.5069 -0.6972
vn -0.1326 0.1296 -0.9827
vn -0.2655 0.1305 -0.9552
vn -0.2566 0.2566 -0.9318
vn -0.1305 0.2597 -0.9568
vn -0.1038 0.7033 -0.7033
vn -0.1296 0.9831 0.1296
vn -0.2597 0.9568 0.1305
vn -0.2566 0.9318 0.2566
vn -0.1305 0.9568 0.2597
vn -0.1038 0.7033 0.7033
vn -0.5069 0.6972 0.5069
vn -0.5069 0.5069 0.6972
vn -0.1268 0.1295 0.9834
vn -0.1305 0.2597 0.9568
vn -0.2566 0.2566 0.9318
vn -0.2543 0.1304 0.9583
vn -0.6946 0.1038 0.7119
vn -0.6972 0.5069 0.5069
vn -0.9827 0.1296 0.1326
vn -0.9552 0.1305 0.2655
vn -0.9318 0.2566 0.2566
vn -0.9568 0.2597 0.1305
vn -0.7033 0.7033 0.1038
vn 0.0943 0.1094 -0.9895
vn -0.0514 0.0877 -0.9948
vn 0.5632 0.0062 -0.8263
vn 0.5122 0.0085 -0.8588
vn 0.9483 -0.0525 -0.3129
vn 0.8731 -0.1382 -0.4675
vn 0.3129 -0.0525 0.9483
vn 0.4675 -0.1382 0.8731
vn 0.8263 0.0062 0.5632
vn 0.8588 0.0085 0.5122
vn 0.9895 0.1094 0.0943
vn 0.9948 0.0877 -0.0514
vn -0.9483 -0.0525 0.3129
vn -0.8731 -0.1382 0.4675
vn -0.5632 0.0062 0.8263
vn -0.5122 0.0085 0.8588
vn -0.0943 0.1094 0.9895
vn 0.0514 0.0877 0.9948
vn -0.3129 -0.0525 -0.9483
vn -0.4675 -0.1382 -0.8731
vn -0.8263 0.0062 -0.5632
vn -0.8588 0.0085 -0.5122
vn -0.9895 0.1094 -0.0943
vn -0.9948 0.0877 0.0514
vn -0.1342 0.2612 -0.9559
vn -0.2826 0.1116 -0.9527
vn 0.3568 0.0149 -0.9341
vn 0.8269 -0.1629 -0.5382
vn 0.7536 -0.2470 -0.6092
vn 0.5382 -0.1629 0.8269
vn 0.6092 -0.2470 0.7536
vn 0.9341 0.0149 0.3568
vn 0.9559 0.2612 -0.1342
vn 0.9527 0.1116 -0.2826
vn -0.8269 -0.1629 0.5382
vn -0.7536 -0.2470 0.6092
vn -0.3568 0.0149 0.9341
vn 0.1342 0.2612 0.9559
vn 0.2826 0.1116 0.9527
vn -0.5382 -0.1629 -0.8269
vn -0.6092 -0.2470 -0.7536
vn -0.9341 0.0149 -0.3568
vn -0.9559 0.2612 0.1342
vn -0.9527 0.1116 0.2826
vn -0.8349 0.1699 -0.5235
vn -0.7670 0.2580 -0.5875
vn -0.8721 0.1103 -0.4767
vn -0.3835 0.0005 -0.9236
vn 0.1253 -0.2573 -0.9582
vn 0.2790 -0.1101 -0.9540
vn 0.2192 -0.1694 -0.9609
vn 0.9609 -0.1694 0.2192
vn 0.9582 -0.2573 0.1253
vn 0.9540 -0.1101 0.2790
vn 0.9236 0.0004 -0.3835
vn 0.5875 0.2580 -0.7670
vn 0.4767 0.1103 -0.8721
vn 0.5235 0.1699 -0.8349
vn -0.2192 -0.1694 0.9609
vn -0.1253 -0.2573 0.9582
vn -0.2790 -0.1101 0.9540
vn 0.3835 0.0004 0.9236
vn 0.7670 0.2580 0.5875
vn 0.8721 0.1103 0.4767
vn 0.8349 0.1699 0.5235
vn -0.9609 -0.1694 -0.2192
vn -0.9582 -0.2573 -0.1253
vn -0.9540 -0.1101 -0.2790
vn -0.9236 0.0004 0.3835
vn -0.5875 0.2580 0.7670
vn -0.4767 0.1103 0.8721
vn -0.5235 0.1699 0.8349
vn -0.2192 0.1694 -0.9609
vn -0.1253 0.2573 -0.9582
vn -0.2790 0.1101 -0.9540
vn 0.3835 -0.0005 -0.9236
vn 0.7670 -0.2580 -0.5875
vn 0.8721 -0.1103 -0.4767
vn 0.8349 -0.1699 -0.5235
vn 0.5235 -0.1699 0.8349
vn 0.5875 -0.2580 0.7670
vn 0.4767 -0.1103 0.8721
vn 0.9236 -0.0004 0.3835
vn 0.9582 0.2573 -0.1253
vn 0.9540 0.1100 -0.2790
vn 0.9609 0.1694 -0.2192
vn -0.8349 -0.1699 0.5235
vn -0.7670 -0.2580 0.5875
vn -0.8721 -0.1103 0.4767
vn -0.3835 -0.0004 0.9236
vn 0.1253 0.2573 0.9582
vn 0.2790 0.1101 0.9540
vn 0.2192 0.1694 0.9609
vn -0.5235 -0.1699 -0.8349
vn -0.5875 -0.2580 -0.7670
vn -0.4767 -0.1103 -0.8721
vn -0.9236 -0.0004 -0.3835
vn -0.9582 0.2573 0.1253
vn -0.9540 0.1100 0.2790
vn -0.9609 0.1694 0.2192
vn 0.4766 0.1103 -0.8721
vn -0.9540 -0.1100 -0.2790
vn 0.4766 -0.1103 0.8721
vn 0.9582 0.2572 -0.1253
vn -0.4766 -0.1103 -0.8721
vn -0.9582 0.2572 0.1253
vn -0.8228 0.1593 -0.5456
vn -0.7467 0.2414 -0.6198
vn -0.8654 0.1027 -0.4905
vn -0.3428 -0.0229 -0.9391
vn 0.1310 -0.2597 -0.9568
vn 0.2813 -0.1110 -0.9532
vn 0.2230 -0.1708 -0.9597
vn 0.9597 -0.1708 0.2230
vn 0.9568 -0.2597 0.1310
vn 0.9532 -0.1110 0.2813
vn 0.9391 -0.0229 -0.3428
vn 0.6198 0.2414 -0.7467
vn 0.4905 0.1027 -0.8654
vn 0.5456 0.1593 -0.8228
vn -0.2230 -0.1708 0.9597
vn -0.1310 -0.2597 0.9568
vn -0.2813 -0.1110 0.9532
vn 0.3428 -0.0229 0.9391
vn 0.7467 0.2414 0.6199
vn 0.8654 0.1027 0.4905
vn 0.8228 0.1593 0.5456
vn -0.9597 -0.1708 -0.2230
vn -0.9568 -0.2597 -0.1310
vn -0.9532 -0.1110 -0.2813
vn -0.9391 -0.0229 0.3428
vn -0.6198 0.2414 0.7467
vn -0.4905 0.1027 0.8654
vn -0.5456 0.1593 0.8228
vt 0.118294 0.205833
vt 0.118123 0.206255
vt 0.118417 0.206445
vt 0.118617 0.206155
vt 0.118575 0.206634
vt 0.118860 0.206491
vt 0.119040 0.206856
vt 0.118698 0.206944
vt 0.118356 0.206681
vt 0.118364 0.207015
vt 0.118014 0.207070
vt 0.118034 0.206662
vt 0.000930 0.229873
vt 0.000471 0.230160
vt 0.000753 0.230502
vt 0.001097 0.230285
vt 0.000872 0.230757
vt 0.001232 0.230674
vt 0.001335 0.231062
vt 0.000938 0.231121
vt 0.000594 0.230752
vt 0.000529 0.231149
vt 0.000086 0.231157
vt 0.000170 0.230622
vt 0.235972 0.181502
vt 0.235800 0.181926
vt 0.236096 0.182117
vt 0.236297 0.181824
vt 0.236256 0.182307
vt 0.236544 0.182161
vt 0.236727 0.182528
vt 0.236382 0.182619
vt 0.236035 0.182354
vt 0.236044 0.182690
vt 0.235690 0.182746
vt 0.235710 0.182335
vt 0.353635 0.157098
vt 0.353465 0.157521
vt 0.353760 0.157710
vt 0.353960 0.157419
vt 0.353919 0.157899
vt 0.354204 0.157755
vt 0.354386 0.158119
vt 0.354043 0.158209
vt 0.353700 0.157947
vt 0.353709 0.158281
vt 0.353358 0.158336
vt 0.353377 0.157928
vt 0.142965 0.324352
vt 0.143405 0.324273
vt 0.142544 0.324434
vt 0.142150 0.324545
vt 0.024251 0.348843
vt 0.024664 0.348725
vt 0.025104 0.348637
vt 0.025562 0.348551
vt 0.470810 0.132968
vt 0.470721 0.132542
vt 0.470900 0.133395
vt 0.470989 0.133821
vt 0.377693 0.275761
vt 0.378085 0.275650
vt 0.378504 0.275568
vt 0.378941 0.275488
vt 0.259935 0.300188
vt 0.260326 0.300078
vt 0.260744 0.299997
vt 0.261180 0.299918
vt 0.403616 0.098279
vt 0.336248 0.000086
vt 0.238055 0.067454
vt 0.305423 0.165648
vt 0.495470 0.251245
vt 0.226744 0.432853
vt 0.227184 0.432733
vt 0.226295 0.432945
vt 0.225854 0.433064
vt 0.107983 0.457439
vt 0.108425 0.457319
vt 0.108875 0.457226
vt 0.109317 0.457106
vt 0.461504 0.384192
vt 0.461945 0.384072
vt 0.462395 0.383979
vt 0.462836 0.383859
vt 0.343685 0.408651
vt 0.344124 0.408532
vt 0.344572 0.408441
vt 0.345012 0.408322
vt 0.310553 0.541327
vt 0.310997 0.541205
vt 0.310099 0.541422
vt 0.309655 0.541544
vt 0.191786 0.565962
vt 0.192229 0.565842
vt 0.192681 0.565748
vt 0.193125 0.565628
vt 0.545364 0.492633
vt 0.545809 0.492510
vt 0.546264 0.492415
vt 0.546709 0.492292
vt 0.427509 0.517100
vt 0.427954 0.516978
vt 0.428408 0.516883
vt 0.428853 0.516761
vt 0.579347 0.359693
vt 0.663231 0.468153
vt 0.276517 0.674247
vt 0.276959 0.674127
vt 0.276067 0.674340
vt 0.275625 0.674460
vt 0.629235 0.601093
vt 0.629678 0.600971
vt 0.630129 0.600877
vt 0.630572 0.600756
vt 0.511365 0.625560
vt 0.511808 0.625438
vt 0.512260 0.625344
vt 0.512703 0.625223
vt 0.393498 0.650016
vt 0.393940 0.649895
vt 0.394391 0.649801
vt 0.394834 0.649680
vt 0.360374 0.782733
vt 0.360818 0.782612
vt 0.359922 0.782826
vt 0.359478 0.782947
vt 0.713102 0.709566
vt 0.713547 0.709445
vt 0.713999 0.709351
vt 0.714444 0.709229
vt 0.595226 0.734032
vt 0.595671 0.733910
vt 0.596124 0.733816
vt 0.596569 0.733694
vt 0.477352 0.758493
vt 0.477796 0.758372
vt 0.478249 0.758277
vt 0.478694 0.758156
vt 0.747110 0.576623
vt 0.830979 0.685100
vt 0.797869 0.817828
vt 0.798311 0.817708
vt 0.797419 0.817922
vt 0.796977 0.818043
vt 0.679099 0.842508
vt 0.679541 0.842387
vt 0.679992 0.842294
vt 0.680434 0.842173
vt 0.561220 0.866971
vt 0.561662 0.866850
vt 0.562113 0.866757
vt 0.562555 0.866636
vt 0.443343 0.891429
vt 0.443785 0.891309
vt 0.444235 0.891215
vt 0.444677 0.891095
vt 0.881733 0.926351
vt 0.882135 0.926206
vt 0.881278 0.926437
vt 0.880788 0.926523
vt 0.762908 0.950991
vt 0.763398 0.950905
vt 0.763854 0.950818
vt 0.764256 0.950673
vt 0.645025 0.975454
vt 0.645516 0.975369
vt 0.645972 0.975282
vt 0.646374 0.975138
vt 0.527145 0.999914
vt 0.527636 0.999829
vt 0.528091 0.999742
vt 0.528493 0.999598
vt 0.914854 0.793576
vt 0.998666 0.902055
s 1
f 1/1/1 5/2/2 6/3/3 4/4/4
f 4/4/5 6/3/6 9/5/7 8/6/5
f 2/7/8 8/6/9 9/5/10 7/8/11
f 7/8/12 9/5/7 12/9/13 11/10/12
f 3/11/14 11/10/15 12/9/16 10/12/17
f 10/12/18 12/9/13 6/3/6 5/2/18
f 6/3/6 12/9/13 9/5/7
f 14/13/19 18/14/20 19/15/21 17/16/22
f 17/16/23 19/15/24 22/17/25 21/18/23
f 15/19/26 21/18/27 22/17/28 20/20/29
f 20/20/30 22/17/25 25/21/31 24/22/30
f 16/23/32 24/22/33 25/21/34 23/24/35
f 23/24/36 25/21/31 19/15/24 18/14/36
f 19/15/24 25/21/31 22/17/25
f 26/25/37 30/26/38 31/27/39 29/28/40
f 29/28/41 31/27/42 34/29/43 33/30/41
f 27/31/44 33/30/45 34/29/46 32/32/47
f 32/32/48 34/29/43 37/33/49 36/34/48
f 28/35/50 36/34/51 37/33/52 35/36/53
f 35/36/54 37/33/49 31/27/42 30/26/54
f 31/27/42 37/33/49 34/29/43
f 41/37/55 45/38/56 46/39/57 44/40/58
f 44/40/59 46/39/60 49/41/61 48/42/59
f 42/43/62 48/42/63 49/41/64 47/44/65
f 47/44/66 49/41/61 52/45/67 51/46/66
f 43/47/68 51/46/69 52/45/70 50/48/71
f 50/48/72 52/45/67 46/39/60 45/38/72
f 46/39/60 52/45/67 49/41/61
f 14/13/19 17/16/22 5/2/2 1/1/1
f 17/16/23 21/18/23 10/12/18 5/2/18
f 21/18/27 15/19/26 3/11/14 10/12/17
f 2/7/8 7/8/11 13/49/73 53/50/74
f 7/8/12 11/10/12 55/51/75 13/49/76
f 11/10/15 3/11/14 54/52/77 55/51/78
f 61/53/79 63/54/80 24/22/33 16/23/32
f 63/54/81 62/55/82 20/20/30 24/22/30
f 62/55/83 60/56/84 15/19/26 20/20/29
f 41/37/55 44/40/58 18/57/20 14/58/19
f 44/40/59 48/42/59 23/59/36 18/57/36
f 48/42/63 42/43/62 16/60/32 23/59/35
f 74/61/85 76/62/86 51/46/69 43/47/68
f 76/62/87 75/63/88 47/44/66 51/46/66
f 75/63/89 73/64/90 42/43/62 47/44/65
f 26/25/37 29/28/40 45/38/56 41/37/55
f 29/28/41 33/30/41 50/48/72 45/38/72
f 33/30/45 27/31/44 43/47/68 50/48/71
f 38/65/91 40/66/92 36/34/51 28/35/50
f 40/66/93 68/67/94 32/32/48 36/34/48
f 68/67/95 39/68/96 27/31/44 32/32/47
f 1/1/1 4/4/4 30/26/38 26/25/37
f 4/4/5 8/6/5 35/36/54 30/26/54
f 8/6/9 2/7/8 28/35/50 35/36/53
f 14/69/19 1/70/1 26/71/37 41/72/55
f 3/11/14 15/19/26 60/56/84 54/52/77
f 28/35/50 2/7/8 53/50/74 38/65/91
f 16/60/32 42/43/62 73/64/90 61/73/79
f 43/47/68 27/31/44 39/68/96 74/61/85
f 53/50/74 13/49/73 58/74/97 56/75/98
f 13/49/76 55/51/75 59/76/99 58/74/99
f 55/51/78 54/52/77 57/77/100 59/76/101
f 65/78/102 67/79/103 63/54/80 61/53/79
f 67/79/104 66/80/104 62/55/82 63/54/81
f 66/80/105 64/81/106 60/56/84 62/55/83
f 78/82/107 80/83/108 76/62/86 74/61/85
f 80/83/109 79/84/109 75/63/88 76/62/87
f 79/84/110 77/85/111 73/64/90 75/63/89
f 70/86/112 72/87/113 40/66/92 38/65/91
f 72/87/114 71/88/114 68/67/94 40/66/93
f 71/88/115 69/89/116 39/68/96 68/67/95
f 56/75/117 58/74/118 84/90/118 82/91/119
f 58/74/120 59/76/120 83/92/120 84/90/120
f 59/76/121 57/77/122 81/93/123 83/92/121
f 91/94/124 92/95/125 67/79/125 65/78/126
f 92/95/127 85/96/127 66/80/127 67/79/127
f 85/96/128 90/97/129 64/81/130 66/80/128
f 98/98/131 89/99/132 80/83/132 78/82/133
f 89/99/134 99/100/134 79/84/134 80/83/134
f 99/100/135 97/101/136 77/85/137 79/84/135
f 86/102/138 108/103/139 72/87/139 70/86/140
f 108/103/141 88/104/141 71/88/141 72/87/141
f 88/104/142 87/105/143 69/89/144 71/88/142
f 54/52/77 60/56/84 64/81/106 57/77/100
f 38/65/91 53/50/74 56/75/98 70/86/112
f 70/86/140 56/75/117 82/91/119 86/102/138
f 57/77/122 64/81/130 90/97/129 81/93/123
f 61/73/79 73/64/90 77/85/111 65/106/102
f 65/106/126 77/85/137 97/101/136 91/107/124
f 74/61/85 39/68/96 69/89/116 78/82/107
f 78/82/133 69/89/144 87/105/143 98/98/131
f 90/97/145 85/96/146 95/108/146 93/109/147
f 85/96/148 92/95/148 96/110/148 95/108/148
f 92/95/149 91/94/150 94/111/151 96/110/149
f 101/112/152 103/113/153 89/99/153 98/98/154
f 103/113/155 102/114/155 99/100/155 89/99/155
f 102/114/156 100/115/157 97/101/158 99/100/156
f 110/116/159 112/117/160 108/103/160 86/102/161
f 112/117/162 111/118/162 88/104/162 108/103/162
f 111/118/163 109/119/164 87/105/165 88/104/163
f 105/120/166 107/121/167 83/92/167 81/93/168
f 107/121/169 106/122/169 84/90/169 83/92/169
f 106/122/170 104/123/171 82/91/172 84/90/170
f 93/109/117 95/108/118 114/124/118 113/125/119
f 95/108/120 96/110/120 134/126/120 114/124/120
f 96/110/121 94/111/122 133/127/123 134/126/121
f 122/128/124 123/129/125 103/113/125 101/112/126
f 123/129/127 115/130/127 102/114/127 103/113/127
f 115/130/128 121/131/173 100/115/130 102/114/128
f 118/132/131 119/133/132 112/117/132 110/116/133
f 119/133/134 120/134/134 111/118/134 112/117/134
f 120/134/135 128/135/136 109/119/137 111/118/135
f 116/136/138 140/137/139 107/121/139 105/120/174
f 140/137/141 139/138/141 106/122/141 107/121/141
f 139/138/142 117/139/143 104/123/144 106/122/142
f 91/107/150 97/101/158 100/115/157 94/140/151
f 81/93/168 90/97/145 93/109/147 105/120/166
f 105/120/174 93/109/117 113/125/119 116/136/138
f 94/140/122 100/115/130 121/131/173 133/141/123
f 98/98/154 87/105/165 109/119/164 101/112/152
f 101/112/126 109/119/137 128/135/136 122/128/124
f 86/102/161 82/91/172 104/123/171 110/116/159
f 110/116/133 104/123/144 117/139/143 118/132/131
f 121/131/145 115/130/146 126/142/146 124/143/147
f 115/130/148 123/129/148 127/144/148 126/142/148
f 123/129/149 122/128/150 125/145/151 127/144/149
f 130/146/152 132/147/153 119/133/153 118/132/175
f 132/147/155 131/148/155 120/134/155 119/133/155
f 131/148/176 129/149/157 128/135/158 120/134/176
f 142/150/159 144/151/160 140/137/160 116/136/161
f 144/151/162 143/152/162 139/138/162 140/137/162
f 143/152/163 141/153/164 117/139/165 139/138/163
f 136/154/166 138/155/167 134/126/167 133/127/177
f 138/155/169 137/156/169 114/124/169 134/126/169
f 137/156/178 135/157/171 113/125/172 114/124/178
f 124/143/179 126/142/180 148/158/180 146/159/181
f 126/142/182 127/144/182 147/160/182 148/158/182
f 127/144/183 125/145/184 145/161/185 147/160/183
f 149/162/186 151/163/187 132/147/187 130/146/188
f 151/163/189 152/164/189 131/148/189 132/147/189
f 152/164/190 150/165/191 129/149/192 131/148/190
f 157/166/193 159/167/194 144/151/194 142/150/195
f 159/167/196 160/168/196 143/152/196 144/151/196
f 160/168/197 158/169/198 141/153/199 143/152/197
f 153/170/200 155/171/201 138/155/201 136/154/202
f 155/171/203 156/172/203 137/156/203 138/155/203
f 156/172/204 154/173/205 135/157/206 137/156/204
f 122/128/150 128/135/158 129/149/157 125/145/151
f 133/141/177 121/131/145 124/143/147 136/174/166
f 136/174/202 124/143/179 146/159/181 153/175/200
f 125/145/184 129/149/192 150/165/191 145/161/185
f 118/132/175 117/139/165 141/153/164 130/146/152
f 130/146/188 141/153/199 158/169/198 149/162/186
f 116/136/161 113/125/172 135/157/171 142/150/159
f 142/150/195 135/157/206 154/173/205 157/166/193
