{
	"asset":{
		"generator":"Khronos glTF Blender I/O v5.0.21",
		"version":"2.0"
	},
	"scene":0,
	"scenes":[
		{
			"name":"Scene",
			"nodes":[
				0,
				1,
				13
			]
		}
	],
	"nodes":[
		{
			"mesh":0,
			"name":"Cube",
			"translation":[
				0,
				1,
				0
			]
		},
		{
			"mesh":1,
			"name":"Cube.001",
			"scale":[
				1.156503438949585,
				0.5673957467079163,
				1
			],
			"translation":[
				0,
				0,
				-0.5185167193412781
			]
		},
		{
			"name":"Bone.004",
			"translation":[
				0,
				0.18938517570495605,
				0
			]
		},
		{
			"children":[
				2
			],
			"name":"Bone.003",
			"rotation":[
				0,
				0,
				-4.011930366762229e-25,
				1
			],
			"translation":[
				1.506840883170879e-24,
				0.1893850564956665,
				0
			]
		},
		{
			"name":"Bone.006",
			"rotation":[
				-0.09826423227787018,
				0.043738510459661484,
				-0.00432306295260787,
				0.9941893219947815
			],
			"scale":[
				0.9999999403953552,
				1,
				1
			],
			"translation":[
				-1.7208456881689926e-15,
				0.1354074627161026,
				1.4901161193847656e-08
			]
		},
		{
			"children":[
				4
			],
			"name":"Bone.005",
			"rotation":[
				0.3278127908706665,
				5.574317896162029e-09,
				5.574317896162029e-09,
				0.9447426795959473
			],
			"translation":[
				5.797603696010254e-17,
				0.1075429916381836,
				0.142173171043396
			]
		},
		{
			"children":[
				3,
				5
			],
			"name":"Bone.002",
			"rotation":[
				-9.247461685291114e-10,
				6.70306471126836e-18,
				6.703061816136216e-18,
				1
			],
			"translation":[
				-6.496429791866405e-27,
				0.7593880891799927,
				-1.1102230246251565e-16
			]
		},
		{
			"mesh":3,
			"name":"Cube.003",
			"rotation":[
				-1.2433627460950447e-09,
				-0.3826833963394165,
				7.428935799858039e-10,
				0.9238795638084412
			],
			"scale":[
				0.11495766043663025,
				0.11495766043663025,
				0.11495766043663025
			],
			"translation":[
				-2.53250974631496e-26,
				0,
				4.440892098500626e-16
			]
		},
		{
			"children":[
				6,
				7
			],
			"name":"Bone.001",
			"rotation":[
				1.9412744745039845e-09,
				-4.3378803851436414e-17,
				-4.3378800542713964e-17,
				1
			],
			"translation":[
				1.3856601877786762e-25,
				0.9291768074035645,
				0
			]
		},
		{
			"mesh":4,
			"name":"Cube.002",
			"rotation":[
				5.501411548536339e-10,
				-0.3826834261417389,
				-3.3883968176854633e-17,
				0.9238795638084412
			],
			"scale":[
				0.16332103312015533,
				0.16332103312015533,
				0.16332103312015533
			]
		},
		{
			"children":[
				8,
				9
			],
			"name":"Bone",
			"rotation":[
				-5.082641529874365e-10,
				3.6675739140168054e-17,
				3.6675739140168054e-17,
				1
			]
		},
		{
			"name":"neutral_bone",
			"rotation":[
				-0.7071067690849304,
				0,
				0,
				0.7071067690849304
			]
		},
		{
			"mesh":2,
			"name":"Cube.004",
			"skin":0
		},
		{
			"children":[
				12,
				10,
				11
			],
			"name":"Armature"
		}
	],
	"meshes":[
		{
			"name":"Cube.001",
			"primitives":[
				{
					"attributes":{
						"POSITION":0,
						"NORMAL":1,
						"TEXCOORD_0":2
					},
					"indices":3
				}
			]
		},
		{
			"name":"Cube.002",
			"primitives":[
				{
					"attributes":{
						"POSITION":4,
						"NORMAL":5,
						"TEXCOORD_0":6,
						"TANGENT":7
					},
					"indices":8
				}
			]
		},
		{
			"name":"Cube.008",
			"primitives":[
				{
					"attributes":{
						"POSITION":9,
						"NORMAL":10,
						"TEXCOORD_0":11,
						"TANGENT":12,
						"JOINTS_0":13,
						"WEIGHTS_0":14
					},
					"indices":15
				}
			]
		},
		{
			"name":"Cube.005",
			"primitives":[
				{
					"attributes":{
						"POSITION":17,
						"NORMAL":18,
						"TEXCOORD_0":19,
						"TANGENT":20
					},
					"indices":21
				}
			]
		},
		{
			"name":"Cube.004",
			"primitives":[
				{
					"attributes":{
						"POSITION":22,
						"NORMAL":23,
						"TEXCOORD_0":24,
						"TANGENT":25
					},
					"indices":26
				}
			]
		}
	],
	"skins":[
		{
			"inverseBindMatrices":16,
			"joints":[
				10,
				8,
				6,
				3,
				2,
				5,
				4,
				11
			],
			"name":"Armature"
		}
	],
	"accessors":[
		{
			"bufferView":0,
			"componentType":5126,
			"count":78,
			"max":[
				1,
				1.4732493162155151,
				-0.6000000238418579
			],
			"min":[
				-1,
				-1,
				-1
			],
			"type":"VEC3"
		},
		{
			"bufferView":1,
			"componentType":5126,
			"count":78,
			"type":"VEC3"
		},
		{
			"bufferView":2,
			"componentType":5126,
			"count":78,
			"type":"VEC2"
		},
		{
			"bufferView":3,
			"componentType":5123,
			"count":144,
			"type":"SCALAR"
		},
		{
			"bufferView":4,
			"componentType":5126,
			"count":24,
			"max":[
				0.8395062685012817,
				0.3801712095737457,
				2.4086222648620605
			],
			"min":[
				-0.8395062685012817,
				9.313225746154785e-10,
				-0.3076416254043579
			],
			"type":"VEC3"
		},
		{
			"bufferView":5,
			"componentType":5126,
			"count":24,
			"type":"VEC3"
		},
		{
			"bufferView":6,
			"componentType":5126,
			"count":24,
			"type":"VEC2"
		},
		{
			"bufferView":7,
			"componentType":5126,
			"count":24,
			"type":"VEC4"
		},
		{
			"bufferView":8,
			"componentType":5123,
			"count":72,
			"type":"SCALAR"
		},
		{
			"bufferView":9,
			"componentType":5126,
			"count":84,
			"max":[
				0.08523032069206238,
				2.2692344188690186,
				0.2902717590332031
			],
			"min":[
				-0.08523032069206238,
				1.6885648965835571,
				-0.14217320084571838
			],
			"type":"VEC3"
		},
		{
			"bufferView":10,
			"componentType":5126,
			"count":84,
			"type":"VEC3"
		},
		{
			"bufferView":11,
			"componentType":5126,
			"count":84,
			"type":"VEC2"
		},
		{
			"bufferView":12,
			"componentType":5126,
			"count":84,
			"type":"VEC4"
		},
		{
			"bufferView":13,
			"componentType":5121,
			"count":84,
			"type":"VEC4"
		},
		{
			"bufferView":14,
			"componentType":5126,
			"count":84,
			"type":"VEC4"
		},
		{
			"bufferView":15,
			"componentType":5123,
			"count":132,
			"type":"SCALAR"
		},
		{
			"bufferView":16,
			"componentType":5126,
			"count":8,
			"type":"MAT4"
		},
		{
			"bufferView":17,
			"componentType":5126,
			"count":40,
			"max":[
				1,
				7.0593180656433105,
				1
			],
			"min":[
				-1,
				-0.7520793676376343,
				-1
			],
			"type":"VEC3"
		},
		{
			"bufferView":18,
			"componentType":5126,
			"count":40,
			"type":"VEC3"
		},
		{
			"bufferView":19,
			"componentType":5126,
			"count":40,
			"type":"VEC2"
		},
		{
			"bufferView":20,
			"componentType":5126,
			"count":40,
			"type":"VEC4"
		},
		{
			"bufferView":21,
			"componentType":5123,
			"count":48,
			"type":"SCALAR"
		},
		{
			"bufferView":22,
			"componentType":5126,
			"count":40,
			"max":[
				1,
				6.058396339416504,
				1
			],
			"min":[
				-1,
				-0.7520788908004761,
				-1
			],
			"type":"VEC3"
		},
		{
			"bufferView":23,
			"componentType":5126,
			"count":40,
			"type":"VEC3"
		},
		{
			"bufferView":24,
			"componentType":5126,
			"count":40,
			"type":"VEC2"
		},
		{
			"bufferView":25,
			"componentType":5126,
			"count":40,
			"type":"VEC4"
		},
		{
			"bufferView":26,
			"componentType":5123,
			"count":48,
			"type":"SCALAR"
		}
	],
	"bufferViews":[
		{
			"buffer":0,
			"byteLength":936,
			"byteOffset":0,
			"target":34962
		},
		{
			"buffer":0,
			"byteLength":936,
			"byteOffset":936,
			"target":34962
		},
		{
			"buffer":0,
			"byteLength":624,
			"byteOffset":1872,
			"target":34962
		},
		{
			"buffer":0,
			"byteLength":288,
			"byteOffset":2496,
			"target":34963
		},
		{
			"buffer":0,
			"byteLength":288,
			"byteOffset":2784,
			"target":34962
		},
		{
			"buffer":0,
			"byteLength":288,
			"byteOffset":3072,
			"target":34962
		},
		{
			"buffer":0,
			"byteLength":192,
			"byteOffset":3360,
			"target":34962
		},
		{
			"buffer":0,
			"byteLength":384,
			"byteOffset":3552,
			"target":34962
		},
		{
			"buffer":0,
			"byteLength":144,
			"byteOffset":3936,
			"target":34963
		},
		{
			"buffer":0,
			"byteLength":1008,
			"byteOffset":4080,
			"target":34962
		},
		{
			"buffer":0,
			"byteLength":1008,
			"byteOffset":5088,
			"target":34962
		},
		{
			"buffer":0,
			"byteLength":672,
			"byteOffset":6096,
			"target":34962
		},
		{
			"buffer":0,
			"byteLength":1344,
			"byteOffset":6768,
			"target":34962
		},
		{
			"buffer":0,
			"byteLength":336,
			"byteOffset":8112,
			"target":34962
		},
		{
			"buffer":0,
			"byteLength":1344,
			"byteOffset":8448,
			"target":34962
		},
		{
			"buffer":0,
			"byteLength":264,
			"byteOffset":9792,
			"target":34963
		},
		{
			"buffer":0,
			"byteLength":512,
			"byteOffset":10056
		},
		{
			"buffer":0,
			"byteLength":480,
			"byteOffset":10568,
			"target":34962
		},
		{
			"buffer":0,
			"byteLength":480,
			"byteOffset":11048,
			"target":34962
		},
		{
			"buffer":0,
			"byteLength":320,
			"byteOffset":11528,
			"target":34962
		},
		{
			"buffer":0,
			"byteLength":640,
			"byteOffset":11848,
			"target":34962
		},
		{
			"buffer":0,
			"byteLength":96,
			"byteOffset":12488,
			"target":34963
		},
		{
			"buffer":0,
			"byteLength":480,
			"byteOffset":12584,
			"target":34962
		},
		{
			"buffer":0,
			"byteLength":480,
			"byteOffset":13064,
			"target":34962
		},
		{
			"buffer":0,
			"byteLength":320,
			"byteOffset":13544,
			"target":34962
		},
		{
			"buffer":0,
			"byteLength":640,
			"byteOffset":13864,
			"target":34962
		},
		{
			"buffer":0,
			"byteLength":96,
			"byteOffset":14504,
			"target":34963
		}
	],
	"buffers":[
		{
			"byteLength":14600,
			"uri":"Eric-0b34a4677779112ed6d8b8a0ba1d3d36.bin"
		}
	]
}
