{
	"asset":{
		"generator":"Khronos glTF Blender I/O v5.0.21",
		"version":"2.0"
	},
	"extensionsUsed":[
		"KHR_materials_unlit",
		"KHR_lights_punctual"
	],
	"extensionsRequired":[
		"KHR_lights_punctual"
	],
	"extensions":{
		"KHR_lights_punctual":{
			"lights":[
				{
					"color":[
						1,
						1,
						1
					],
					"intensity":723.6775262388481,
					"type":"point",
					"name":"Point"
				}
			]
		}
	},
	"scene":0,
	"scenes":[
		{
			"name":"Scene",
			"nodes":[
				3,
				4,
				5
			]
		}
	],
	"nodes":[
		{
			"mesh":0,
			"name":"Cylinder",
			"rotation":[
				0,
				0,
				-0.7071068286895752,
				0.7071068286895752
			],
			"scale":[
				0.10000002384185791,
				3.9922022819519043,
				0.10000002384185791
			],
			"translation":[
				0,
				0,
				1
			]
		},
		{
			"mesh":1,
			"name":"Cylinder.001",
			"rotation":[
				0.7071068286895752,
				0,
				0,
				0.7071068286895752
			],
			"scale":[
				0.050000011920928955,
				1,
				0.050000011920928955
			],
			"translation":[
				0,
				0,
				1.5
			]
		},
		{
			"mesh":2,
			"name":"Torus",
			"scale":[
				0.09441729635000229,
				0.12393826991319656,
				0.12393826991319656
			],
			"translation":[
				0,
				0,
				1.4074997901916504
			]
		},
		{
			"children":[
				0,
				1,
				2
			],
			"mesh":3,
			"name":"Plane",
			"scale":[
				1.3126648664474487,
				1,
				1
			],
			"translation":[
				0,
				0,
				-7.490593910217285
			]
		},
		{
			"camera":0,
			"name":"Camera",
			"rotation":[
				-0.7071068286895752,
				0,
				0,
				0.7071068286895752
			],
			"translation":[
				0,
				70.66045379638672,
				0
			]
		},
		{
			"extensions":{
				"KHR_lights_punctual":{
					"light":0
				}
			},
			"name":"Point",
			"rotation":[
				-0.7071068286895752,
				0,
				0,
				0.7071068286895752
			],
			"translation":[
				0,
				14.7991304397583,
				0
			]
		}
	],
	"cameras":[
		{
			"name":"Camera.001",
			"orthographic":{
				"xmag":5.699999809265137,
				"ymag":5.699999809265137,
				"zfar":1000,
				"znear":0.10000000149011612
			},
			"type":"orthographic"
		}
	],
	"animations":[
		{
			"channels":[
				{
					"sampler":0,
					"target":{
						"node":3,
						"path":"translation"
					}
				},
				{
					"sampler":1,
					"target":{
						"node":3,
						"path":"rotation"
					}
				},
				{
					"sampler":2,
					"target":{
						"node":3,
						"path":"scale"
					}
				}
			],
			"name":"PlaneAction",
			"samplers":[
				{
					"input":17,
					"interpolation":"LINEAR",
					"output":18
				},
				{
					"input":19,
					"interpolation":"STEP",
					"output":20
				},
				{
					"input":19,
					"interpolation":"STEP",
					"output":21
				}
			]
		}
	],
	"materials":[
		{
			"doubleSided":true,
			"name":"Material",
			"pbrMetallicRoughness":{
				"baseColorFactor":[
					0.13655076920986176,
					0.13655076920986176,
					0.13655076920986176,
					1
				],
				"roughnessFactor":0.5909095406532288
			}
		},
		{
			"doubleSided":true,
			"name":"Material.002",
			"pbrMetallicRoughness":{
				"baseColorFactor":[
					0.47031694650650024,
					0.32981809973716736,
					0.17528146505355835,
					1
				],
				"metallicFactor":0,
				"roughnessFactor":0.5
			}
		},
		{
			"doubleSided":true,
			"name":"Material.003",
			"pbrMetallicRoughness":{
				"metallicFactor":0,
				"roughnessFactor":0.7863636016845703
			}
		},
		{
			"doubleSided":true,
			"extensions":{
				"KHR_materials_unlit":{}
			},
			"name":"Material.001",
			"pbrMetallicRoughness":{
				"metallicFactor":0,
				"roughnessFactor":0.9
			}
		}
	],
	"meshes":[
		{
			"name":"Cylinder",
			"primitives":[
				{
					"attributes":{
						"POSITION":0,
						"NORMAL":1,
						"TEXCOORD_0":2
					},
					"indices":3,
					"material":0
				}
			]
		},
		{
			"name":"Cylinder.001",
			"primitives":[
				{
					"attributes":{
						"POSITION":4,
						"NORMAL":5,
						"TEXCOORD_0":6
					},
					"indices":3,
					"material":1
				}
			]
		},
		{
			"name":"Torus",
			"primitives":[
				{
					"attributes":{
						"POSITION":7,
						"NORMAL":8,
						"TEXCOORD_0":9,
						"TANGENT":10
					},
					"indices":11,
					"material":2
				}
			]
		},
		{
			"name":"Plane",
			"primitives":[
				{
					"attributes":{
						"POSITION":12,
						"NORMAL":13,
						"TEXCOORD_0":14,
						"TANGENT":15
					},
					"indices":16,
					"material":3
				}
			]
		}
	],
	"accessors":[
		{
			"bufferView":0,
			"componentType":5126,
			"count":130,
			"max":[
				1,
				1,
				1
			],
			"min":[
				-1,
				-1,
				-1
			],
			"type":"VEC3"
		},
		{
			"bufferView":1,
			"componentType":5126,
			"count":130,
			"type":"VEC3"
		},
		{
			"bufferView":2,
			"componentType":5126,
			"count":130,
			"type":"VEC2"
		},
		{
			"bufferView":3,
			"componentType":5123,
			"count":372,
			"type":"SCALAR"
		},
		{
			"bufferView":4,
			"componentType":5126,
			"count":130,
			"max":[
				0.4749491214752197,
				-0.21621248126029968,
				0.47494933009147644
			],
			"min":[
				-0.4749491214752197,
				-0.5,
				-0.4749494791030884
			],
			"type":"VEC3"
		},
		{
			"bufferView":5,
			"componentType":5126,
			"count":130,
			"type":"VEC3"
		},
		{
			"bufferView":6,
			"componentType":5126,
			"count":130,
			"type":"VEC2"
		},
		{
			"bufferView":7,
			"componentType":5126,
			"count":637,
			"max":[
				1.25,
				0.25,
				1.25
			],
			"min":[
				-1.25,
				-0.25,
				-1.25
			],
			"type":"VEC3"
		},
		{
			"bufferView":8,
			"componentType":5126,
			"count":637,
			"type":"VEC3"
		},
		{
			"bufferView":9,
			"componentType":5126,
			"count":637,
			"type":"VEC2"
		},
		{
			"bufferView":10,
			"componentType":5126,
			"count":637,
			"type":"VEC4"
		},
		{
			"bufferView":11,
			"componentType":5123,
			"count":3456,
			"type":"SCALAR"
		},
		{
			"bufferView":12,
			"componentType":5126,
			"count":4,
			"max":[
				3.9000000953674316,
				0,
				1
			],
			"min":[
				-3.9000000953674316,
				0,
				-10.709617614746094
			],
			"type":"VEC3"
		},
		{
			"bufferView":13,
			"componentType":5126,
			"count":4,
			"type":"VEC3"
		},
		{
			"bufferView":14,
			"componentType":5126,
			"count":4,
			"type":"VEC2"
		},
		{
			"bufferView":15,
			"componentType":5126,
			"count":4,
			"type":"VEC4"
		},
		{
			"bufferView":16,
			"componentType":5123,
			"count":6,
			"type":"SCALAR"
		},
		{
			"bufferView":17,
			"componentType":5126,
			"count":12,
			"max":[
				0.5
			],
			"min":[
				0.041666666666666664
			],
			"type":"SCALAR"
		},
		{
			"bufferView":18,
			"componentType":5126,
			"count":12,
			"type":"VEC3"
		},
		{
			"bufferView":19,
			"componentType":5126,
			"count":2,
			"max":[
				0.5
			],
			"min":[
				0.041666666666666664
			],
			"type":"SCALAR"
		},
		{
			"bufferView":20,
			"componentType":5126,
			"count":2,
			"type":"VEC4"
		},
		{
			"bufferView":21,
			"componentType":5126,
			"count":2,
			"type":"VEC3"
		}
	],
	"bufferViews":[
		{
			"buffer":0,
			"byteLength":1560,
			"byteOffset":0,
			"target":34962
		},
		{
			"buffer":0,
			"byteLength":1560,
			"byteOffset":1560,
			"target":34962
		},
		{
			"buffer":0,
			"byteLength":1040,
			"byteOffset":3120,
			"target":34962
		},
		{
			"buffer":0,
			"byteLength":744,
			"byteOffset":4160,
			"target":34963
		},
		{
			"buffer":0,
			"byteLength":1560,
			"byteOffset":4904,
			"target":34962
		},
		{
			"buffer":0,
			"byteLength":1560,
			"byteOffset":6464,
			"target":34962
		},
		{
			"buffer":0,
			"byteLength":1040,
			"byteOffset":8024,
			"target":34962
		},
		{
			"buffer":0,
			"byteLength":7644,
			"byteOffset":9064,
			"target":34962
		},
		{
			"buffer":0,
			"byteLength":7644,
			"byteOffset":16708,
			"target":34962
		},
		{
			"buffer":0,
			"byteLength":5096,
			"byteOffset":24352,
			"target":34962
		},
		{
			"buffer":0,
			"byteLength":10192,
			"byteOffset":29448,
			"target":34962
		},
		{
			"buffer":0,
			"byteLength":6912,
			"byteOffset":39640,
			"target":34963
		},
		{
			"buffer":0,
			"byteLength":48,
			"byteOffset":46552,
			"target":34962
		},
		{
			"buffer":0,
			"byteLength":48,
			"byteOffset":46600,
			"target":34962
		},
		{
			"buffer":0,
			"byteLength":32,
			"byteOffset":46648,
			"target":34962
		},
		{
			"buffer":0,
			"byteLength":64,
			"byteOffset":46680,
			"target":34962
		},
		{
			"buffer":0,
			"byteLength":12,
			"byteOffset":46744,
			"target":34963
		},
		{
			"buffer":0,
			"byteLength":48,
			"byteOffset":46756
		},
		{
			"buffer":0,
			"byteLength":144,
			"byteOffset":46804
		},
		{
			"buffer":0,
			"byteLength":8,
			"byteOffset":46948
		},
		{
			"buffer":0,
			"byteLength":32,
			"byteOffset":46956
		},
		{
			"buffer":0,
			"byteLength":24,
			"byteOffset":46988
		}
	],
	"buffers":[
		{
			"byteLength":47012,
			"uri":"PauseMenu-951b9ff00056649041bcf71f2387eb1f.bin"
		}
	]
}
