{
	"asset":{
		"generator":"Khronos glTF Blender I/O v5.0.21",
		"version":"2.0"
	},
	"extensionsUsed":[
		"KHR_lights_punctual"
	],
	"extensionsRequired":[
		"KHR_lights_punctual"
	],
	"extensions":{
		"KHR_lights_punctual":{
			"lights":[
				{
					"color":[
						1,
						1,
						1
					],
					"intensity":160.5873375797224,
					"type":"point",
					"name":"Point"
				}
			]
		}
	},
	"scene":0,
	"scenes":[
		{
			"name":"Scene",
			"nodes":[
				0,
				1,
				2,
				3,
				4,
				5,
				6,
				7
			]
		}
	],
	"nodes":[
		{
			"camera":0,
			"name":"Camera",
			"rotation":[
				-0.7071068286895752,
				0,
				0,
				0.7071068286895752
			],
			"translation":[
				0,
				3,
				-1.3090912103652954
			]
		},
		{
			"mesh":0,
			"name":"Cube",
			"translation":[
				0,
				-0.050000011920928955,
				-1.4496864080429077
			]
		},
		{
			"mesh":1,
			"name":"Cube.001",
			"scale":[
				1,
				0.6955090165138245,
				1
			],
			"translation":[
				0.20550565421581268,
				0.13322797417640686,
				-1.4496864080429077
			]
		},
		{
			"mesh":2,
			"name":"Plane",
			"scale":[
				1,
				1,
				0.5603973269462585
			],
			"translation":[
				-1.565270185470581,
				-0.012878015637397766,
				-1.4496864080429077
			]
		},
		{
			"mesh":3,
			"name":"Plane.001",
			"scale":[
				1,
				1,
				0.5402452349662781
			],
			"translation":[
				0.8999998569488525,
				-0.10000002384185791,
				-2.4465291500091553
			]
		},
		{
			"mesh":4,
			"name":"Cube.002",
			"translation":[
				0,
				-0.04904711991548538,
				-1.4496864080429077
			]
		},
		{
			"extensions":{
				"KHR_lights_punctual":{
					"light":0
				}
			},
			"name":"Point",
			"rotation":[
				-0.7071068286895752,
				0,
				0,
				0.7071068286895752
			],
			"translation":[
				-6.604086875915527,
				6.285764694213867,
				2.8273611068725586
			]
		},
		{
			"mesh":5,
			"name":"Plane.002",
			"scale":[
				1.2020739316940308,
				1,
				0.6180200576782227
			],
			"translation":[
				-0.1308492124080658,
				0.1579165756702423,
				-1.415517807006836
			]
		}
	],
	"cameras":[
		{
			"name":"Camera.001",
			"orthographic":{
				"xmag":3,
				"ymag":1.5,
				"zfar":1000,
				"znear":0.10000000149011612
			},
			"type":"orthographic"
		}
	],
	"materials":[
		{
			"doubleSided":true,
			"name":"Material.001",
			"pbrMetallicRoughness":{
				"baseColorFactor":[
					0.022869935259222984,
					0.2691146433353424,
					0.022869935259222984,
					1
				],
				"metallicFactor":0,
				"roughnessFactor":0.5
			}
		},
		{
			"doubleSided":true,
			"name":"Material.002",
			"pbrMetallicRoughness":{
				"baseColorFactor":[
					1,
					0.697791337966919,
					0.1417471319437027,
					1
				],
				"roughnessFactor":0.48636364936828613
			}
		},
		{
			"doubleSided":true,
			"name":"Material",
			"pbrMetallicRoughness":{
				"baseColorFactor":[
					0,
					0,
					0,
					1
				],
				"metallicFactor":0,
				"roughnessFactor":0.5051020383834839
			}
		},
		{
			"doubleSided":true,
			"name":"ribon.001",
			"pbrMetallicRoughness":{
				"metallicFactor":0,
				"roughnessFactor":0.41818180680274963
			}
		},
		{
			"doubleSided":true,
			"name":"ribon",
			"pbrMetallicRoughness":{
				"metallicFactor":0,
				"roughnessFactor":0.41818198561668396
			}
		},
		{
			"doubleSided":true,
			"name":"Material.003",
			"pbrMetallicRoughness":{
				"baseColorFactor":[
					0,
					0.005502328742295504,
					0.12574706971645355,
					1
				],
				"metallicFactor":0,
				"roughnessFactor":0.4000000059604645
			}
		}
	],
	"meshes":[
		{
			"name":"Cube.001",
			"primitives":[
				{
					"attributes":{
						"POSITION":0,
						"NORMAL":1,
						"TEXCOORD_0":2
					},
					"indices":3,
					"material":0
				},
				{
					"attributes":{
						"POSITION":4,
						"NORMAL":5,
						"TEXCOORD_0":6
					},
					"indices":7,
					"material":1
				}
			]
		},
		{
			"name":"Cube.002",
			"primitives":[
				{
					"attributes":{
						"POSITION":8,
						"NORMAL":9,
						"TEXCOORD_0":10,
						"TANGENT":11
					},
					"indices":12,
					"material":2
				}
			]
		},
		{
			"name":"Plane",
			"primitives":[
				{
					"attributes":{
						"POSITION":13,
						"NORMAL":14,
						"TEXCOORD_0":15,
						"TANGENT":16
					},
					"indices":17,
					"material":3
				}
			]
		},
		{
			"name":"Plane.001",
			"primitives":[
				{
					"attributes":{
						"POSITION":18,
						"NORMAL":19,
						"TEXCOORD_0":20,
						"TANGENT":21
					},
					"indices":22,
					"material":4
				}
			]
		},
		{
			"name":"Cube.003",
			"primitives":[
				{
					"attributes":{
						"POSITION":23,
						"NORMAL":24,
						"TEXCOORD_0":25,
						"TANGENT":26
					},
					"indices":27,
					"material":1
				}
			]
		},
		{
			"name":"Plane.003",
			"primitives":[
				{
					"attributes":{
						"POSITION":28,
						"NORMAL":29,
						"TEXCOORD_0":30,
						"TANGENT":31
					},
					"indices":32,
					"material":5
				}
			]
		}
	],
	"accessors":[
		{
			"bufferView":0,
			"componentType":5126,
			"count":338,
			"max":[
				2.5999999046325684,
				0.050000011920928955,
				0.9999998807907104
			],
			"min":[
				-2.6000003814697266,
				-0.050000011920928955,
				-1.0000001192092896
			],
			"type":"VEC3"
		},
		{
			"bufferView":1,
			"componentType":5126,
			"count":338,
			"type":"VEC3"
		},
		{
			"bufferView":2,
			"componentType":5126,
			"count":338,
			"type":"VEC2"
		},
		{
			"bufferView":3,
			"componentType":5123,
			"count":1044,
			"type":"SCALAR"
		},
		{
			"bufferView":4,
			"componentType":5126,
			"count":264,
			"max":[
				2.4952120780944824,
				0.050000011920928955,
				0.8831827640533447
			],
			"min":[
				-2.4952123165130615,
				-0.050000011920928955,
				-0.8831827640533447
			],
			"type":"VEC3"
		},
		{
			"bufferView":5,
			"componentType":5126,
			"count":264,
			"type":"VEC3"
		},
		{
			"bufferView":6,
			"componentType":5126,
			"count":264,
			"type":"VEC2"
		},
		{
			"bufferView":7,
			"componentType":5123,
			"count":768,
			"type":"SCALAR"
		},
		{
			"bufferView":8,
			"componentType":5126,
			"count":407,
			"max":[
				1.7707757949829102,
				0.06209736689925194,
				0.8298454284667969
			],
			"min":[
				-1.7707757949829102,
				-0.17378832399845123,
				-0.8298454284667969
			],
			"type":"VEC3"
		},
		{
			"bufferView":9,
			"componentType":5126,
			"count":407,
			"type":"VEC3"
		},
		{
			"bufferView":10,
			"componentType":5126,
			"count":407,
			"type":"VEC2"
		},
		{
			"bufferView":11,
			"componentType":5126,
			"count":407,
			"type":"VEC4"
		},
		{
			"bufferView":12,
			"componentType":5123,
			"count":1482,
			"type":"SCALAR"
		},
		{
			"bufferView":13,
			"componentType":5126,
			"count":46,
			"max":[
				0.43101873993873596,
				0.1967383474111557,
				1
			],
			"min":[
				-0.6263980865478516,
				-0.12196136265993118,
				-1
			],
			"type":"VEC3"
		},
		{
			"bufferView":14,
			"componentType":5126,
			"count":46,
			"type":"VEC3"
		},
		{
			"bufferView":15,
			"componentType":5126,
			"count":46,
			"type":"VEC2"
		},
		{
			"bufferView":16,
			"componentType":5126,
			"count":46,
			"type":"VEC4"
		},
		{
			"bufferView":17,
			"componentType":5123,
			"count":126,
			"type":"SCALAR"
		},
		{
			"bufferView":18,
			"componentType":5126,
			"count":24,
			"max":[
				0.9999998807907104,
				0.4805077314376831,
				0
			],
			"min":[
				-1,
				0.10432954132556915,
				-1.9214296340942383
			],
			"type":"VEC3"
		},
		{
			"bufferView":19,
			"componentType":5126,
			"count":24,
			"type":"VEC3"
		},
		{
			"bufferView":20,
			"componentType":5126,
			"count":24,
			"type":"VEC2"
		},
		{
			"bufferView":21,
			"componentType":5126,
			"count":24,
			"type":"VEC4"
		},
		{
			"bufferView":22,
			"componentType":5123,
			"count":66,
			"type":"SCALAR"
		},
		{
			"bufferView":23,
			"componentType":5126,
			"count":368,
			"max":[
				2.5411276817321777,
				0.05000001937150955,
				0.9290980100631714
			],
			"min":[
				-2.5411276817321777,
				0.050000011920928955,
				-0.9290980100631714
			],
			"type":"VEC3"
		},
		{
			"bufferView":24,
			"componentType":5126,
			"count":368,
			"type":"VEC3"
		},
		{
			"bufferView":25,
			"componentType":5126,
			"count":368,
			"type":"VEC2"
		},
		{
			"bufferView":26,
			"componentType":5126,
			"count":368,
			"type":"VEC4"
		},
		{
			"bufferView":27,
			"componentType":5123,
			"count":768,
			"type":"SCALAR"
		},
		{
			"bufferView":28,
			"componentType":5126,
			"count":4,
			"max":[
				1.5621867179870605,
				0,
				1
			],
			"min":[
				-1,
				0,
				-1
			],
			"type":"VEC3"
		},
		{
			"bufferView":29,
			"componentType":5126,
			"count":4,
			"type":"VEC3"
		},
		{
			"bufferView":30,
			"componentType":5126,
			"count":4,
			"type":"VEC2"
		},
		{
			"bufferView":31,
			"componentType":5126,
			"count":4,
			"type":"VEC4"
		},
		{
			"bufferView":32,
			"componentType":5123,
			"count":6,
			"type":"SCALAR"
		}
	],
	"bufferViews":[
		{
			"buffer":0,
			"byteLength":4056,
			"byteOffset":0,
			"target":34962
		},
		{
			"buffer":0,
			"byteLength":4056,
			"byteOffset":4056,
			"target":34962
		},
		{
			"buffer":0,
			"byteLength":2704,
			"byteOffset":8112,
			"target":34962
		},
		{
			"buffer":0,
			"byteLength":2088,
			"byteOffset":10816,
			"target":34963
		},
		{
			"buffer":0,
			"byteLength":3168,
			"byteOffset":12904,
			"target":34962
		},
		{
			"buffer":0,
			"byteLength":3168,
			"byteOffset":16072,
			"target":34962
		},
		{
			"buffer":0,
			"byteLength":2112,
			"byteOffset":19240,
			"target":34962
		},
		{
			"buffer":0,
			"byteLength":1536,
			"byteOffset":21352,
			"target":34963
		},
		{
			"buffer":0,
			"byteLength":4884,
			"byteOffset":22888,
			"target":34962
		},
		{
			"buffer":0,
			"byteLength":4884,
			"byteOffset":27772,
			"target":34962
		},
		{
			"buffer":0,
			"byteLength":3256,
			"byteOffset":32656,
			"target":34962
		},
		{
			"buffer":0,
			"byteLength":6512,
			"byteOffset":35912,
			"target":34962
		},
		{
			"buffer":0,
			"byteLength":2964,
			"byteOffset":42424,
			"target":34963
		},
		{
			"buffer":0,
			"byteLength":552,
			"byteOffset":45388,
			"target":34962
		},
		{
			"buffer":0,
			"byteLength":552,
			"byteOffset":45940,
			"target":34962
		},
		{
			"buffer":0,
			"byteLength":368,
			"byteOffset":46492,
			"target":34962
		},
		{
			"buffer":0,
			"byteLength":736,
			"byteOffset":46860,
			"target":34962
		},
		{
			"buffer":0,
			"byteLength":252,
			"byteOffset":47596,
			"target":34963
		},
		{
			"buffer":0,
			"byteLength":288,
			"byteOffset":47848,
			"target":34962
		},
		{
			"buffer":0,
			"byteLength":288,
			"byteOffset":48136,
			"target":34962
		},
		{
			"buffer":0,
			"byteLength":192,
			"byteOffset":48424,
			"target":34962
		},
		{
			"buffer":0,
			"byteLength":384,
			"byteOffset":48616,
			"target":34962
		},
		{
			"buffer":0,
			"byteLength":132,
			"byteOffset":49000,
			"target":34963
		},
		{
			"buffer":0,
			"byteLength":4416,
			"byteOffset":49132,
			"target":34962
		},
		{
			"buffer":0,
			"byteLength":4416,
			"byteOffset":53548,
			"target":34962
		},
		{
			"buffer":0,
			"byteLength":2944,
			"byteOffset":57964,
			"target":34962
		},
		{
			"buffer":0,
			"byteLength":5888,
			"byteOffset":60908,
			"target":34962
		},
		{
			"buffer":0,
			"byteLength":1536,
			"byteOffset":66796,
			"target":34963
		},
		{
			"buffer":0,
			"byteLength":48,
			"byteOffset":68332,
			"target":34962
		},
		{
			"buffer":0,
			"byteLength":48,
			"byteOffset":68380,
			"target":34962
		},
		{
			"buffer":0,
			"byteLength":32,
			"byteOffset":68428,
			"target":34962
		},
		{
			"buffer":0,
			"byteLength":64,
			"byteOffset":68460,
			"target":34962
		},
		{
			"buffer":0,
			"byteLength":12,
			"byteOffset":68524,
			"target":34963
		}
	],
	"buffers":[
		{
			"byteLength":68536,
			"uri":"FPS-43f5e06a453345b416b7f8da56d4a4df.bin"
		}
	]
}
