{
	"asset":{
		"generator":"Khronos glTF Blender I/O v5.0.21",
		"version":"2.0"
	},
	"extensionsUsed":[
		"KHR_lights_punctual"
	],
	"extensionsRequired":[
		"KHR_lights_punctual"
	],
	"extensions":{
		"KHR_lights_punctual":{
			"lights":[
				{
					"color":[
						1,
						1,
						1
					],
					"intensity":15.199297065276005,
					"type":"point",
					"name":"Point"
				}
			]
		}
	},
	"scene":0,
	"scenes":[
		{
			"name":"Scene",
			"nodes":[
				0,
				1,
				2,
				3,
				4,
				5,
				6,
				7,
				8,
				9,
				10,
				11
			]
		}
	],
	"nodes":[
		{
			"mesh":0,
			"name":"Circle",
			"translation":[
				-1.3800781965255737,
				0,
				0.3341260254383087
			]
		},
		{
			"mesh":1,
			"name":"Torus.002",
			"scale":[
				1,
				0.6056627035140991,
				1
			],
			"translation":[
				-1.3800781965255737,
				0,
				0.3341260254383087
			]
		},
		{
			"extensions":{
				"KHR_lights_punctual":{
					"light":0
				}
			},
			"name":"Point",
			"rotation":[
				-0.7071068286895752,
				0,
				0,
				0.7071068286895752
			],
			"translation":[
				0.8271905183792114,
				1.8302432298660278,
				-0.8718774318695068
			]
		},
		{
			"camera":0,
			"name":"Camera",
			"rotation":[
				-0.7071068286895752,
				0,
				0,
				0.7071068286895752
			],
			"translation":[
				0,
				4.157658576965332,
				0
			]
		},
		{
			"mesh":2,
			"name":"pipes",
			"rotation":[
				0,
				0,
				-0.7071068286895752,
				0.7071068286895752
			],
			"translation":[
				-0.18752533197402954,
				-0.3420026898384094,
				0.19527508318424225
			]
		},
		{
			"mesh":3,
			"name":"Cylinder.004",
			"rotation":[
				-0.5,
				0.5,
				-0.5,
				0.5000000596046448
			],
			"scale":[
				0.21263250708580017,
				0.21263250708580017,
				0.21263250708580017
			],
			"translation":[
				1.7118533849716187,
				-0.3420027494430542,
				1.0580291748046875
			]
		},
		{
			"mesh":4,
			"name":"Cube",
			"translation":[
				-0.10675667226314545,
				-1.0464391708374023,
				1.4292185306549072
			]
		},
		{
			"mesh":5,
			"name":"screw",
			"translation":[
				0.5278540849685669,
				-0.046439170837402344,
				0.7946077585220337
			]
		},
		{
			"mesh":6,
			"name":"screw.001",
			"translation":[
				-1.3800777196884155,
				0.0673566684126854,
				0.3341260850429535
			]
		},
		{
			"mesh":7,
			"name":"Plane",
			"rotation":[
				0,
				0.2588190734386444,
				0,
				0.965925931930542
			],
			"translation":[
				-1.3800777196884155,
				0.06058942526578903,
				0.3341260850429535
			]
		},
		{
			"mesh":8,
			"name":"Plane.001",
			"rotation":[
				0,
				0.2623612582683563,
				0,
				0.9649698138237
			],
			"scale":[
				0.1913694143295288,
				0.12844792008399963,
				0.1913694143295288
			],
			"translation":[
				-1.7724382877349854,
				-0.11523675173521042,
				-0.3340902030467987
			]
		},
		{
			"mesh":9,
			"name":"Plane.002",
			"rotation":[
				0,
				-0.7071068286895752,
				0,
				0.7071068286895752
			],
			"scale":[
				0.1913694143295288,
				0.12844792008399963,
				0.1913694143295288
			],
			"translation":[
				-0.6006659269332886,
				0,
				0.3341260254383087
			]
		}
	],
	"cameras":[
		{
			"name":"Camera.001",
			"orthographic":{
				"xmag":1.9499999284744263,
				"ymag":0.9749999642372131,
				"zfar":1000,
				"znear":0.10000000149011612
			},
			"type":"orthographic"
		}
	],
	"animations":[
		{
			"channels":[
				{
					"sampler":0,
					"target":{
						"node":9,
						"path":"translation"
					}
				},
				{
					"sampler":1,
					"target":{
						"node":9,
						"path":"rotation"
					}
				},
				{
					"sampler":2,
					"target":{
						"node":9,
						"path":"scale"
					}
				}
			],
			"name":"PlaneAction",
			"samplers":[
				{
					"input":43,
					"interpolation":"LINEAR",
					"output":44
				},
				{
					"input":45,
					"interpolation":"LINEAR",
					"output":46
				},
				{
					"input":43,
					"interpolation":"STEP",
					"output":47
				}
			]
		}
	],
	"materials":[
		{
			"doubleSided":true,
			"name":"Material",
			"normalTexture":{
				"index":0
			},
			"pbrMetallicRoughness":{
				"baseColorTexture":{
					"index":1
				},
				"metallicRoughnessTexture":{
					"index":2
				}
			}
		},
		{
			"doubleSided":true,
			"name":"rusted metal",
			"normalTexture":{
				"index":3
			},
			"pbrMetallicRoughness":{
				"baseColorTexture":{
					"index":4
				},
				"metallicRoughnessTexture":{
					"index":5
				}
			}
		},
		{
			"doubleSided":true,
			"name":"copper",
			"normalTexture":{
				"index":6
			},
			"pbrMetallicRoughness":{
				"baseColorTexture":{
					"index":7
				},
				"metallicRoughnessTexture":{
					"index":8
				}
			}
		},
		{
			"doubleSided":true,
			"name":"Material.002",
			"pbrMetallicRoughness":{
				"baseColorFactor":[
					0.800000011920929,
					0.800000011920929,
					0.800000011920929,
					1
				],
				"roughnessFactor":0.5
			}
		},
		{
			"doubleSided":true,
			"name":"Material.004",
			"pbrMetallicRoughness":{
				"baseColorFactor":[
					0.800000011920929,
					0.800000011920929,
					0.800000011920929,
					1
				],
				"roughnessFactor":0.5
			}
		}
	],
	"meshes":[
		{
			"name":"Circle",
			"primitives":[
				{
					"attributes":{
						"POSITION":0,
						"NORMAL":1,
						"TEXCOORD_0":2
					},
					"indices":3,
					"material":0
				}
			]
		},
		{
			"name":"Torus.002",
			"primitives":[
				{
					"attributes":{
						"POSITION":4,
						"NORMAL":5,
						"TEXCOORD_0":6,
						"TANGENT":7
					},
					"indices":8,
					"material":1
				}
			]
		},
		{
			"name":"Cylinder.003",
			"primitives":[
				{
					"attributes":{
						"POSITION":9,
						"NORMAL":10,
						"TEXCOORD_0":11
					},
					"indices":12,
					"material":2
				}
			]
		},
		{
			"name":"Cylinder.005",
			"primitives":[
				{
					"attributes":{
						"POSITION":13,
						"NORMAL":14,
						"TEXCOORD_0":15
					},
					"indices":16,
					"material":1
				}
			]
		},
		{
			"name":"Cube.005",
			"primitives":[
				{
					"attributes":{
						"POSITION":17,
						"NORMAL":18,
						"TEXCOORD_0":19
					},
					"indices":20,
					"material":0
				}
			]
		},
		{
			"name":"Cylinder.007",
			"primitives":[
				{
					"attributes":{
						"POSITION":21,
						"NORMAL":22,
						"TEXCOORD_0":23
					},
					"indices":24,
					"material":3
				}
			]
		},
		{
			"name":"Cylinder.009",
			"primitives":[
				{
					"attributes":{
						"POSITION":25,
						"NORMAL":26,
						"TEXCOORD_0":27
					},
					"indices":28,
					"material":3
				}
			]
		},
		{
			"name":"Plane.004",
			"primitives":[
				{
					"attributes":{
						"POSITION":29,
						"NORMAL":30,
						"TEXCOORD_0":31,
						"TANGENT":32
					},
					"indices":33,
					"material":4
				}
			]
		},
		{
			"name":"Plane.005",
			"primitives":[
				{
					"attributes":{
						"POSITION":34,
						"NORMAL":35,
						"TEXCOORD_0":36,
						"TANGENT":37
					},
					"indices":38,
					"material":1
				}
			]
		},
		{
			"name":"Plane.007",
			"primitives":[
				{
					"attributes":{
						"POSITION":39,
						"NORMAL":40,
						"TEXCOORD_0":41,
						"TANGENT":42
					},
					"indices":38,
					"material":1
				}
			]
		}
	],
	"textures":[
		{
			"sampler":0,
			"source":0
		},
		{
			"sampler":0,
			"source":1
		},
		{
			"sampler":0,
			"source":2
		},
		{
			"sampler":0,
			"source":3
		},
		{
			"sampler":0,
			"source":4
		},
		{
			"sampler":0,
			"source":5
		},
		{
			"sampler":0,
			"source":6
		},
		{
			"sampler":0,
			"source":7
		},
		{
			"sampler":0,
			"source":8
		}
	],
	"images":[
		{
			"mimeType":"image/jpeg",
			"name":"Metal047B_1K-JPG_NormalGL.jpg",
			"uri":"../../Blender/Materials/Metal047B_1K-JPG/Metal047B_1K-JPG_NormalGL.jpg"
		},
		{
			"mimeType":"image/jpeg",
			"name":"Metal047B_1K-JPG_Color.jpg",
			"uri":"../../Blender/Materials/Metal047B_1K-JPG/Metal047B_1K-JPG_Color.jpg"
		},
		{
			"mimeType":"image/jpeg",
			"name":"Metal047B_1K-JPG_Roughness.jpg",
			"uri":"../../Blender/Materials/Metal047B_1K-JPG/Metal047B_1K-JPG_Roughness.jpg"
		},
		{
			"mimeType":"image/jpeg",
			"name":"Metal053C_1K-JPG_NormalGL.jpg",
			"uri":"../../Blender/Materials/Rusty%20Metal/Metal053C_1K-JPG_NormalGL.jpg"
		},
		{
			"mimeType":"image/jpeg",
			"name":"Metal053C_1K-JPG_Color.jpg",
			"uri":"../../Blender/Materials/Rusty%20Metal/Metal053C_1K-JPG_Color.jpg"
		},
		{
			"mimeType":"image/jpeg",
			"name":"Metal053C_1K-JPG_Roughness.jpg",
			"uri":"../../Blender/Materials/Rusty%20Metal/Metal053C_1K-JPG_Roughness.jpg"
		},
		{
			"mimeType":"image/jpeg",
			"name":"Metal058B_1K-JPG_NormalGL.jpg",
			"uri":"../../Blender/Materials/oxidized%20copper/Metal058B_1K-JPG_NormalGL.jpg"
		},
		{
			"mimeType":"image/jpeg",
			"name":"Metal058B_1K-JPG_Color.jpg",
			"uri":"../../Blender/Materials/oxidized%20copper/Metal058B_1K-JPG_Color.jpg"
		},
		{
			"mimeType":"image/jpeg",
			"name":"Metal058B_1K-JPG_Roughness.jpg",
			"uri":"../../Blender/Materials/oxidized%20copper/Metal058B_1K-JPG_Roughness.jpg"
		}
	],
	"accessors":[
		{
			"bufferView":0,
			"componentType":5126,
			"count":32,
			"max":[
				1,
				0,
				1
			],
			"min":[
				-1,
				0,
				-1
			],
			"type":"VEC3"
		},
		{
			"bufferView":1,
			"componentType":5126,
			"count":32,
			"type":"VEC3"
		},
		{
			"bufferView":2,
			"componentType":5126,
			"count":32,
			"type":"VEC2"
		},
		{
			"bufferView":3,
			"componentType":5123,
			"count":90,
			"type":"SCALAR"
		},
		{
			"bufferView":4,
			"componentType":5126,
			"count":336,
			"max":[
				1.100000023841858,
				0.10000000149011612,
				1.100000023841858
			],
			"min":[
				-1.100000023841858,
				0,
				-1.100000023841858
			],
			"type":"VEC3"
		},
		{
			"bufferView":5,
			"componentType":5126,
			"count":336,
			"type":"VEC3"
		},
		{
			"bufferView":6,
			"componentType":5126,
			"count":336,
			"type":"VEC2"
		},
		{
			"bufferView":7,
			"componentType":5126,
			"count":336,
			"type":"VEC4"
		},
		{
			"bufferView":8,
			"componentType":5123,
			"count":1728,
			"type":"SCALAR"
		},
		{
			"bufferView":9,
			"componentType":5126,
			"count":1148,
			"max":[
				0.16517166793346405,
				2.0709848403930664,
				0.6546490788459778
			],
			"min":[
				-0.16517172753810883,
				-0.16517160832881927,
				-0.6651716232299805
			],
			"type":"VEC3"
		},
		{
			"bufferView":10,
			"componentType":5126,
			"count":1148,
			"type":"VEC3"
		},
		{
			"bufferView":11,
			"componentType":5126,
			"count":1148,
			"type":"VEC2"
		},
		{
			"bufferView":12,
			"componentType":5123,
			"count":5736,
			"type":"SCALAR"
		},
		{
			"bufferView":13,
			"componentType":5126,
			"count":780,
			"max":[
				1,
				7.408964157104492,
				1
			],
			"min":[
				-1.0000009536743164,
				-5.702950477600098,
				-15.63563346862793
			],
			"type":"VEC3"
		},
		{
			"bufferView":14,
			"componentType":5126,
			"count":780,
			"type":"VEC3"
		},
		{
			"bufferView":15,
			"componentType":5126,
			"count":780,
			"type":"VEC2"
		},
		{
			"bufferView":16,
			"componentType":5123,
			"count":3024,
			"type":"SCALAR"
		},
		{
			"bufferView":17,
			"componentType":5126,
			"count":34,
			"max":[
				1,
				1,
				1
			],
			"min":[
				-1,
				0.9661065340042114,
				-1
			],
			"type":"VEC3"
		},
		{
			"bufferView":18,
			"componentType":5126,
			"count":34,
			"type":"VEC3"
		},
		{
			"bufferView":19,
			"componentType":5126,
			"count":34,
			"type":"VEC2"
		},
		{
			"bufferView":20,
			"componentType":5123,
			"count":90,
			"type":"SCALAR"
		},
		{
			"bufferView":21,
			"componentType":5126,
			"count":1215,
			"max":[
				0.1259891390800476,
				0.05590911582112312,
				0.12630289793014526
			],
			"min":[
				-0.7962321043014526,
				0,
				-0.12630289793014526
			],
			"type":"VEC3"
		},
		{
			"bufferView":22,
			"componentType":5126,
			"count":1215,
			"type":"VEC3"
		},
		{
			"bufferView":23,
			"componentType":5126,
			"count":1215,
			"type":"VEC2"
		},
		{
			"bufferView":24,
			"componentType":5123,
			"count":4536,
			"type":"SCALAR"
		},
		{
			"bufferView":25,
			"componentType":5126,
			"count":405,
			"max":[
				0.1259891390800476,
				0.05590911582112312,
				0.1259891390800476
			],
			"min":[
				-0.1259891390800476,
				0,
				-0.1259891390800476
			],
			"type":"VEC3"
		},
		{
			"bufferView":26,
			"componentType":5126,
			"count":405,
			"type":"VEC3"
		},
		{
			"bufferView":27,
			"componentType":5126,
			"count":405,
			"type":"VEC2"
		},
		{
			"bufferView":28,
			"componentType":5123,
			"count":1512,
			"type":"SCALAR"
		},
		{
			"bufferView":29,
			"componentType":5126,
			"count":20,
			"max":[
				0.23340904712677002,
				0,
				0.301116943359375
			],
			"min":[
				-0.23340904712677002,
				-0.04820416122674942,
				-0.7583419680595398
			],
			"type":"VEC3"
		},
		{
			"bufferView":30,
			"componentType":5126,
			"count":20,
			"type":"VEC3"
		},
		{
			"bufferView":31,
			"componentType":5126,
			"count":20,
			"type":"VEC2"
		},
		{
			"bufferView":32,
			"componentType":5126,
			"count":20,
			"type":"VEC4"
		},
		{
			"bufferView":33,
			"componentType":5123,
			"count":30,
			"type":"SCALAR"
		},
		{
			"bufferView":34,
			"componentType":5126,
			"count":6,
			"max":[
				0.3521460294723511,
				1.1693696975708008,
				-0.0790400356054306
			],
			"min":[
				-0.3521462082862854,
				0.8843953013420105,
				-1
			],
			"type":"VEC3"
		},
		{
			"bufferView":35,
			"componentType":5126,
			"count":6,
			"type":"VEC3"
		},
		{
			"bufferView":36,
			"componentType":5126,
			"count":6,
			"type":"VEC2"
		},
		{
			"bufferView":37,
			"componentType":5126,
			"count":6,
			"type":"VEC4"
		},
		{
			"bufferView":38,
			"componentType":5123,
			"count":6,
			"type":"SCALAR"
		},
		{
			"bufferView":39,
			"componentType":5126,
			"count":6,
			"max":[
				0.3521460294723511,
				0.28497451543807983,
				2.5331974029541016e-07
			],
			"min":[
				-0.3521462082862854,
				1.1920928955078125e-07,
				-0.9209597110748291
			],
			"type":"VEC3"
		},
		{
			"bufferView":40,
			"componentType":5126,
			"count":6,
			"type":"VEC3"
		},
		{
			"bufferView":41,
			"componentType":5126,
			"count":6,
			"type":"VEC2"
		},
		{
			"bufferView":42,
			"componentType":5126,
			"count":6,
			"type":"VEC4"
		},
		{
			"bufferView":43,
			"componentType":5126,
			"count":2,
			"max":[
				2.5
			],
			"min":[
				0.041666666666666664
			],
			"type":"SCALAR"
		},
		{
			"bufferView":44,
			"componentType":5126,
			"count":2,
			"type":"VEC3"
		},
		{
			"bufferView":45,
			"componentType":5126,
			"count":60,
			"max":[
				2.5
			],
			"min":[
				0.041666666666666664
			],
			"type":"SCALAR"
		},
		{
			"bufferView":46,
			"componentType":5126,
			"count":60,
			"type":"VEC4"
		},
		{
			"bufferView":47,
			"componentType":5126,
			"count":2,
			"type":"VEC3"
		}
	],
	"bufferViews":[
		{
			"buffer":0,
			"byteLength":384,
			"byteOffset":0,
			"target":34962
		},
		{
			"buffer":0,
			"byteLength":384,
			"byteOffset":384,
			"target":34962
		},
		{
			"buffer":0,
			"byteLength":256,
			"byteOffset":768,
			"target":34962
		},
		{
			"buffer":0,
			"byteLength":180,
			"byteOffset":1024,
			"target":34963
		},
		{
			"buffer":0,
			"byteLength":4032,
			"byteOffset":1204,
			"target":34962
		},
		{
			"buffer":0,
			"byteLength":4032,
			"byteOffset":5236,
			"target":34962
		},
		{
			"buffer":0,
			"byteLength":2688,
			"byteOffset":9268,
			"target":34962
		},
		{
			"buffer":0,
			"byteLength":5376,
			"byteOffset":11956,
			"target":34962
		},
		{
			"buffer":0,
			"byteLength":3456,
			"byteOffset":17332,
			"target":34963
		},
		{
			"buffer":0,
			"byteLength":13776,
			"byteOffset":20788,
			"target":34962
		},
		{
			"buffer":0,
			"byteLength":13776,
			"byteOffset":34564,
			"target":34962
		},
		{
			"buffer":0,
			"byteLength":9184,
			"byteOffset":48340,
			"target":34962
		},
		{
			"buffer":0,
			"byteLength":11472,
			"byteOffset":57524,
			"target":34963
		},
		{
			"buffer":0,
			"byteLength":9360,
			"byteOffset":68996,
			"target":34962
		},
		{
			"buffer":0,
			"byteLength":9360,
			"byteOffset":78356,
			"target":34962
		},
		{
			"buffer":0,
			"byteLength":6240,
			"byteOffset":87716,
			"target":34962
		},
		{
			"buffer":0,
			"byteLength":6048,
			"byteOffset":93956,
			"target":34963
		},
		{
			"buffer":0,
			"byteLength":408,
			"byteOffset":100004,
			"target":34962
		},
		{
			"buffer":0,
			"byteLength":408,
			"byteOffset":100412,
			"target":34962
		},
		{
			"buffer":0,
			"byteLength":272,
			"byteOffset":100820,
			"target":34962
		},
		{
			"buffer":0,
			"byteLength":180,
			"byteOffset":101092,
			"target":34963
		},
		{
			"buffer":0,
			"byteLength":14580,
			"byteOffset":101272,
			"target":34962
		},
		{
			"buffer":0,
			"byteLength":14580,
			"byteOffset":115852,
			"target":34962
		},
		{
			"buffer":0,
			"byteLength":9720,
			"byteOffset":130432,
			"target":34962
		},
		{
			"buffer":0,
			"byteLength":9072,
			"byteOffset":140152,
			"target":34963
		},
		{
			"buffer":0,
			"byteLength":4860,
			"byteOffset":149224,
			"target":34962
		},
		{
			"buffer":0,
			"byteLength":4860,
			"byteOffset":154084,
			"target":34962
		},
		{
			"buffer":0,
			"byteLength":3240,
			"byteOffset":158944,
			"target":34962
		},
		{
			"buffer":0,
			"byteLength":3024,
			"byteOffset":162184,
			"target":34963
		},
		{
			"buffer":0,
			"byteLength":240,
			"byteOffset":165208,
			"target":34962
		},
		{
			"buffer":0,
			"byteLength":240,
			"byteOffset":165448,
			"target":34962
		},
		{
			"buffer":0,
			"byteLength":160,
			"byteOffset":165688,
			"target":34962
		},
		{
			"buffer":0,
			"byteLength":320,
			"byteOffset":165848,
			"target":34962
		},
		{
			"buffer":0,
			"byteLength":60,
			"byteOffset":166168,
			"target":34963
		},
		{
			"buffer":0,
			"byteLength":72,
			"byteOffset":166228,
			"target":34962
		},
		{
			"buffer":0,
			"byteLength":72,
			"byteOffset":166300,
			"target":34962
		},
		{
			"buffer":0,
			"byteLength":48,
			"byteOffset":166372,
			"target":34962
		},
		{
			"buffer":0,
			"byteLength":96,
			"byteOffset":166420,
			"target":34962
		},
		{
			"buffer":0,
			"byteLength":12,
			"byteOffset":166516,
			"target":34963
		},
		{
			"buffer":0,
			"byteLength":72,
			"byteOffset":166528,
			"target":34962
		},
		{
			"buffer":0,
			"byteLength":72,
			"byteOffset":166600,
			"target":34962
		},
		{
			"buffer":0,
			"byteLength":48,
			"byteOffset":166672,
			"target":34962
		},
		{
			"buffer":0,
			"byteLength":96,
			"byteOffset":166720,
			"target":34962
		},
		{
			"buffer":0,
			"byteLength":8,
			"byteOffset":166816
		},
		{
			"buffer":0,
			"byteLength":24,
			"byteOffset":166824
		},
		{
			"buffer":0,
			"byteLength":240,
			"byteOffset":166848
		},
		{
			"buffer":0,
			"byteLength":960,
			"byteOffset":167088
		},
		{
			"buffer":0,
			"byteLength":24,
			"byteOffset":168048
		}
	],
	"samplers":[
		{
			"magFilter":9729,
			"minFilter":9987
		}
	],
	"buffers":[
		{
			"byteLength":168072,
			"uri":"stamina-edd674b165fdc03e87404e0b3e2dd41d.bin"
		}
	]
}
