# Blender 5.0.1
# www.blender.org
mtllib BrustalistBench1.mtl
o Plane
v 0.857336 0.103016 1.000000
v 0.900011 -0.000011 1.000000
v 0.857336 0.103016 -1.000000
v 0.900011 -0.000011 -1.000000
v 0.857336 0.297016 1.000000
v 0.900011 0.400043 1.000000
v 0.857336 0.297016 -1.000000
v 0.900011 0.400043 -1.000000
v 0.466749 0.297016 1.000000
v 0.500009 0.400044 1.000000
v 0.149555 0.525637 1.000000
v 0.236779 0.589770 1.000000
v 0.149555 0.525637 -1.000000
v 0.236779 0.589770 -1.000000
v 0.500009 0.400044 -1.000000
v 0.466749 0.297016 -1.000000
v 0.912669 0.158349 1.000000
v 1.015696 0.115674 1.000000
v 1.015696 0.284358 1.000000
v 0.912669 0.241682 1.000000
v 0.912669 0.241682 -1.000000
v 1.015696 0.284357 -1.000000
v 0.912669 0.158349 -1.000000
v 1.015696 0.115674 -1.000000
v 0.076355 -0.000001 1.000000
v 0.000000 0.000000 0.923645
v 0.000000 0.103016 0.923645
v 0.076355 0.103016 1.000000
v 0.000000 0.000000 -0.923645
v 0.076355 -0.000001 -1.000000
v 0.076355 0.103016 -1.000000
v 0.000000 0.103016 -0.923645
v 0.100015 1.000021 0.923645
v 0.124163 0.927585 1.000000
v 0.026431 0.895008 1.000000
v 0.002286 0.967444 0.923645
v 0.124163 0.927585 -1.000000
v 0.100015 1.000021 -0.923645
v 0.002286 0.967444 -0.923645
v 0.026431 0.895008 -1.000000
vn -0.0000 -0.0000 1.0000
vn -0.0000 -0.0000 -1.0000
vn 0.8056 0.5924 -0.0000
vn 0.3072 0.9516 -0.0000
vn -0.8057 -0.5924 -0.0000
vn -0.3072 -0.9516 -0.0000
vn 0.3827 0.9239 -0.0000
vn -0.3827 -0.9239 -0.0000
vn 0.9239 -0.3827 -0.0000
vn 0.9239 0.3827 -0.0000
vn -0.9239 0.3827 -0.0000
vn -0.9239 -0.3827 -0.0000
vn 0.3827 -0.9239 -0.0000
vn -0.3827 0.9239 -0.0000
vn -0.3827 -0.0000 0.9239
vn -0.9239 -0.0000 0.3827
vn -0.9239 -0.0000 -0.3827
vn -0.3827 -0.0000 -0.9239
vn -0.2922 0.8765 0.3827
vn -0.1210 0.3630 0.9239
vn -0.1210 0.3630 -0.9239
vn -0.2922 0.8765 -0.3827
vn -0.0000 -1.0000 -0.0000
vn -0.0000 1.0000 -0.0000
vn 0.9487 0.3163 -0.0000
vn -0.9487 -0.3162 -0.0000
vt 1.000000 0.000000
vt 1.000000 1.000000
vt 0.915669 1.000000
vt 0.915669 0.000000
vt 0.800000 0.000000
vt 0.800000 1.000000
vt 0.076354 0.000000
vt 0.080656 0.000000
vt 0.000000 0.038177
vt 0.000000 0.961823
vt 0.080656 1.000000
vt 0.076354 1.000000
vt 1.000000 0.038177
vt 1.000000 0.961823
s 1
f 11/1/1 9/1/1 10/1/1 12/1/1
f 16/2/2 13/2/2 14/2/2 15/2/2
f 7/2/2 16/2/2 15/2/2 8/2/2
f 9/1/1 5/1/1 6/1/1 10/1/1
f 23/3/2 21/2/2 22/2/2 24/3/2
f 20/1/1 17/4/1 18/4/1 19/1/1
f 17/4/1 1/5/1 2/5/1 18/4/1
f 3/6/2 23/3/2 24/3/2 4/6/2
f 5/1/1 20/1/1 19/1/1 6/1/1
f 21/2/2 7/2/2 8/2/2 22/2/2
f 12/1/3 10/1/4 15/2/4 14/2/3
f 11/1/5 13/2/5 16/2/6 9/1/6
f 6/1/7 8/2/7 15/2/4 10/1/4
f 5/1/8 9/1/6 16/2/6 7/2/8
f 24/3/9 22/2/10 19/1/10 18/4/9
f 23/3/11 17/4/11 20/1/12 21/2/12
f 18/4/9 2/5/13 4/6/13 24/3/9
f 17/4/11 23/3/11 3/6/14 1/5/14
f 6/1/7 19/1/10 22/2/10 8/2/7
f 5/1/8 7/2/8 21/2/12 20/1/12
f 25/7/15 28/8/15 27/9/16 26/9/16
f 29/10/17 32/10/17 31/11/18 30/12/18
f 33/13/19 36/13/19 35/1/20 34/1/20
f 37/2/21 40/2/21 39/14/22 38/14/22
f 2/5/13 25/7/23 26/9/23 29/10/23 30/12/23 4/6/13
f 1/5/1 28/8/15 25/7/15 2/5/1
f 29/10/17 26/9/16 27/9/16 32/10/17
f 1/5/14 3/6/14 31/11/24 32/10/24 27/9/24 28/8/24
f 31/11/18 3/6/2 4/6/2 30/12/18
f 12/1/3 14/2/3 37/2/25 38/14/25 33/13/25 34/1/25
f 35/1/20 11/1/1 12/1/1 34/1/20
f 33/13/19 38/14/22 39/14/22 36/13/19
f 11/1/5 35/1/26 36/13/26 39/14/26 40/2/26 13/2/5
f 13/2/2 40/2/21 37/2/21 14/2/2
